%TF.GenerationSoftware,KiCad,Pcbnew,(6.0.2-0)*%
%TF.CreationDate,2022-05-24T22:23:29-07:00*%
%TF.ProjectId,adux_take_2,61647578-5f74-4616-9b65-5f322e6b6963,v1.0.0*%
%TF.SameCoordinates,Original*%
%TF.FileFunction,Soldermask,Bot*%
%TF.FilePolarity,Negative*%
%FSLAX46Y46*%
G04 Gerber Fmt 4.6, Leading zero omitted, Abs format (unit mm)*
G04 Created by KiCad (PCBNEW (6.0.2-0)) date 2022-05-24 22:23:29*
%MOMM*%
%LPD*%
G01*
G04 APERTURE LIST*
G04 Aperture macros list*
%AMRoundRect*
0 Rectangle with rounded corners*
0 $1 Rounding radius*
0 $2 $3 $4 $5 $6 $7 $8 $9 X,Y pos of 4 corners*
0 Add a 4 corners polygon primitive as box body*
4,1,4,$2,$3,$4,$5,$6,$7,$8,$9,$2,$3,0*
0 Add four circle primitives for the rounded corners*
1,1,$1+$1,$2,$3*
1,1,$1+$1,$4,$5*
1,1,$1+$1,$6,$7*
1,1,$1+$1,$8,$9*
0 Add four rect primitives between the rounded corners*
20,1,$1+$1,$2,$3,$4,$5,0*
20,1,$1+$1,$4,$5,$6,$7,0*
20,1,$1+$1,$6,$7,$8,$9,0*
20,1,$1+$1,$8,$9,$2,$3,0*%
%AMHorizOval*
0 Thick line with rounded ends*
0 $1 width*
0 $2 $3 position (X,Y) of the first rounded end (center of the circle)*
0 $4 $5 position (X,Y) of the second rounded end (center of the circle)*
0 Add line between two ends*
20,1,$1,$2,$3,$4,$5,0*
0 Add two circle primitives to create the rounded ends*
1,1,$1,$2,$3*
1,1,$1,$4,$5*%
G04 Aperture macros list end*
%ADD10C,4.087800*%
%ADD11C,1.801800*%
%ADD12C,3.100000*%
%ADD13RoundRect,0.050000X1.275000X1.250000X-1.275000X1.250000X-1.275000X-1.250000X1.275000X-1.250000X0*%
%ADD14C,2.386000*%
%ADD15C,1.852600*%
%ADD16RoundRect,0.050000X-0.796591X0.949340X-0.949340X-0.796591X0.796591X-0.949340X0.949340X0.796591X0*%
%ADD17HorizOval,1.700000X-0.026147X-0.298858X0.026147X0.298858X0*%
%ADD18C,1.600000*%
G04 APERTURE END LIST*
D10*
%TO.C,S1*%
X13600076Y-579261D03*
D11*
X18506979Y735540D03*
X8693173Y-1894062D03*
D12*
X14738727Y4985043D03*
X9262498Y888090D03*
D13*
X6099091Y40458D03*
X17928214Y5839663D03*
D12*
X9831824Y3670242D03*
X16622853Y2860291D03*
%TD*%
D10*
%TO.C,S2*%
X13600076Y-579261D03*
D11*
X8693173Y-1894062D03*
X18506979Y735540D03*
D14*
X12461425Y-6143565D03*
X17937654Y-2046612D03*
X17368328Y-4828764D03*
X10577299Y-4018813D03*
%TD*%
D10*
%TO.C,S3*%
X8669573Y17821626D03*
D11*
X13576476Y19136427D03*
X3762670Y16506825D03*
D12*
X9808224Y23385930D03*
X4331995Y19288977D03*
D13*
X1168588Y18441345D03*
X12997711Y24240550D03*
D12*
X4901321Y22071129D03*
X11692350Y21261178D03*
%TD*%
D10*
%TO.C,S4*%
X8669573Y17821626D03*
D11*
X3762670Y16506825D03*
X13576476Y19136427D03*
D14*
X7530922Y12257322D03*
X13007151Y16354275D03*
X12437825Y13572123D03*
X5646796Y14382074D03*
%TD*%
D10*
%TO.C,S5*%
X3739071Y36222513D03*
D11*
X8645974Y37537314D03*
X-1167832Y34907712D03*
D12*
X4877722Y41786817D03*
X-598507Y37689864D03*
D13*
X-3761914Y36842232D03*
X8067209Y42641437D03*
D12*
X-29181Y40472016D03*
X6761848Y39662065D03*
%TD*%
D10*
%TO.C,S6*%
X3739071Y36222513D03*
D11*
X-1167832Y34907712D03*
X8645974Y37537314D03*
D14*
X2600420Y30658209D03*
X8076649Y34755162D03*
X7507323Y31973010D03*
X716294Y32782961D03*
%TD*%
D10*
%TO.C,S7*%
X30401669Y25396133D03*
D11*
X35462338Y25838884D03*
X25341000Y24953382D03*
D12*
X32489252Y30678178D03*
X26384792Y27594404D03*
D13*
X23122254Y27308969D03*
X35778687Y30965966D03*
D12*
X27428583Y30235426D03*
X33975795Y28258531D03*
%TD*%
D10*
%TO.C,S8*%
X30401669Y25396133D03*
D11*
X25341000Y24953382D03*
X35462338Y25838884D03*
D14*
X28314086Y20114088D03*
X34418546Y23197862D03*
X33374755Y20556840D03*
X26827543Y22533735D03*
%TD*%
D10*
%TO.C,S9*%
X28741352Y44373642D03*
D11*
X33802021Y44816393D03*
X23680683Y43930891D03*
D12*
X30828935Y49655687D03*
X24724475Y46571913D03*
D13*
X21461937Y46286478D03*
X34118370Y49943475D03*
D12*
X25768266Y49212935D03*
X32315478Y47236040D03*
%TD*%
D10*
%TO.C,S10*%
X28741352Y44373642D03*
D11*
X23680683Y43930891D03*
X33802021Y44816393D03*
D14*
X26653769Y39091597D03*
X32758229Y42175371D03*
X31714438Y39534349D03*
X25167226Y41511244D03*
%TD*%
D10*
%TO.C,S11*%
X27081035Y63351151D03*
D11*
X32141704Y63793902D03*
X22020366Y62908400D03*
D12*
X29168618Y68633196D03*
X23064158Y65549422D03*
D13*
X19801620Y65263987D03*
X32458053Y68920984D03*
D12*
X24107949Y68190444D03*
X30655161Y66213549D03*
%TD*%
D10*
%TO.C,S12*%
X27081035Y63351151D03*
D11*
X22020366Y62908400D03*
X32141704Y63793902D03*
D14*
X24993452Y58069106D03*
X31097912Y61152880D03*
X30054121Y58511858D03*
X23506909Y60488753D03*
%TD*%
D10*
%TO.C,S13*%
X50566943Y32766243D03*
D11*
X55646943Y32766243D03*
X45486943Y32766243D03*
D12*
X53106943Y37846243D03*
X46756943Y35306243D03*
D13*
X43481943Y35306243D03*
X56408943Y37846243D03*
D12*
X48026943Y37846243D03*
X54376943Y35306243D03*
%TD*%
D10*
%TO.C,S14*%
X50566943Y32766243D03*
D11*
X45486943Y32766243D03*
X55646943Y32766243D03*
D14*
X48026943Y27686243D03*
X54376943Y30226243D03*
X53106943Y27686243D03*
X46756943Y30226243D03*
%TD*%
D10*
%TO.C,S15*%
X50566943Y51816243D03*
D11*
X55646943Y51816243D03*
X45486943Y51816243D03*
D12*
X53106943Y56896243D03*
X46756943Y54356243D03*
D13*
X43481943Y54356243D03*
X56408943Y56896243D03*
D12*
X48026943Y56896243D03*
X54376943Y54356243D03*
%TD*%
D10*
%TO.C,S16*%
X50566943Y51816243D03*
D11*
X45486943Y51816243D03*
X55646943Y51816243D03*
D14*
X48026943Y46736243D03*
X54376943Y49276243D03*
X53106943Y46736243D03*
X46756943Y49276243D03*
%TD*%
D10*
%TO.C,S17*%
X50566943Y70866243D03*
D11*
X55646943Y70866243D03*
X45486943Y70866243D03*
D12*
X53106943Y75946243D03*
X46756943Y73406243D03*
D13*
X43481943Y73406243D03*
X56408943Y75946243D03*
D12*
X48026943Y75946243D03*
X54376943Y73406243D03*
%TD*%
D10*
%TO.C,S18*%
X50566943Y70866243D03*
D11*
X45486943Y70866243D03*
X55646943Y70866243D03*
D14*
X48026943Y65786243D03*
X54376943Y68326243D03*
X53106943Y65786243D03*
X46756943Y68326243D03*
%TD*%
D10*
%TO.C,S19*%
X70898591Y27034887D03*
D11*
X75959260Y26592136D03*
X65837922Y27477638D03*
D12*
X73871677Y31874180D03*
X67324465Y29897285D03*
D13*
X64061927Y30182720D03*
X77161112Y31586392D03*
D12*
X68811008Y32316932D03*
X74915468Y29233158D03*
%TD*%
D10*
%TO.C,S20*%
X70898591Y27034887D03*
D11*
X65837922Y27477638D03*
X75959260Y26592136D03*
D14*
X67925505Y22195594D03*
X74472717Y24172489D03*
X72986174Y21752842D03*
X66881714Y24836616D03*
%TD*%
D10*
%TO.C,S21*%
X72558908Y46012396D03*
D11*
X77619577Y45569645D03*
X67498239Y46455147D03*
D12*
X75531994Y50851689D03*
X68984782Y48874794D03*
D13*
X65722244Y49160229D03*
X78821429Y50563901D03*
D12*
X70471325Y51294441D03*
X76575785Y48210667D03*
%TD*%
D10*
%TO.C,S22*%
X72558908Y46012396D03*
D11*
X67498239Y46455147D03*
X77619577Y45569645D03*
D14*
X69585822Y41173103D03*
X76133034Y43149998D03*
X74646491Y40730351D03*
X68542031Y43814125D03*
%TD*%
D10*
%TO.C,S23*%
X74219225Y64989905D03*
D11*
X79279894Y64547154D03*
X69158556Y65432656D03*
D12*
X77192311Y69829198D03*
X70645099Y67852303D03*
D13*
X67382561Y68137738D03*
X80481746Y69541410D03*
D12*
X72131642Y70271950D03*
X78236102Y67188176D03*
%TD*%
D10*
%TO.C,S24*%
X74219225Y64989905D03*
D11*
X69158556Y65432656D03*
X79279894Y64547154D03*
D14*
X71246139Y60150612D03*
X77793351Y62127507D03*
X76306808Y59707860D03*
X70202348Y62791634D03*
%TD*%
D10*
%TO.C,S25*%
X89629158Y22552018D03*
D11*
X94689827Y22109267D03*
X84568489Y22994769D03*
D12*
X92602244Y27391311D03*
X86055032Y25414416D03*
D13*
X82792494Y25699851D03*
X95891679Y27103523D03*
D12*
X87541575Y27834063D03*
X93646035Y24750289D03*
%TD*%
D10*
%TO.C,S26*%
X89629158Y22552018D03*
D11*
X84568489Y22994769D03*
X94689827Y22109267D03*
D14*
X86656072Y17712725D03*
X93203284Y19689620D03*
X91716741Y17269973D03*
X85612281Y20353747D03*
%TD*%
D10*
%TO.C,S27*%
X91289475Y41529527D03*
D11*
X96350144Y41086776D03*
X86228806Y41972278D03*
D12*
X94262561Y46368820D03*
X87715349Y44391925D03*
D13*
X84452811Y44677360D03*
X97551996Y46081032D03*
D12*
X89201892Y46811572D03*
X95306352Y43727798D03*
%TD*%
D10*
%TO.C,S28*%
X91289475Y41529527D03*
D11*
X86228806Y41972278D03*
X96350144Y41086776D03*
D14*
X88316389Y36690234D03*
X94863601Y38667129D03*
X93377058Y36247482D03*
X87272598Y39331256D03*
%TD*%
D10*
%TO.C,S29*%
X92949792Y60507036D03*
D11*
X98010461Y60064285D03*
X87889123Y60949787D03*
D12*
X95922878Y65346329D03*
X89375666Y63369434D03*
D13*
X86113128Y63654869D03*
X99212313Y65058541D03*
D12*
X90862209Y65789081D03*
X96966669Y62705307D03*
%TD*%
D10*
%TO.C,S30*%
X92949792Y60507036D03*
D11*
X87889123Y60949787D03*
X98010461Y60064285D03*
D14*
X89976706Y55667743D03*
X96523918Y57644638D03*
X95037375Y55224991D03*
X88932915Y58308765D03*
%TD*%
D10*
%TO.C,S31*%
X86665863Y-11318602D03*
D11*
X91439502Y-13056064D03*
X81892224Y-9581140D03*
D12*
X90790145Y-7413695D03*
X83954365Y-7628686D03*
D13*
X80876872Y-6508570D03*
X93893010Y-8543045D03*
D12*
X86016506Y-5676232D03*
X91114823Y-10234879D03*
%TD*%
D10*
%TO.C,S32*%
X86665863Y-11318602D03*
D11*
X81892224Y-9581140D03*
X91439502Y-13056064D03*
D14*
X82541581Y-15223509D03*
X89377361Y-15008518D03*
X87315220Y-16960972D03*
X82216903Y-12402325D03*
%TD*%
D10*
%TO.C,S33*%
X107194926Y-20607291D03*
D11*
X111594335Y-23147291D03*
X102795517Y-18067291D03*
D12*
X111934631Y-17477882D03*
X105165369Y-16502586D03*
D13*
X102329136Y-14865086D03*
X114794246Y-19128882D03*
D12*
X107535221Y-14937882D03*
X111764483Y-20312586D03*
%TD*%
D10*
%TO.C,S34*%
X107194926Y-20607291D03*
D11*
X102795517Y-18067291D03*
X111594335Y-23147291D03*
D14*
X102455221Y-23736700D03*
X109224483Y-24711996D03*
X106854631Y-26276700D03*
X102625369Y-20901996D03*
%TD*%
D15*
%TO.C,MCU1*%
X116712750Y19256141D03*
X116934125Y21786476D03*
X117155501Y24316810D03*
X117376877Y26847145D03*
X117598252Y29377479D03*
X117819628Y31907814D03*
X118041003Y34438149D03*
X118262379Y36968483D03*
X118483755Y39498818D03*
X118705130Y42029152D03*
X118926506Y44559487D03*
X119147881Y47089821D03*
X101530743Y20584395D03*
X101752118Y23114729D03*
X101973494Y25645064D03*
X102194869Y28175398D03*
X102416245Y30705733D03*
X102637621Y33236067D03*
X102858996Y35766402D03*
X103080372Y38296737D03*
X103301747Y40827071D03*
X103523123Y43357406D03*
X103744499Y45887740D03*
D16*
X103965874Y48418075D03*
%TD*%
D17*
%TO.C,REF\u002A\u002A*%
X126819642Y42964164D03*
X126558174Y39975580D03*
X126209551Y35990801D03*
X121531184Y35295903D03*
X122237146Y43365080D03*
X121975679Y40376496D03*
X121627056Y36391717D03*
X126113680Y34894987D03*
D18*
X124667843Y44758534D03*
X124057753Y37785171D03*
%TD*%
M02*
