M48
; DRILL file {KiCad (6.0.2-0)} date Tuesday, May 24, 2022 at 10:23:33 PM
; FORMAT={-:-/ absolute / metric / decimal}
; #@! TF.CreationDate,2022-05-24T22:23:33-07:00
; #@! TF.GenerationSoftware,Kicad,Pcbnew,(6.0.2-0)
; #@! TF.FileFunction,Plated,1,2,PTH
FMAT,2
METRIC
; #@! TA.AperFunction,Plated,PTH,ComponentDrill
T1C0.900
; #@! TA.AperFunction,Plated,PTH,ComponentDrill
T2C1.092
; #@! TA.AperFunction,Plated,PTH,ComponentDrill
T3C1.499
%
G90
G05
T2
X101.531Y20.584
X101.752Y23.115
X101.973Y25.645
X102.195Y28.175
X102.416Y30.706
X102.638Y33.236
X102.859Y35.766
X103.08Y38.297
X103.302Y40.827
X103.523Y43.357
X103.744Y45.888
X103.966Y48.418
X116.713Y19.256
X116.934Y21.786
X117.156Y24.317
X117.377Y26.847
X117.598Y29.377
X117.82Y31.908
X118.041Y34.438
X118.262Y36.968
X118.484Y39.499
X118.705Y42.029
X118.927Y44.559
X119.148Y47.09
T3
X0.716Y32.783
X2.6Y30.658
X5.647Y14.382
X7.507Y31.973
X7.531Y12.257
X8.077Y34.755
X10.577Y-4.019
X12.438Y13.572
X12.461Y-6.144
X13.007Y16.354
X17.368Y-4.829
X17.938Y-2.047
X23.507Y60.489
X24.993Y58.069
X25.167Y41.511
X26.654Y39.092
X26.828Y22.534
X28.314Y20.114
X30.054Y58.512
X31.098Y61.153
X31.714Y39.534
X32.758Y42.175
X33.375Y20.557
X34.419Y23.198
X46.757Y68.326
X46.757Y49.276
X46.757Y30.226
X48.027Y65.786
X48.027Y46.736
X48.027Y27.686
X53.107Y65.786
X53.107Y46.736
X53.107Y27.686
X54.377Y68.326
X54.377Y49.276
X54.377Y30.226
X66.882Y24.837
X67.926Y22.196
X68.542Y43.814
X69.586Y41.173
X70.202Y62.792
X71.246Y60.151
X72.986Y21.753
X74.473Y24.172
X74.646Y40.73
X76.133Y43.15
X76.307Y59.708
X77.793Y62.128
X82.217Y-12.402
X82.542Y-15.224
X85.612Y20.354
X86.656Y17.713
X87.273Y39.331
X87.315Y-16.961
X88.316Y36.69
X88.933Y58.309
X89.377Y-15.009
X89.977Y55.668
X91.717Y17.27
X93.203Y19.69
X93.377Y36.247
X94.864Y38.667
X95.037Y55.225
X96.524Y57.645
X102.455Y-23.737
X102.625Y-20.902
X106.855Y-26.277
X109.224Y-24.712
T1
G00X121.557Y35.595
M15
G01X121.505Y34.997
M16
G05
G00X121.653Y36.691
M15
G01X121.601Y36.093
M16
G05
G00X122.002Y40.675
M15
G01X121.95Y40.078
M16
G05
G00X122.263Y43.664
M15
G01X122.211Y43.066
M16
G05
G00X126.14Y35.194
M15
G01X126.088Y34.596
M16
G05
G00X126.236Y36.29
M15
G01X126.183Y35.692
M16
G05
G00X126.584Y40.274
M15
G01X126.532Y39.677
M16
G05
G00X126.846Y43.263
M15
G01X126.793Y42.665
M16
G05
T0
M30
