%TF.GenerationSoftware,KiCad,Pcbnew,(6.0.2-0)*%
%TF.CreationDate,2022-05-24T22:23:29-07:00*%
%TF.ProjectId,adux_take_2,61647578-5f74-4616-9b65-5f322e6b6963,v1.0.0*%
%TF.SameCoordinates,Original*%
%TF.FileFunction,Legend,Top*%
%TF.FilePolarity,Positive*%
%FSLAX46Y46*%
G04 Gerber Fmt 4.6, Leading zero omitted, Abs format (unit mm)*
G04 Created by KiCad (PCBNEW (6.0.2-0)) date 2022-05-24 22:23:29*
%MOMM*%
%LPD*%
G01*
G04 APERTURE LIST*
G04 Aperture macros list*
%AMRotRect*
0 Rectangle, with rotation*
0 The origin of the aperture is its center*
0 $1 length*
0 $2 width*
0 $3 Rotation angle, in degrees counterclockwise*
0 Add horizontal line*
21,1,$1,$2,0,0,$3*%
G04 Aperture macros list end*
%ADD10C,0.150000*%
%ADD11C,1.752600*%
%ADD12RotRect,1.752600X1.752600X265.000000*%
G04 APERTURE END LIST*
D10*
%TO.C,MCU1*%
X114902755Y19777783D02*
X114833030Y18980827D01*
X114529428Y19007389D01*
X114456847Y19051979D01*
X114422217Y19093250D01*
X114390908Y19172470D01*
X114400868Y19286321D01*
X114445459Y19358902D01*
X114486729Y19393532D01*
X114565950Y19424842D01*
X114869552Y19398280D01*
X113884273Y19063832D02*
X113808373Y19070473D01*
X113735792Y19115063D01*
X113701162Y19156334D01*
X113669852Y19235555D01*
X113645183Y19390676D01*
X113661784Y19580427D01*
X113713015Y19728908D01*
X113757606Y19801489D01*
X113798876Y19836119D01*
X113878097Y19867428D01*
X113953998Y19860788D01*
X114026578Y19816197D01*
X114061208Y19774927D01*
X114092518Y19695706D01*
X114117187Y19540585D01*
X114100586Y19350833D01*
X114049355Y19202352D01*
X114004764Y19129772D01*
X113963494Y19095142D01*
X113884273Y19063832D01*
X113308843Y19917232D02*
X113157042Y19930513D01*
X113077821Y19899203D01*
X113036551Y19864573D01*
X112950689Y19757362D01*
X112899458Y19608881D01*
X112872897Y19305279D01*
X112904206Y19226058D01*
X112938836Y19184788D01*
X113011417Y19140197D01*
X113163218Y19126916D01*
X113242439Y19158226D01*
X113283709Y19192856D01*
X113328300Y19265437D01*
X113344901Y19455188D01*
X113313591Y19534409D01*
X113278961Y19575679D01*
X113206381Y19620270D01*
X113054580Y19633551D01*
X112975359Y19602241D01*
X112934088Y19567611D01*
X112889498Y19495031D01*
X115124130Y22308117D02*
X115054405Y21511161D01*
X114750803Y21537723D01*
X114678222Y21582313D01*
X114643592Y21623584D01*
X114612283Y21702804D01*
X114622243Y21816655D01*
X114666834Y21889236D01*
X114708104Y21923866D01*
X114787325Y21955176D01*
X115090927Y21928614D01*
X114105648Y21594166D02*
X114029748Y21600807D01*
X113957167Y21645397D01*
X113922537Y21686668D01*
X113891227Y21765889D01*
X113866558Y21921010D01*
X113883159Y22110761D01*
X113934390Y22259242D01*
X113978981Y22331823D01*
X114020251Y22366453D01*
X114099472Y22397762D01*
X114175373Y22391122D01*
X114247953Y22346531D01*
X114282583Y22305261D01*
X114313893Y22226040D01*
X114338562Y22070919D01*
X114321961Y21881167D01*
X114270730Y21732686D01*
X114226139Y21660106D01*
X114184869Y21625476D01*
X114105648Y21594166D01*
X113414475Y21998803D02*
X113487055Y21954212D01*
X113521685Y21912942D01*
X113552995Y21833721D01*
X113549675Y21795771D01*
X113505084Y21723190D01*
X113463814Y21688560D01*
X113384593Y21657250D01*
X113232792Y21670531D01*
X113160211Y21715122D01*
X113125581Y21756392D01*
X113094272Y21835613D01*
X113097592Y21873564D01*
X113142183Y21946144D01*
X113183453Y21980774D01*
X113262674Y22012084D01*
X113414475Y21998803D01*
X113493696Y22030113D01*
X113534966Y22064743D01*
X113579557Y22137323D01*
X113592838Y22289124D01*
X113561528Y22368345D01*
X113526898Y22409615D01*
X113454318Y22454206D01*
X113302516Y22467487D01*
X113223296Y22436177D01*
X113182025Y22401547D01*
X113137434Y22328967D01*
X113124154Y22177166D01*
X113155463Y22097945D01*
X113190093Y22056674D01*
X113262674Y22012084D01*
X115345506Y24838452D02*
X115275781Y24041496D01*
X114972179Y24068058D01*
X114899598Y24112648D01*
X114864968Y24153919D01*
X114833659Y24233139D01*
X114843619Y24346990D01*
X114888210Y24419571D01*
X114929480Y24454201D01*
X115008701Y24485511D01*
X115312303Y24458949D01*
X114327024Y24124501D02*
X114251124Y24131142D01*
X114178543Y24175732D01*
X114143913Y24217003D01*
X114112603Y24296224D01*
X114087934Y24451345D01*
X114104535Y24641096D01*
X114155766Y24789577D01*
X114200357Y24862158D01*
X114241627Y24896788D01*
X114320848Y24928097D01*
X114396749Y24921457D01*
X114469329Y24876866D01*
X114503959Y24835596D01*
X114535269Y24756375D01*
X114559938Y24601254D01*
X114543337Y24411502D01*
X114492106Y24263021D01*
X114447515Y24190441D01*
X114406245Y24155811D01*
X114327024Y24124501D01*
X113795720Y24170984D02*
X113264416Y24217467D01*
X113675694Y24984541D01*
X115566882Y27368786D02*
X115497157Y26571830D01*
X115193555Y26598392D01*
X115120974Y26642982D01*
X115086344Y26684253D01*
X115055035Y26763473D01*
X115064995Y26877324D01*
X115109586Y26949905D01*
X115150856Y26984535D01*
X115230077Y27015845D01*
X115533679Y26989283D01*
X114548400Y26654835D02*
X114472500Y26661476D01*
X114399919Y26706066D01*
X114365289Y26747337D01*
X114333979Y26826558D01*
X114309310Y26981679D01*
X114325911Y27171430D01*
X114377142Y27319911D01*
X114421733Y27392492D01*
X114463003Y27427122D01*
X114542224Y27458431D01*
X114618125Y27451791D01*
X114690705Y27407200D01*
X114725335Y27365930D01*
X114756645Y27286709D01*
X114781314Y27131588D01*
X114764713Y26941836D01*
X114713482Y26793355D01*
X114668891Y26720775D01*
X114627621Y26686145D01*
X114548400Y26654835D01*
X113599643Y26737841D02*
X113751444Y26724560D01*
X113830665Y26755870D01*
X113871936Y26790500D01*
X113957797Y26897710D01*
X114009028Y27046191D01*
X114035590Y27349793D01*
X114004280Y27429014D01*
X113969650Y27470284D01*
X113897070Y27514875D01*
X113745268Y27528156D01*
X113666048Y27496846D01*
X113624777Y27462216D01*
X113580186Y27389636D01*
X113563585Y27199884D01*
X113594895Y27120664D01*
X113629525Y27079393D01*
X113702106Y27034802D01*
X113853907Y27021522D01*
X113933127Y27052831D01*
X113974398Y27087461D01*
X114018989Y27160042D01*
X115788257Y29899121D02*
X115718532Y29102165D01*
X115414930Y29128727D01*
X115342349Y29173317D01*
X115307719Y29214588D01*
X115276410Y29293808D01*
X115286370Y29407659D01*
X115330961Y29480240D01*
X115372231Y29514870D01*
X115451452Y29546180D01*
X115755054Y29519618D01*
X114769775Y29185170D02*
X114693875Y29191811D01*
X114621294Y29236401D01*
X114586664Y29277672D01*
X114555354Y29356893D01*
X114530685Y29512014D01*
X114547286Y29701765D01*
X114598517Y29850246D01*
X114643108Y29922827D01*
X114684378Y29957457D01*
X114763599Y29988766D01*
X114839500Y29982126D01*
X114912080Y29937535D01*
X114946710Y29896265D01*
X114978020Y29817044D01*
X115002689Y29661923D01*
X114986088Y29472171D01*
X114934857Y29323690D01*
X114890266Y29251110D01*
X114848996Y29216480D01*
X114769775Y29185170D01*
X113783068Y29271496D02*
X114162571Y29238294D01*
X114233723Y29614476D01*
X114192453Y29579846D01*
X114113232Y29548536D01*
X113923481Y29565137D01*
X113850900Y29609728D01*
X113816270Y29650999D01*
X113784960Y29730219D01*
X113801561Y29919971D01*
X113846152Y29992551D01*
X113887423Y30027181D01*
X113966643Y30058491D01*
X114156395Y30041890D01*
X114228975Y29997299D01*
X114263605Y29956029D01*
X116009633Y32429455D02*
X115939908Y31632499D01*
X115636306Y31659061D01*
X115563725Y31703651D01*
X115529095Y31744922D01*
X115497786Y31824142D01*
X115507746Y31937993D01*
X115552337Y32010574D01*
X115593607Y32045204D01*
X115672828Y32076514D01*
X115976430Y32049952D01*
X114991151Y31715504D02*
X114915251Y31722145D01*
X114842670Y31766735D01*
X114808040Y31808006D01*
X114776730Y31887227D01*
X114752061Y32042348D01*
X114768662Y32232099D01*
X114819893Y32380580D01*
X114864484Y32453161D01*
X114905754Y32487791D01*
X114984975Y32519100D01*
X115060876Y32512460D01*
X115133456Y32467869D01*
X115168086Y32426599D01*
X115199396Y32347378D01*
X115224065Y32192257D01*
X115207464Y32002505D01*
X115156233Y31854024D01*
X115111642Y31781444D01*
X115070372Y31746814D01*
X114991151Y31715504D01*
X114065636Y32064162D02*
X114112119Y32595465D01*
X114228825Y31743958D02*
X114468380Y32296611D01*
X113975027Y32339774D01*
X116231008Y34959790D02*
X116161283Y34162834D01*
X115857681Y34189396D01*
X115785100Y34233986D01*
X115750470Y34275257D01*
X115719161Y34354477D01*
X115729121Y34468328D01*
X115773712Y34540909D01*
X115814982Y34575539D01*
X115894203Y34606849D01*
X116197805Y34580287D01*
X115212526Y34245839D02*
X115136626Y34252480D01*
X115064045Y34297070D01*
X115029415Y34338341D01*
X114998105Y34417562D01*
X114973436Y34572683D01*
X114990037Y34762434D01*
X115041268Y34910915D01*
X115085859Y34983496D01*
X115127129Y35018126D01*
X115206350Y35049435D01*
X115282251Y35042795D01*
X115354831Y34998204D01*
X115389461Y34956934D01*
X115420771Y34877713D01*
X115445440Y34722592D01*
X115428839Y34532840D01*
X115377608Y34384359D01*
X115333017Y34311779D01*
X115291747Y34277149D01*
X115212526Y34245839D01*
X114681222Y34292322D02*
X114187869Y34335485D01*
X114480082Y34615846D01*
X114366232Y34625806D01*
X114293651Y34670397D01*
X114259021Y34711668D01*
X114227711Y34790888D01*
X114244312Y34980640D01*
X114288903Y35053220D01*
X114330174Y35087850D01*
X114409394Y35119160D01*
X114637096Y35099239D01*
X114709676Y35054648D01*
X114744306Y35013378D01*
X116452384Y37490124D02*
X116382659Y36693168D01*
X116079057Y36719730D01*
X116006476Y36764320D01*
X115971846Y36805591D01*
X115940537Y36884811D01*
X115950497Y36998662D01*
X115995088Y37071243D01*
X116036358Y37105873D01*
X116115579Y37137183D01*
X116419181Y37110621D01*
X115433902Y36776173D02*
X115358002Y36782814D01*
X115285421Y36827404D01*
X115250791Y36868675D01*
X115219481Y36947896D01*
X115194812Y37103017D01*
X115211413Y37292768D01*
X115262644Y37441249D01*
X115307235Y37513830D01*
X115348505Y37548460D01*
X115427726Y37579769D01*
X115503627Y37573129D01*
X115576207Y37528538D01*
X115610837Y37487268D01*
X115642147Y37408047D01*
X115666816Y37252926D01*
X115650215Y37063174D01*
X115598984Y36914693D01*
X115554393Y36842113D01*
X115513123Y36807483D01*
X115433902Y36776173D01*
X114871288Y36901877D02*
X114830018Y36867247D01*
X114750797Y36835937D01*
X114561046Y36852538D01*
X114488465Y36897129D01*
X114453835Y36938399D01*
X114422526Y37017620D01*
X114429166Y37093521D01*
X114477077Y37204051D01*
X114972323Y37619612D01*
X114478969Y37662775D01*
X116246828Y39292995D02*
X116319408Y39248404D01*
X116433259Y39238444D01*
X116550430Y39266433D01*
X116632971Y39335693D01*
X116677561Y39408274D01*
X116728793Y39556755D01*
X116738753Y39670606D01*
X116714084Y39825727D01*
X116682774Y39904948D01*
X116613514Y39987489D01*
X116502983Y40035400D01*
X116427083Y40042040D01*
X116309912Y40014050D01*
X116268641Y39979420D01*
X116245400Y39713768D01*
X116397201Y39700487D01*
X115933729Y40085203D02*
X115864005Y39288247D01*
X115478326Y40125045D01*
X115408601Y39328090D01*
X115098823Y40158248D02*
X115029099Y39361292D01*
X114839347Y39377893D01*
X114728817Y39425804D01*
X114659557Y39508345D01*
X114628247Y39587566D01*
X114603577Y39742687D01*
X114613538Y39856538D01*
X114664769Y40005019D01*
X114709360Y40077599D01*
X114791901Y40146859D01*
X114909072Y40174849D01*
X115098823Y40158248D01*
X116468203Y41823329D02*
X116540783Y41778738D01*
X116654634Y41768778D01*
X116771805Y41796767D01*
X116854346Y41866027D01*
X116898936Y41938608D01*
X116950168Y42087089D01*
X116960128Y42200940D01*
X116935459Y42356061D01*
X116904149Y42435282D01*
X116834889Y42517823D01*
X116724358Y42565734D01*
X116648458Y42572374D01*
X116531287Y42544384D01*
X116490016Y42509754D01*
X116466775Y42244102D01*
X116618576Y42230821D01*
X116155104Y42615537D02*
X116085380Y41818581D01*
X115699701Y42655379D01*
X115629976Y41858424D01*
X115320198Y42688582D02*
X115250474Y41891626D01*
X115060722Y41908227D01*
X114950192Y41956138D01*
X114880932Y42038679D01*
X114849622Y42117900D01*
X114824952Y42273021D01*
X114834913Y42386872D01*
X114886144Y42535353D01*
X114930735Y42607933D01*
X115013276Y42677193D01*
X115130447Y42705183D01*
X115320198Y42688582D01*
X117116511Y45081128D02*
X117046786Y44284172D01*
X116743184Y44310734D01*
X116670603Y44355324D01*
X116635973Y44396595D01*
X116604664Y44475815D01*
X116614624Y44589666D01*
X116659215Y44662247D01*
X116700485Y44696877D01*
X116779706Y44728187D01*
X117083308Y44701625D01*
X116098029Y44367177D02*
X116022129Y44373818D01*
X115949548Y44418408D01*
X115914918Y44459679D01*
X115883608Y44538900D01*
X115858939Y44694021D01*
X115875540Y44883772D01*
X115926771Y45032253D01*
X115971362Y45104834D01*
X116012632Y45139464D01*
X116091853Y45170773D01*
X116167754Y45164133D01*
X116240334Y45119542D01*
X116274964Y45078272D01*
X116306274Y44999051D01*
X116330943Y44843930D01*
X116314342Y44654178D01*
X116263111Y44505697D01*
X116218520Y44433117D01*
X116177250Y44398487D01*
X116098029Y44367177D01*
X115339024Y44433582D02*
X115263123Y44440222D01*
X115190543Y44484813D01*
X115155913Y44526083D01*
X115124603Y44605304D01*
X115099933Y44760425D01*
X115116535Y44950177D01*
X115167766Y45098658D01*
X115212356Y45171238D01*
X115253627Y45205868D01*
X115332848Y45237178D01*
X115408748Y45230537D01*
X115481329Y45185947D01*
X115515959Y45144676D01*
X115547268Y45065455D01*
X115571938Y44910334D01*
X115555337Y44720583D01*
X115504106Y44572102D01*
X115459515Y44499522D01*
X115418244Y44464891D01*
X115339024Y44433582D01*
X117337886Y47611462D02*
X117268161Y46814506D01*
X116964559Y46841068D01*
X116891978Y46885658D01*
X116857348Y46926929D01*
X116826039Y47006149D01*
X116835999Y47120000D01*
X116880590Y47192581D01*
X116921860Y47227211D01*
X117001081Y47258521D01*
X117304683Y47231959D01*
X116319404Y46897511D02*
X116243504Y46904152D01*
X116170923Y46948742D01*
X116136293Y46990013D01*
X116104983Y47069234D01*
X116080314Y47224355D01*
X116096915Y47414106D01*
X116148146Y47562587D01*
X116192737Y47635168D01*
X116234007Y47669798D01*
X116313228Y47701107D01*
X116389129Y47694467D01*
X116461709Y47649876D01*
X116496339Y47608606D01*
X116527649Y47529385D01*
X116552318Y47374264D01*
X116535717Y47184512D01*
X116484486Y47036031D01*
X116439895Y46963451D01*
X116398625Y46928821D01*
X116319404Y46897511D01*
X115364471Y47784113D02*
X115819875Y47744270D01*
X115592173Y47764192D02*
X115522448Y46967236D01*
X115608310Y47074446D01*
X115690851Y47143706D01*
X115770071Y47175016D01*
X105339286Y20614478D02*
X105269561Y19817522D01*
X104965959Y19844084D01*
X104893378Y19888674D01*
X104858748Y19929945D01*
X104827439Y20009165D01*
X104837399Y20123016D01*
X104881990Y20195597D01*
X104923260Y20230227D01*
X105002481Y20261537D01*
X105306083Y20234975D01*
X104124877Y20720725D02*
X104580280Y20680882D01*
X104352578Y20700803D02*
X104282854Y19903847D01*
X104368715Y20011058D01*
X104451256Y20080318D01*
X104530477Y20111628D01*
X103561799Y19966932D02*
X103485898Y19973572D01*
X103413318Y20018163D01*
X103378688Y20059433D01*
X103347378Y20138654D01*
X103322708Y20293775D01*
X103339310Y20483527D01*
X103390541Y20632008D01*
X103435131Y20704588D01*
X103476402Y20739218D01*
X103555623Y20770528D01*
X103631523Y20763887D01*
X103704104Y20719297D01*
X103738734Y20678026D01*
X103770043Y20598805D01*
X103794713Y20443684D01*
X103778112Y20253933D01*
X103726881Y20105452D01*
X103682290Y20032872D01*
X103641019Y19998241D01*
X103561799Y19966932D01*
X105560661Y23144812D02*
X105490936Y22347856D01*
X105187334Y22374418D01*
X105114753Y22419008D01*
X105080123Y22460279D01*
X105048814Y22539499D01*
X105058774Y22653350D01*
X105103365Y22725931D01*
X105144635Y22760561D01*
X105223856Y22791871D01*
X105527458Y22765309D01*
X104346252Y23251059D02*
X104801655Y23211216D01*
X104573953Y23231137D02*
X104504229Y22434181D01*
X104590090Y22541392D01*
X104672631Y22610652D01*
X104751852Y22641962D01*
X103593422Y22513867D02*
X103745223Y22500586D01*
X103824444Y22531896D01*
X103865715Y22566526D01*
X103951576Y22673736D01*
X104002807Y22822217D01*
X104029369Y23125819D01*
X103998059Y23205040D01*
X103963429Y23246310D01*
X103890849Y23290901D01*
X103739047Y23304182D01*
X103659827Y23272872D01*
X103618556Y23238242D01*
X103573965Y23165662D01*
X103557364Y22975910D01*
X103588674Y22896690D01*
X103623304Y22855419D01*
X103695885Y22810828D01*
X103847686Y22797548D01*
X103926906Y22828857D01*
X103968177Y22863487D01*
X104012768Y22936068D01*
X105782037Y25675147D02*
X105712312Y24878191D01*
X105408710Y24904753D01*
X105336129Y24949343D01*
X105301499Y24990614D01*
X105270190Y25069834D01*
X105280150Y25183685D01*
X105324741Y25256266D01*
X105366011Y25290896D01*
X105445232Y25322206D01*
X105748834Y25295644D01*
X104567628Y25781394D02*
X105023031Y25741551D01*
X104795329Y25761472D02*
X104725605Y24964516D01*
X104811466Y25071727D01*
X104894007Y25140987D01*
X104973228Y25172297D01*
X103838040Y25309854D02*
X103884523Y25841157D01*
X104001229Y24989650D02*
X104240784Y25542303D01*
X103747431Y25585466D01*
X106003412Y28205481D02*
X105933687Y27408525D01*
X105630085Y27435087D01*
X105557504Y27479677D01*
X105522874Y27520948D01*
X105491565Y27600168D01*
X105501525Y27714019D01*
X105546116Y27786600D01*
X105587386Y27821230D01*
X105666607Y27852540D01*
X105970209Y27825978D01*
X104789003Y28311728D02*
X105244406Y28271885D01*
X105016704Y28291806D02*
X104946980Y27494850D01*
X105032841Y27602061D01*
X105115382Y27671321D01*
X105194603Y27702631D01*
X103998223Y27577856D02*
X104377726Y27544654D01*
X104448878Y27920836D01*
X104407608Y27886206D01*
X104328387Y27854896D01*
X104138636Y27871497D01*
X104066055Y27916088D01*
X104031425Y27957359D01*
X104000115Y28036579D01*
X104016716Y28226331D01*
X104061307Y28298911D01*
X104102578Y28333541D01*
X104181798Y28364851D01*
X104371550Y28348250D01*
X104444130Y28303659D01*
X104478760Y28262389D01*
X106224788Y30735816D02*
X106155063Y29938860D01*
X105851461Y29965422D01*
X105778880Y30010012D01*
X105744250Y30051283D01*
X105712941Y30130503D01*
X105722901Y30244354D01*
X105767492Y30316935D01*
X105808762Y30351565D01*
X105887983Y30382875D01*
X106191585Y30356313D01*
X105010379Y30842063D02*
X105465782Y30802220D01*
X105238080Y30822141D02*
X105168356Y30025185D01*
X105254217Y30132396D01*
X105336758Y30201656D01*
X105415979Y30232966D01*
X104515133Y30426502D02*
X104587713Y30381911D01*
X104622343Y30340641D01*
X104653653Y30261420D01*
X104650333Y30223470D01*
X104605742Y30150889D01*
X104564472Y30116259D01*
X104485251Y30084949D01*
X104333450Y30098230D01*
X104260869Y30142821D01*
X104226239Y30184091D01*
X104194930Y30263312D01*
X104198250Y30301263D01*
X104242841Y30373843D01*
X104284111Y30408473D01*
X104363332Y30439783D01*
X104515133Y30426502D01*
X104594354Y30457812D01*
X104635624Y30492442D01*
X104680215Y30565022D01*
X104693496Y30716823D01*
X104662186Y30796044D01*
X104627556Y30837314D01*
X104554976Y30881905D01*
X104403174Y30895186D01*
X104323954Y30863876D01*
X104282683Y30829246D01*
X104238092Y30756666D01*
X104224812Y30604865D01*
X104256121Y30525644D01*
X104290751Y30484373D01*
X104363332Y30439783D01*
X106446164Y33266150D02*
X106376439Y32469194D01*
X106072837Y32495756D01*
X106000256Y32540346D01*
X105965626Y32581617D01*
X105934317Y32660837D01*
X105944277Y32774688D01*
X105988868Y32847269D01*
X106030138Y32881899D01*
X106109359Y32913209D01*
X106412961Y32886647D01*
X105231755Y33372397D02*
X105687158Y33332554D01*
X105459456Y33352475D02*
X105389732Y32555519D01*
X105475593Y32662730D01*
X105558134Y32731990D01*
X105637355Y32763300D01*
X104852252Y33405599D02*
X104700451Y33418880D01*
X104621230Y33387570D01*
X104579960Y33352940D01*
X104494098Y33245729D01*
X104442867Y33097248D01*
X104416306Y32793646D01*
X104447615Y32714425D01*
X104482245Y32673155D01*
X104554826Y32628564D01*
X104706627Y32615283D01*
X104785848Y32646593D01*
X104827118Y32681223D01*
X104871709Y32753804D01*
X104888310Y32943555D01*
X104857000Y33022776D01*
X104822370Y33064046D01*
X104749790Y33108637D01*
X104597989Y33121918D01*
X104518768Y33090608D01*
X104477497Y33055978D01*
X104432907Y32983398D01*
X106667539Y35796485D02*
X106597814Y34999529D01*
X106294212Y35026091D01*
X106221631Y35070681D01*
X106187001Y35111952D01*
X106155692Y35191172D01*
X106165652Y35305023D01*
X106210243Y35377604D01*
X106251513Y35412234D01*
X106330734Y35443544D01*
X106634336Y35416982D01*
X105845449Y35141834D02*
X105804178Y35107204D01*
X105724958Y35075894D01*
X105535206Y35092495D01*
X105462626Y35137086D01*
X105427996Y35178356D01*
X105396686Y35257577D01*
X105403327Y35333477D01*
X105451237Y35444008D01*
X105946483Y35859569D01*
X105453130Y35902732D01*
X104890052Y35148939D02*
X104814151Y35155579D01*
X104741571Y35200170D01*
X104706941Y35241440D01*
X104675631Y35320661D01*
X104650961Y35475782D01*
X104667563Y35665534D01*
X104718794Y35814015D01*
X104763384Y35886595D01*
X104804655Y35921225D01*
X104883876Y35952535D01*
X104959776Y35945894D01*
X105032357Y35901304D01*
X105066987Y35860033D01*
X105098296Y35780812D01*
X105122966Y35625691D01*
X105106365Y35435940D01*
X105055134Y35287459D01*
X105010543Y35214879D01*
X104969272Y35180248D01*
X104890052Y35148939D01*
X106888915Y38326819D02*
X106819190Y37529863D01*
X106515588Y37556425D01*
X106443007Y37601015D01*
X106408377Y37642286D01*
X106377068Y37721506D01*
X106387028Y37835357D01*
X106431619Y37907938D01*
X106472889Y37942568D01*
X106552110Y37973878D01*
X106855712Y37947316D01*
X106066825Y37672168D02*
X106025554Y37637538D01*
X105946334Y37606228D01*
X105756582Y37622829D01*
X105684002Y37667420D01*
X105649372Y37708690D01*
X105618062Y37787911D01*
X105624703Y37863811D01*
X105672613Y37974342D01*
X106167859Y38389903D01*
X105674506Y38433066D01*
X104915500Y38499470D02*
X105370904Y38459627D01*
X105143202Y38479549D02*
X105073477Y37682593D01*
X105159339Y37789803D01*
X105241880Y37859063D01*
X105321100Y37890373D01*
X107135441Y40051897D02*
X106939513Y40872095D01*
X106604137Y40098380D01*
X105946166Y40882520D02*
X105987436Y40917150D01*
X106104607Y40945139D01*
X106180508Y40938499D01*
X106291038Y40890588D01*
X106360299Y40808047D01*
X106391608Y40728826D01*
X106416278Y40573705D01*
X106406317Y40459854D01*
X106355086Y40311373D01*
X106310495Y40238793D01*
X106227954Y40169533D01*
X106110783Y40141543D01*
X106034883Y40148184D01*
X105924352Y40196094D01*
X105889722Y40237365D01*
X105149210Y40952244D02*
X105190481Y40986874D01*
X105307652Y41014864D01*
X105383552Y41008223D01*
X105494083Y40960313D01*
X105563343Y40877772D01*
X105594653Y40798551D01*
X105619322Y40643429D01*
X105609361Y40529579D01*
X105558130Y40381098D01*
X105513540Y40308517D01*
X105430999Y40239257D01*
X105313827Y40211268D01*
X105237927Y40217908D01*
X105127396Y40265819D01*
X105092766Y40307090D01*
X106800362Y43433971D02*
X107032811Y43031226D01*
X107255765Y43394128D02*
X107186040Y42597172D01*
X106882438Y42623734D01*
X106809858Y42668325D01*
X106775228Y42709595D01*
X106743918Y42788816D01*
X106753879Y42902667D01*
X106798469Y42975247D01*
X106839740Y43009877D01*
X106918961Y43041187D01*
X107222563Y43014625D01*
X106493439Y43422582D02*
X106382909Y43470493D01*
X106193157Y43487094D01*
X106113937Y43455784D01*
X106072666Y43421154D01*
X106028075Y43348574D01*
X106021435Y43272673D01*
X106052745Y43193453D01*
X106087375Y43152182D01*
X106159955Y43107591D01*
X106308436Y43056360D01*
X106381016Y43011769D01*
X106415646Y42970499D01*
X106446956Y42891278D01*
X106440316Y42815378D01*
X106395725Y42742797D01*
X106354455Y42708167D01*
X106275234Y42676857D01*
X106085482Y42693459D01*
X105974952Y42741369D01*
X105743930Y42723341D02*
X105288527Y42763183D01*
X105585953Y43540218D02*
X105516228Y42743262D01*
X107126110Y45190359D02*
X107198690Y45145768D01*
X107312541Y45135808D01*
X107429712Y45163797D01*
X107512253Y45233057D01*
X107556843Y45305638D01*
X107608075Y45454119D01*
X107618035Y45567970D01*
X107593366Y45723091D01*
X107562056Y45802312D01*
X107492796Y45884853D01*
X107382265Y45932764D01*
X107306365Y45939404D01*
X107189194Y45911414D01*
X107147923Y45876784D01*
X107124682Y45611132D01*
X107276483Y45597851D01*
X106813011Y45982567D02*
X106743287Y45185611D01*
X106357608Y46022409D01*
X106287883Y45225454D01*
X105978105Y46055612D02*
X105908381Y45258656D01*
X105718629Y45275257D01*
X105608099Y45323168D01*
X105538839Y45405709D01*
X105507529Y45484930D01*
X105482859Y45640051D01*
X105492820Y45753902D01*
X105544051Y45902383D01*
X105588642Y45974963D01*
X105671183Y46044223D01*
X105788354Y46072213D01*
X105978105Y46055612D01*
X107356964Y48484679D02*
X107589413Y48081935D01*
X107812367Y48444836D02*
X107742642Y47647881D01*
X107439040Y47674442D01*
X107366460Y47719033D01*
X107331830Y47760304D01*
X107300520Y47839524D01*
X107310480Y47953375D01*
X107355071Y48025955D01*
X107396342Y48060585D01*
X107475562Y48091895D01*
X107779165Y48065334D01*
X107033440Y48283539D02*
X106653937Y48316741D01*
X107129262Y48504600D02*
X106793885Y47730886D01*
X106597958Y48551083D01*
X106338482Y47770729D02*
X106218455Y48584285D01*
X106016851Y48028312D01*
X105914853Y48610847D01*
X105655377Y47830493D01*
X105120354Y47042220D02*
X102590019Y47263595D01*
X105341729Y49572554D02*
X102811395Y49793930D01*
X105341729Y49572554D02*
X105120354Y47042220D01*
X120745112Y50774635D02*
X103032770Y52324264D01*
X117867229Y17880286D02*
X120745112Y50774635D01*
X100154888Y19429915D02*
X117867229Y17880286D01*
X103032770Y52324264D02*
X100154888Y19429915D01*
%TD*%
D11*
%TO.C,MCU1*%
X116712750Y19256141D03*
X116934125Y21786476D03*
X117155501Y24316810D03*
X117376877Y26847145D03*
X117598252Y29377479D03*
X117819628Y31907814D03*
X118041003Y34438149D03*
X118262379Y36968483D03*
X118483755Y39498818D03*
X118705130Y42029152D03*
X118926506Y44559487D03*
X119147881Y47089821D03*
X101530743Y20584395D03*
X101752118Y23114729D03*
X101973494Y25645064D03*
X102194869Y28175398D03*
X102416245Y30705733D03*
X102637621Y33236067D03*
X102858996Y35766402D03*
X103080372Y38296737D03*
X103301747Y40827071D03*
X103523123Y43357406D03*
X103744499Y45887740D03*
D12*
X103965874Y48418075D03*
%TD*%
M02*
