M48
; DRILL file {KiCad (6.0.2-0)} date Tuesday, May 24, 2022 at 10:23:33 PM
; FORMAT={-:-/ absolute / metric / decimal}
; #@! TF.CreationDate,2022-05-24T22:23:33-07:00
; #@! TF.GenerationSoftware,Kicad,Pcbnew,(6.0.2-0)
; #@! TF.FileFunction,NonPlated,1,2,NPTH
FMAT,2
METRIC
; #@! TA.AperFunction,NonPlated,NPTH,ComponentDrill
T1C1.500
; #@! TA.AperFunction,NonPlated,NPTH,ComponentDrill
T2C1.702
; #@! TA.AperFunction,NonPlated,NPTH,ComponentDrill
T3C3.000
; #@! TA.AperFunction,NonPlated,NPTH,ComponentDrill
T4C3.988
%
G90
G05
T1
X124.058Y37.785
X124.668Y44.759
T2
X-1.168Y34.908
X-1.168Y34.908
X3.763Y16.507
X3.763Y16.507
X8.646Y37.537
X8.646Y37.537
X8.693Y-1.894
X8.693Y-1.894
X13.576Y19.136
X13.576Y19.136
X18.507Y0.736
X18.507Y0.736
X22.02Y62.908
X22.02Y62.908
X23.681Y43.931
X23.681Y43.931
X25.341Y24.953
X25.341Y24.953
X32.142Y63.794
X32.142Y63.794
X33.802Y44.816
X33.802Y44.816
X35.462Y25.839
X35.462Y25.839
X45.487Y70.866
X45.487Y70.866
X45.487Y51.816
X45.487Y51.816
X45.487Y32.766
X45.487Y32.766
X55.647Y70.866
X55.647Y70.866
X55.647Y51.816
X55.647Y51.816
X55.647Y32.766
X55.647Y32.766
X65.838Y27.478
X65.838Y27.478
X67.498Y46.455
X67.498Y46.455
X69.159Y65.433
X69.159Y65.433
X75.959Y26.592
X75.959Y26.592
X77.62Y45.57
X77.62Y45.57
X79.28Y64.547
X79.28Y64.547
X81.892Y-9.581
X81.892Y-9.581
X84.568Y22.995
X84.568Y22.995
X86.229Y41.972
X86.229Y41.972
X87.889Y60.95
X87.889Y60.95
X91.44Y-13.056
X91.44Y-13.056
X94.69Y22.109
X94.69Y22.109
X96.35Y41.087
X96.35Y41.087
X98.01Y60.064
X98.01Y60.064
X102.796Y-18.067
X102.796Y-18.067
X111.594Y-23.147
X111.594Y-23.147
T3
X-0.599Y37.69
X-0.029Y40.472
X4.332Y19.289
X4.878Y41.787
X4.901Y22.071
X6.762Y39.662
X9.262Y0.888
X9.808Y23.386
X9.832Y3.67
X11.692Y21.261
X14.739Y4.985
X16.623Y2.86
X23.064Y65.549
X24.108Y68.19
X24.724Y46.572
X25.768Y49.213
X26.385Y27.594
X27.429Y30.235
X29.169Y68.633
X30.655Y66.214
X30.829Y49.656
X32.315Y47.236
X32.489Y30.678
X33.976Y28.259
X46.757Y73.406
X46.757Y54.356
X46.757Y35.306
X48.027Y75.946
X48.027Y56.896
X48.027Y37.846
X53.107Y75.946
X53.107Y56.896
X53.107Y37.846
X54.377Y73.406
X54.377Y54.356
X54.377Y35.306
X67.324Y29.897
X68.811Y32.317
X68.985Y48.875
X70.471Y51.294
X70.645Y67.852
X72.132Y70.272
X73.872Y31.874
X74.915Y29.233
X75.532Y50.852
X76.576Y48.211
X77.192Y69.829
X78.236Y67.188
X83.954Y-7.629
X86.017Y-5.676
X86.055Y25.414
X87.542Y27.834
X87.715Y44.392
X89.202Y46.812
X89.376Y63.369
X90.79Y-7.414
X90.862Y65.789
X91.115Y-10.235
X92.602Y27.391
X93.646Y24.75
X94.263Y46.369
X95.306Y43.728
X95.923Y65.346
X96.967Y62.705
X105.165Y-16.503
X107.535Y-14.938
X111.764Y-20.313
X111.935Y-17.478
T4
X3.739Y36.223
X3.739Y36.223
X8.67Y17.822
X8.67Y17.822
X13.6Y-0.579
X13.6Y-0.579
X27.081Y63.351
X27.081Y63.351
X28.741Y44.374
X28.741Y44.374
X30.402Y25.396
X30.402Y25.396
X50.567Y70.866
X50.567Y70.866
X50.567Y51.816
X50.567Y51.816
X50.567Y32.766
X50.567Y32.766
X70.899Y27.035
X70.899Y27.035
X72.559Y46.012
X72.559Y46.012
X74.219Y64.99
X74.219Y64.99
X86.666Y-11.319
X86.666Y-11.319
X89.629Y22.552
X89.629Y22.552
X91.289Y41.53
X91.289Y41.53
X92.95Y60.507
X92.95Y60.507
X107.195Y-20.607
X107.195Y-20.607
T0
M30
