%FSLAX45Y45*%
G04 Gerber Fmt 4.5, Leading zero omitted, Abs format (unit mm)*
G04 Created by KiCad (PCBNEW (6.0.2-0)) date 2022-05-11 10:09:49*
%MOMM*%
%LPD*%
G01*
G04 APERTURE LIST*
%TA.AperFunction,Profile*%
%ADD10C,0.150000*%
%TD*%
%ADD11C,0.200000*%
%ADD12C,0.150000*%
%ADD13C,0.170180*%
%ADD14C,0.300000*%
%ADD15C,0.398780*%
G04 APERTURE END LIST*
D10*
X12278974Y2465685D02*
G75*
G03*
X11953969Y2192974I-26147J-298858D01*
G01*
X12478213Y2448254D02*
X12278974Y2465685D01*
X5951713Y7876189D02*
X4151713Y7876189D01*
X-699893Y4152396D02*
X1592651Y4766681D01*
X6051713Y7776189D02*
G75*
G03*
X5951713Y7876189I-100000J0D01*
G01*
X-330612Y2387847D02*
X678783Y-1379264D01*
X9188720Y-2581668D02*
G75*
G03*
X9141326Y-2559567I-150002J-259811D01*
G01*
X4151713Y7876189D02*
G75*
G03*
X4051713Y7776189I0J-100000D01*
G01*
X8468274Y7098773D02*
G75*
G03*
X8377370Y7207108I-99619J8716D01*
G01*
X10842496Y-3421006D02*
X11942496Y-1515750D01*
X3777860Y7221724D02*
G75*
G03*
X4051713Y7520583I-26147J298858D01*
G01*
X1742675Y7043669D02*
X3777860Y7221724D01*
X801257Y-1449974D02*
X9141326Y-2559567D01*
X12478213Y2448254D02*
G75*
G03*
X12803218Y2720966I26147J298858D01*
G01*
X12803218Y2720966D02*
X12972721Y4659000D01*
X10705894Y-3457608D02*
G75*
G03*
X10842496Y-3421006I50000J86602D01*
G01*
X8461011Y7015757D02*
G75*
G03*
X8551915Y6907422I99619J-8716D01*
G01*
X8551915Y6907422D02*
X10345065Y6750542D01*
X9188720Y-2581668D02*
X10705894Y-3457608D01*
X12760000Y4739502D02*
G75*
G03*
X12760000Y4739502I-100000J0D01*
G01*
X6051713Y7685476D02*
X6051713Y7776189D01*
X4051713Y7776189D02*
X4051713Y7520583D01*
X-770604Y4029921D02*
X-330612Y2387847D01*
X12972721Y4659000D02*
G75*
G03*
X12700009Y4979951I-298713J22521D01*
G01*
X1742675Y7043669D02*
G75*
G03*
X1651771Y6935334I8716J-99620D01*
G01*
X11942496Y-1515750D02*
X11953969Y2192974D01*
X1592651Y4766681D02*
G75*
G03*
X1813864Y5082606I-77646J289778D01*
G01*
X1651771Y6935334D02*
X1813864Y5082606D01*
X10311000Y5184000D02*
X12700009Y4979951D01*
X8461011Y7015757D02*
X8468274Y7098773D01*
X-699893Y4152396D02*
G75*
G03*
X-770604Y4029921I25882J-96593D01*
G01*
X6051713Y7685476D02*
G75*
G03*
X6325567Y7386618I300000J0D01*
G01*
X10435969Y6642207D02*
G75*
G03*
X10345065Y6750542I-99619J8716D01*
G01*
X6325567Y7386618D02*
X8377370Y7207108D01*
X678783Y-1379264D02*
G75*
G03*
X801257Y-1449974I96593J25882D01*
G01*
X10311000Y5184000D02*
X10435969Y6642207D01*
D11*
D12*
X12472921Y3862318D02*
X12622921Y3712318D01*
X12622921Y3862318D02*
X12472921Y3712318D01*
X12533930Y4559655D02*
X12683930Y4409655D01*
X12683930Y4559655D02*
X12533930Y4409655D01*
D13*
X74423Y3094742D02*
G75*
G03*
X74423Y3094742I-85090J0D01*
G01*
X74423Y3094742D02*
G75*
G03*
X74423Y3094742I-85090J0D01*
G01*
X514415Y1452668D02*
G75*
G03*
X514415Y1452668I-85090J0D01*
G01*
X514415Y1452668D02*
G75*
G03*
X514415Y1452668I-85090J0D01*
G01*
X954407Y-189406D02*
G75*
G03*
X954407Y-189406I-85090J0D01*
G01*
X954407Y-189406D02*
G75*
G03*
X954407Y-189406I-85090J0D01*
G01*
X1055803Y3357702D02*
G75*
G03*
X1055803Y3357702I-85090J0D01*
G01*
X1055803Y3357702D02*
G75*
G03*
X1055803Y3357702I-85090J0D01*
G01*
X1495796Y1715628D02*
G75*
G03*
X1495796Y1715628I-85090J0D01*
G01*
X1495796Y1715628D02*
G75*
G03*
X1495796Y1715628I-85090J0D01*
G01*
X1935788Y73554D02*
G75*
G03*
X1935788Y73554I-85090J0D01*
G01*
X1935788Y73554D02*
G75*
G03*
X1935788Y73554I-85090J0D01*
G01*
X2322861Y5882400D02*
G75*
G03*
X2322861Y5882400I-85090J0D01*
G01*
X2322861Y5882400D02*
G75*
G03*
X2322861Y5882400I-85090J0D01*
G01*
X2471025Y4188869D02*
G75*
G03*
X2471025Y4188869I-85090J0D01*
G01*
X2471025Y4188869D02*
G75*
G03*
X2471025Y4188869I-85090J0D01*
G01*
X2619190Y2495338D02*
G75*
G03*
X2619190Y2495338I-85090J0D01*
G01*
X2619190Y2495338D02*
G75*
G03*
X2619190Y2495338I-85090J0D01*
G01*
X3334994Y5970950D02*
G75*
G03*
X3334994Y5970950I-85090J0D01*
G01*
X3334994Y5970950D02*
G75*
G03*
X3334994Y5970950I-85090J0D01*
G01*
X3483159Y4277419D02*
G75*
G03*
X3483159Y4277419I-85090J0D01*
G01*
X3483159Y4277419D02*
G75*
G03*
X3483159Y4277419I-85090J0D01*
G01*
X3631324Y2583888D02*
G75*
G03*
X3631324Y2583888I-85090J0D01*
G01*
X3631324Y2583888D02*
G75*
G03*
X3631324Y2583888I-85090J0D01*
G01*
X4628803Y6676189D02*
G75*
G03*
X4628803Y6676189I-85090J0D01*
G01*
X4628803Y6676189D02*
G75*
G03*
X4628803Y6676189I-85090J0D01*
G01*
X4628803Y4976189D02*
G75*
G03*
X4628803Y4976189I-85090J0D01*
G01*
X4628803Y4976189D02*
G75*
G03*
X4628803Y4976189I-85090J0D01*
G01*
X4628803Y3276189D02*
G75*
G03*
X4628803Y3276189I-85090J0D01*
G01*
X4628803Y3276189D02*
G75*
G03*
X4628803Y3276189I-85090J0D01*
G01*
X5644803Y6676189D02*
G75*
G03*
X5644803Y6676189I-85090J0D01*
G01*
X5644803Y6676189D02*
G75*
G03*
X5644803Y6676189I-85090J0D01*
G01*
X5644803Y4976189D02*
G75*
G03*
X5644803Y4976189I-85090J0D01*
G01*
X5644803Y4976189D02*
G75*
G03*
X5644803Y4976189I-85090J0D01*
G01*
X5644803Y3276189D02*
G75*
G03*
X5644803Y3276189I-85090J0D01*
G01*
X5644803Y3276189D02*
G75*
G03*
X5644803Y3276189I-85090J0D01*
G01*
X6658901Y2747328D02*
G75*
G03*
X6658901Y2747328I-85090J0D01*
G01*
X6658901Y2747328D02*
G75*
G03*
X6658901Y2747328I-85090J0D01*
G01*
X6807066Y4440859D02*
G75*
G03*
X6807066Y4440859I-85090J0D01*
G01*
X6807066Y4440859D02*
G75*
G03*
X6807066Y4440859I-85090J0D01*
G01*
X6955231Y6134390D02*
G75*
G03*
X6955231Y6134390I-85090J0D01*
G01*
X6955231Y6134390D02*
G75*
G03*
X6955231Y6134390I-85090J0D01*
G01*
X7671035Y2658778D02*
G75*
G03*
X7671035Y2658778I-85090J0D01*
G01*
X7671035Y2658778D02*
G75*
G03*
X7671035Y2658778I-85090J0D01*
G01*
X7819200Y4352309D02*
G75*
G03*
X7819200Y4352309I-85090J0D01*
G01*
X7819200Y4352309D02*
G75*
G03*
X7819200Y4352309I-85090J0D01*
G01*
X7967364Y6045840D02*
G75*
G03*
X7967364Y6045840I-85090J0D01*
G01*
X7967364Y6045840D02*
G75*
G03*
X7967364Y6045840I-85090J0D01*
G01*
X8358970Y-966829D02*
G75*
G03*
X8358970Y-966829I-85090J0D01*
G01*
X8358970Y-966829D02*
G75*
G03*
X8358970Y-966829I-85090J0D01*
G01*
X8626597Y2290761D02*
G75*
G03*
X8626597Y2290761I-85090J0D01*
G01*
X8626597Y2290761D02*
G75*
G03*
X8626597Y2290761I-85090J0D01*
G01*
X8774761Y3984292D02*
G75*
G03*
X8774761Y3984292I-85090J0D01*
G01*
X8774761Y3984292D02*
G75*
G03*
X8774761Y3984292I-85090J0D01*
G01*
X8922926Y5677823D02*
G75*
G03*
X8922926Y5677823I-85090J0D01*
G01*
X8922926Y5677823D02*
G75*
G03*
X8922926Y5677823I-85090J0D01*
G01*
X9313698Y-1314322D02*
G75*
G03*
X9313698Y-1314322I-85090J0D01*
G01*
X9313698Y-1314322D02*
G75*
G03*
X9313698Y-1314322I-85090J0D01*
G01*
X9638730Y2202211D02*
G75*
G03*
X9638730Y2202211I-85090J0D01*
G01*
X9638730Y2202211D02*
G75*
G03*
X9638730Y2202211I-85090J0D01*
G01*
X9786895Y3895742D02*
G75*
G03*
X9786895Y3895742I-85090J0D01*
G01*
X9786895Y3895742D02*
G75*
G03*
X9786895Y3895742I-85090J0D01*
G01*
X9935060Y5589273D02*
G75*
G03*
X9935060Y5589273I-85090J0D01*
G01*
X9935060Y5589273D02*
G75*
G03*
X9935060Y5589273I-85090J0D01*
G01*
X10171620Y-1714378D02*
G75*
G03*
X10171620Y-1714378I-85090J0D01*
G01*
X10171620Y-1714378D02*
G75*
G03*
X10171620Y-1714378I-85090J0D01*
G01*
X11051502Y-2222378D02*
G75*
G03*
X11051502Y-2222378I-85090J0D01*
G01*
X11051502Y-2222378D02*
G75*
G03*
X11051502Y-2222378I-85090J0D01*
G01*
D14*
X46265Y3522957D02*
X46265Y3222957D01*
X-103735Y3372957D02*
X196265Y3372957D01*
X103198Y3801172D02*
X103198Y3501172D01*
X-46802Y3651172D02*
X253198Y3651172D01*
X486257Y1880883D02*
X486257Y1580883D01*
X336258Y1730883D02*
X636258Y1730883D01*
X543190Y2159098D02*
X543190Y1859098D01*
X393190Y2009098D02*
X693190Y2009098D01*
X593888Y3932652D02*
X593888Y3632652D01*
X443888Y3782652D02*
X743888Y3782652D01*
X782301Y3720177D02*
X782301Y3420177D01*
X632301Y3570177D02*
X932301Y3570177D01*
X926250Y238809D02*
X926250Y-61191D01*
X776250Y88809D02*
X1076250Y88809D01*
X983182Y517024D02*
X983182Y217024D01*
X833182Y367024D02*
X1133182Y367024D01*
X1033880Y2290578D02*
X1033880Y1990578D01*
X883880Y2140578D02*
X1183880Y2140578D01*
X1222293Y2078103D02*
X1222293Y1778103D01*
X1072293Y1928103D02*
X1372293Y1928103D01*
X1473873Y648504D02*
X1473873Y348504D01*
X1323873Y498504D02*
X1623873Y498504D01*
X1662285Y436029D02*
X1662285Y136029D01*
X1512285Y286029D02*
X1812285Y286029D01*
X2342150Y6296502D02*
X2342150Y5996502D01*
X2192150Y6146502D02*
X2492150Y6146502D01*
X2446529Y6560605D02*
X2446529Y6260605D01*
X2296529Y6410605D02*
X2596529Y6410605D01*
X2490314Y4602971D02*
X2490314Y4302971D01*
X2340314Y4452971D02*
X2640314Y4452971D01*
X2594694Y4867074D02*
X2594694Y4567074D01*
X2444694Y4717074D02*
X2744694Y4717074D01*
X2638479Y2909440D02*
X2638479Y2609440D01*
X2488479Y2759440D02*
X2788479Y2759440D01*
X2742858Y3173543D02*
X2742858Y2873543D01*
X2592858Y3023543D02*
X2892858Y3023543D01*
X2952596Y6604880D02*
X2952596Y6304880D01*
X2802596Y6454880D02*
X3102596Y6454880D01*
X3100760Y4911349D02*
X3100760Y4611349D01*
X2950760Y4761349D02*
X3250760Y4761349D01*
X3101250Y6362915D02*
X3101250Y6062915D01*
X2951250Y6212915D02*
X3251250Y6212915D01*
X3248925Y3217818D02*
X3248925Y2917818D01*
X3098925Y3067818D02*
X3398925Y3067818D01*
X3249415Y4669384D02*
X3249415Y4369384D01*
X3099415Y4519384D02*
X3399415Y4519384D01*
X3397579Y2975853D02*
X3397579Y2675853D01*
X3247579Y2825853D02*
X3547579Y2825853D01*
X4670713Y7080189D02*
X4670713Y6780189D01*
X4520713Y6930189D02*
X4820713Y6930189D01*
X4670713Y5380189D02*
X4670713Y5080189D01*
X4520713Y5230189D02*
X4820713Y5230189D01*
X4670713Y3680189D02*
X4670713Y3380189D01*
X4520713Y3530189D02*
X4820713Y3530189D01*
X4797713Y7334189D02*
X4797713Y7034189D01*
X4647713Y7184189D02*
X4947713Y7184189D01*
X4797713Y5634189D02*
X4797713Y5334189D01*
X4647713Y5484189D02*
X4947713Y5484189D01*
X4797713Y3934189D02*
X4797713Y3634189D01*
X4647713Y3784189D02*
X4947713Y3784189D01*
X5305713Y7334189D02*
X5305713Y7034189D01*
X5155713Y7184189D02*
X5455713Y7184189D01*
X5305713Y5634189D02*
X5305713Y5334189D01*
X5155713Y5484189D02*
X5455713Y5484189D01*
X5305713Y3934189D02*
X5305713Y3634189D01*
X5155713Y3784189D02*
X5455713Y3784189D01*
X5432713Y7080189D02*
X5432713Y6780189D01*
X5282713Y6930189D02*
X5582713Y6930189D01*
X5432713Y5380189D02*
X5432713Y5080189D01*
X5282713Y5230189D02*
X5582713Y5230189D01*
X5432713Y3680189D02*
X5432713Y3380189D01*
X5282713Y3530189D02*
X5582713Y3530189D01*
X6722465Y3139293D02*
X6722465Y2839293D01*
X6572465Y2989293D02*
X6872465Y2989293D01*
X6870630Y4832824D02*
X6870630Y4532824D01*
X6720630Y4682824D02*
X7020630Y4682824D01*
X6871120Y3381257D02*
X6871120Y3081257D01*
X6721120Y3231257D02*
X7021120Y3231257D01*
X7018795Y6526355D02*
X7018795Y6226355D01*
X6868795Y6376355D02*
X7168795Y6376355D01*
X7019285Y5074788D02*
X7019285Y4774788D01*
X6869285Y4924788D02*
X7169285Y4924788D01*
X7167449Y6768319D02*
X7167449Y6468319D01*
X7017449Y6618319D02*
X7317449Y6618319D01*
X7377187Y3336982D02*
X7377187Y3036982D01*
X7227187Y3186982D02*
X7527187Y3186982D01*
X7481566Y3072880D02*
X7481566Y2772880D01*
X7331566Y2922880D02*
X7631566Y2922880D01*
X7525351Y5030513D02*
X7525351Y4730513D01*
X7375351Y4880513D02*
X7675351Y4880513D01*
X7629731Y4766411D02*
X7629731Y4466411D01*
X7479731Y4616411D02*
X7779731Y4616411D01*
X7673516Y6724044D02*
X7673516Y6424044D01*
X7523516Y6574044D02*
X7823516Y6574044D01*
X7777895Y6459942D02*
X7777895Y6159942D01*
X7627895Y6309942D02*
X7927895Y6309942D01*
X8480094Y-621584D02*
X8480094Y-921584D01*
X8330094Y-771584D02*
X8630094Y-771584D01*
X8686308Y-426339D02*
X8686308Y-726339D01*
X8536308Y-576339D02*
X8836308Y-576339D01*
X8690161Y2682726D02*
X8690161Y2382726D01*
X8540161Y2532726D02*
X8840161Y2532726D01*
X8838326Y4376257D02*
X8838326Y4076257D01*
X8688326Y4226257D02*
X8988326Y4226257D01*
X8838815Y2924691D02*
X8838815Y2624691D01*
X8688815Y2774691D02*
X8988815Y2774691D01*
X8986490Y6069788D02*
X8986490Y5769788D01*
X8836490Y5919788D02*
X9136490Y5919788D01*
X8986980Y4618222D02*
X8986980Y4318222D01*
X8836980Y4468222D02*
X9136980Y4468222D01*
X9135145Y6311753D02*
X9135145Y6011753D01*
X8985145Y6161753D02*
X9285145Y6161753D01*
X9163672Y-600085D02*
X9163672Y-900085D01*
X9013672Y-750085D02*
X9313672Y-750085D01*
X9196140Y-882203D02*
X9196140Y-1182203D01*
X9046140Y-1032203D02*
X9346140Y-1032203D01*
X9344882Y2880415D02*
X9344882Y2580416D01*
X9194882Y2730416D02*
X9494882Y2730416D01*
X9449261Y2616313D02*
X9449261Y2316313D01*
X9299261Y2466313D02*
X9599261Y2466313D01*
X9493047Y4573947D02*
X9493047Y4273947D01*
X9343047Y4423947D02*
X9643047Y4423947D01*
X9597426Y4309844D02*
X9597426Y4009844D01*
X9447426Y4159844D02*
X9747426Y4159844D01*
X9641212Y6267477D02*
X9641212Y5967477D01*
X9491212Y6117477D02*
X9791212Y6117477D01*
X9745591Y6003375D02*
X9745591Y5703375D01*
X9595591Y5853375D02*
X9895591Y5853375D01*
X10323515Y-1407907D02*
X10323515Y-1707907D01*
X10173515Y-1557907D02*
X10473515Y-1557907D01*
X10560500Y-1251437D02*
X10560500Y-1551437D01*
X10410500Y-1401437D02*
X10710500Y-1401437D01*
X10983427Y-1788907D02*
X10983427Y-2088907D01*
X10833427Y-1938907D02*
X11133427Y-1938907D01*
X11000441Y-1505437D02*
X11000441Y-1805437D01*
X10850441Y-1655437D02*
X11150441Y-1655437D01*
D15*
X621014Y3085230D02*
X621014Y3367213D01*
X339032Y3367213D01*
X339032Y3085230D01*
X621014Y3085230D01*
X621014Y3085230D02*
X621014Y3367213D01*
X339032Y3367213D01*
X339032Y3085230D01*
X621014Y3085230D01*
X1061007Y1443156D02*
X1061007Y1725139D01*
X779024Y1725139D01*
X779024Y1443156D01*
X1061007Y1443156D01*
X1061007Y1443156D02*
X1061007Y1725139D01*
X779024Y1725139D01*
X779024Y1443156D01*
X1061007Y1443156D01*
X1500999Y-198917D02*
X1500999Y83065D01*
X1219016Y83065D01*
X1219016Y-198917D01*
X1500999Y-198917D01*
X1500999Y-198917D02*
X1500999Y83065D01*
X1219016Y83065D01*
X1219016Y-198917D01*
X1500999Y-198917D01*
X2884829Y5785684D02*
X2884829Y6067667D01*
X2602846Y6067667D01*
X2602846Y5785684D01*
X2884829Y5785684D01*
X2884829Y5785684D02*
X2884829Y6067667D01*
X2602846Y6067667D01*
X2602846Y5785684D01*
X2884829Y5785684D01*
X3032993Y4092153D02*
X3032993Y4374136D01*
X2751011Y4374136D01*
X2751011Y4092153D01*
X3032993Y4092153D01*
X3032993Y4092153D02*
X3032993Y4374136D01*
X2751011Y4374136D01*
X2751011Y4092153D01*
X3032993Y4092153D01*
X3181158Y2398622D02*
X3181158Y2680605D01*
X2899175Y2680605D01*
X2899175Y2398622D01*
X3181158Y2398622D01*
X3181158Y2398622D02*
X3181158Y2680605D01*
X2899175Y2680605D01*
X2899175Y2398622D01*
X3181158Y2398622D01*
X5192705Y6535197D02*
X5192705Y6817180D01*
X4910722Y6817180D01*
X4910722Y6535197D01*
X5192705Y6535197D01*
X5192705Y6535197D02*
X5192705Y6817180D01*
X4910722Y6817180D01*
X4910722Y6535197D01*
X5192705Y6535197D01*
X5192705Y4835197D02*
X5192705Y5117180D01*
X4910722Y5117180D01*
X4910722Y4835197D01*
X5192705Y4835197D01*
X5192705Y4835197D02*
X5192705Y5117180D01*
X4910722Y5117180D01*
X4910722Y4835197D01*
X5192705Y4835197D01*
X5192705Y3135197D02*
X5192705Y3417180D01*
X4910722Y3417180D01*
X4910722Y3135197D01*
X5192705Y3135197D01*
X5192705Y3135197D02*
X5192705Y3417180D01*
X4910722Y3417180D01*
X4910722Y3135197D01*
X5192705Y3135197D01*
X7220869Y2562062D02*
X7220869Y2844044D01*
X6938887Y2844044D01*
X6938887Y2562062D01*
X7220869Y2562062D01*
X7220869Y2562062D02*
X7220869Y2844044D01*
X6938887Y2844044D01*
X6938887Y2562062D01*
X7220869Y2562062D01*
X7369034Y4255593D02*
X7369034Y4537575D01*
X7087051Y4537575D01*
X7087051Y4255593D01*
X7369034Y4255593D01*
X7369034Y4255593D02*
X7369034Y4537575D01*
X7087051Y4537575D01*
X7087051Y4255593D01*
X7369034Y4255593D01*
X7517199Y5949123D02*
X7517199Y6231106D01*
X7235216Y6231106D01*
X7235216Y5949123D01*
X7517199Y5949123D01*
X7517199Y5949123D02*
X7517199Y6231106D01*
X7235216Y6231106D01*
X7235216Y5949123D01*
X7517199Y5949123D01*
X8892235Y-1281567D02*
X8892235Y-999584D01*
X8610252Y-999584D01*
X8610252Y-1281567D01*
X8892235Y-1281567D01*
X8892235Y-1281567D02*
X8892235Y-999584D01*
X8610252Y-999584D01*
X8610252Y-1281567D01*
X8892235Y-1281567D01*
X9188565Y2105495D02*
X9188565Y2387478D01*
X8906582Y2387478D01*
X8906582Y2105495D01*
X9188565Y2105495D01*
X9188565Y2105495D02*
X9188565Y2387478D01*
X8906582Y2387478D01*
X8906582Y2105495D01*
X9188565Y2105495D01*
X9336730Y3799026D02*
X9336730Y4081009D01*
X9054747Y4081009D01*
X9054747Y3799026D01*
X9336730Y3799026D01*
X9336730Y3799026D02*
X9336730Y4081009D01*
X9054747Y4081009D01*
X9054747Y3799026D01*
X9336730Y3799026D01*
X9484894Y5492557D02*
X9484894Y5774540D01*
X9202912Y5774540D01*
X9202912Y5492557D01*
X9484894Y5492557D01*
X9484894Y5492557D02*
X9484894Y5774540D01*
X9202912Y5774540D01*
X9202912Y5492557D01*
X9484894Y5492557D01*
X10667462Y-2109369D02*
X10667462Y-1827386D01*
X10385480Y-1827386D01*
X10385480Y-2109369D01*
X10667462Y-2109369D01*
X10667462Y-2109369D02*
X10667462Y-1827386D01*
X10385480Y-1827386D01*
X10385480Y-2109369D01*
X10667462Y-2109369D01*
D11*
X-523892Y-3788982D02*
X-523892Y-3588982D01*
X-476273Y-3588982D01*
X-447702Y-3598506D01*
X-428654Y-3617553D01*
X-419130Y-3636601D01*
X-409606Y-3674696D01*
X-409606Y-3703268D01*
X-419130Y-3741363D01*
X-428654Y-3760410D01*
X-447702Y-3779458D01*
X-476273Y-3788982D01*
X-523892Y-3788982D01*
X-323892Y-3788982D02*
X-323892Y-3655649D01*
X-323892Y-3693744D02*
X-314368Y-3674696D01*
X-304845Y-3665172D01*
X-285797Y-3655649D01*
X-266749Y-3655649D01*
X-200083Y-3788982D02*
X-200083Y-3655649D01*
X-200083Y-3588982D02*
X-209606Y-3598506D01*
X-200083Y-3608030D01*
X-190559Y-3598506D01*
X-200083Y-3588982D01*
X-200083Y-3608030D01*
X-76273Y-3788982D02*
X-95321Y-3779458D01*
X-104845Y-3760410D01*
X-104845Y-3588982D01*
X28489Y-3788982D02*
X9441Y-3779458D01*
X-83Y-3760410D01*
X-83Y-3588982D01*
X257060Y-3788982D02*
X257060Y-3588982D01*
X323727Y-3731839D01*
X390393Y-3588982D01*
X390393Y-3788982D01*
X571346Y-3788982D02*
X571346Y-3684220D01*
X561822Y-3665172D01*
X542774Y-3655649D01*
X504679Y-3655649D01*
X485631Y-3665172D01*
X571346Y-3779458D02*
X552298Y-3788982D01*
X504679Y-3788982D01*
X485631Y-3779458D01*
X476108Y-3760410D01*
X476108Y-3741363D01*
X485631Y-3722315D01*
X504679Y-3712791D01*
X552298Y-3712791D01*
X571346Y-3703268D01*
X666584Y-3655649D02*
X666584Y-3855649D01*
X666584Y-3665172D02*
X685632Y-3655649D01*
X723727Y-3655649D01*
X742774Y-3665172D01*
X752298Y-3674696D01*
X761822Y-3693744D01*
X761822Y-3750887D01*
X752298Y-3769934D01*
X742774Y-3779458D01*
X723727Y-3788982D01*
X685632Y-3788982D01*
X666584Y-3779458D01*
X847536Y-3769934D02*
X857060Y-3779458D01*
X847536Y-3788982D01*
X838012Y-3779458D01*
X847536Y-3769934D01*
X847536Y-3788982D01*
X847536Y-3665172D02*
X857060Y-3674696D01*
X847536Y-3684220D01*
X838012Y-3674696D01*
X847536Y-3665172D01*
X847536Y-3684220D01*
D12*
X-931511Y-4043506D02*
X-781511Y-4193506D01*
X-781511Y-4043506D02*
X-931511Y-4193506D01*
D11*
X-419130Y-4208982D02*
X-533416Y-4208982D01*
X-476273Y-4208982D02*
X-476273Y-4008982D01*
X-495321Y-4037553D01*
X-514368Y-4056601D01*
X-533416Y-4066125D01*
X-333416Y-4189934D02*
X-323892Y-4199458D01*
X-333416Y-4208982D01*
X-342940Y-4199458D01*
X-333416Y-4189934D01*
X-333416Y-4208982D01*
X-142940Y-4008982D02*
X-238178Y-4008982D01*
X-247702Y-4104220D01*
X-238178Y-4094696D01*
X-219130Y-4085172D01*
X-171511Y-4085172D01*
X-152464Y-4094696D01*
X-142940Y-4104220D01*
X-133416Y-4123268D01*
X-133416Y-4170887D01*
X-142940Y-4189934D01*
X-152464Y-4199458D01*
X-171511Y-4208982D01*
X-219130Y-4208982D01*
X-238178Y-4199458D01*
X-247702Y-4189934D01*
X-9607Y-4008982D02*
X9441Y-4008982D01*
X28489Y-4018506D01*
X38013Y-4028030D01*
X47536Y-4047077D01*
X57060Y-4085172D01*
X57060Y-4132791D01*
X47536Y-4170887D01*
X38013Y-4189934D01*
X28489Y-4199458D01*
X9441Y-4208982D01*
X-9607Y-4208982D01*
X-28654Y-4199458D01*
X-38178Y-4189934D01*
X-47702Y-4170887D01*
X-57225Y-4132791D01*
X-57225Y-4085172D01*
X-47702Y-4047077D01*
X-38178Y-4028030D01*
X-28654Y-4018506D01*
X-9607Y-4008982D01*
X180870Y-4008982D02*
X199917Y-4008982D01*
X218965Y-4018506D01*
X228489Y-4028030D01*
X238012Y-4047077D01*
X247536Y-4085172D01*
X247536Y-4132791D01*
X238012Y-4170887D01*
X228489Y-4189934D01*
X218965Y-4199458D01*
X199917Y-4208982D01*
X180870Y-4208982D01*
X161822Y-4199458D01*
X152298Y-4189934D01*
X142774Y-4170887D01*
X133251Y-4132791D01*
X133251Y-4085172D01*
X142774Y-4047077D01*
X152298Y-4028030D01*
X161822Y-4018506D01*
X180870Y-4008982D01*
X333251Y-4208982D02*
X333251Y-4075649D01*
X333251Y-4094696D02*
X342774Y-4085172D01*
X361822Y-4075649D01*
X390393Y-4075649D01*
X409441Y-4085172D01*
X418965Y-4104220D01*
X418965Y-4208982D01*
X418965Y-4104220D02*
X428489Y-4085172D01*
X447536Y-4075649D01*
X476108Y-4075649D01*
X495155Y-4085172D01*
X504679Y-4104220D01*
X504679Y-4208982D01*
X599917Y-4208982D02*
X599917Y-4075649D01*
X599917Y-4094696D02*
X609441Y-4085172D01*
X628489Y-4075649D01*
X657060Y-4075649D01*
X676108Y-4085172D01*
X685632Y-4104220D01*
X685632Y-4208982D01*
X685632Y-4104220D02*
X695155Y-4085172D01*
X714203Y-4075649D01*
X742774Y-4075649D01*
X761822Y-4085172D01*
X771346Y-4104220D01*
X771346Y-4208982D01*
X1161822Y-3999458D02*
X990393Y-4256601D01*
X1418965Y-4008982D02*
X1438012Y-4008982D01*
X1457060Y-4018506D01*
X1466584Y-4028030D01*
X1476108Y-4047077D01*
X1485631Y-4085172D01*
X1485631Y-4132791D01*
X1476108Y-4170887D01*
X1466584Y-4189934D01*
X1457060Y-4199458D01*
X1438012Y-4208982D01*
X1418965Y-4208982D01*
X1399917Y-4199458D01*
X1390393Y-4189934D01*
X1380870Y-4170887D01*
X1371346Y-4132791D01*
X1371346Y-4085172D01*
X1380870Y-4047077D01*
X1390393Y-4028030D01*
X1399917Y-4018506D01*
X1418965Y-4008982D01*
X1571346Y-4189934D02*
X1580870Y-4199458D01*
X1571346Y-4208982D01*
X1561822Y-4199458D01*
X1571346Y-4189934D01*
X1571346Y-4208982D01*
X1704679Y-4008982D02*
X1723727Y-4008982D01*
X1742774Y-4018506D01*
X1752298Y-4028030D01*
X1761822Y-4047077D01*
X1771346Y-4085172D01*
X1771346Y-4132791D01*
X1761822Y-4170887D01*
X1752298Y-4189934D01*
X1742774Y-4199458D01*
X1723727Y-4208982D01*
X1704679Y-4208982D01*
X1685631Y-4199458D01*
X1676108Y-4189934D01*
X1666584Y-4170887D01*
X1657060Y-4132791D01*
X1657060Y-4085172D01*
X1666584Y-4047077D01*
X1676108Y-4028030D01*
X1685631Y-4018506D01*
X1704679Y-4008982D01*
X1952298Y-4008982D02*
X1857060Y-4008982D01*
X1847536Y-4104220D01*
X1857060Y-4094696D01*
X1876108Y-4085172D01*
X1923727Y-4085172D01*
X1942774Y-4094696D01*
X1952298Y-4104220D01*
X1961822Y-4123268D01*
X1961822Y-4170887D01*
X1952298Y-4189934D01*
X1942774Y-4199458D01*
X1923727Y-4208982D01*
X1876108Y-4208982D01*
X1857060Y-4199458D01*
X1847536Y-4189934D01*
X2057060Y-4208982D02*
X2095155Y-4208982D01*
X2114203Y-4199458D01*
X2123727Y-4189934D01*
X2142774Y-4161363D01*
X2152298Y-4123268D01*
X2152298Y-4047077D01*
X2142774Y-4028030D01*
X2133251Y-4018506D01*
X2114203Y-4008982D01*
X2076108Y-4008982D01*
X2057060Y-4018506D01*
X2047536Y-4028030D01*
X2038012Y-4047077D01*
X2038012Y-4094696D01*
X2047536Y-4113744D01*
X2057060Y-4123268D01*
X2076108Y-4132791D01*
X2114203Y-4132791D01*
X2133251Y-4123268D01*
X2142774Y-4113744D01*
X2152298Y-4094696D01*
X2342774Y-4208982D02*
X2228489Y-4208982D01*
X2285632Y-4208982D02*
X2285632Y-4008982D01*
X2266584Y-4037553D01*
X2247536Y-4056601D01*
X2228489Y-4066125D01*
X2418965Y-4008982D02*
X2418965Y-4047077D01*
X2495155Y-4008982D02*
X2495155Y-4047077D01*
X2790393Y-4285172D02*
X2780870Y-4275649D01*
X2761822Y-4247077D01*
X2752298Y-4228030D01*
X2742774Y-4199458D01*
X2733251Y-4151839D01*
X2733251Y-4113744D01*
X2742774Y-4066125D01*
X2752298Y-4037553D01*
X2761822Y-4018506D01*
X2780870Y-3989934D01*
X2790393Y-3980410D01*
X2857060Y-4028030D02*
X2866584Y-4018506D01*
X2885631Y-4008982D01*
X2933251Y-4008982D01*
X2952298Y-4018506D01*
X2961822Y-4028030D01*
X2971346Y-4047077D01*
X2971346Y-4066125D01*
X2961822Y-4094696D01*
X2847536Y-4208982D01*
X2971346Y-4208982D01*
X3209441Y-4208982D02*
X3209441Y-4008982D01*
X3295155Y-4208982D02*
X3295155Y-4104220D01*
X3285631Y-4085172D01*
X3266584Y-4075649D01*
X3238012Y-4075649D01*
X3218965Y-4085172D01*
X3209441Y-4094696D01*
X3418965Y-4208982D02*
X3399917Y-4199458D01*
X3390393Y-4189934D01*
X3380870Y-4170887D01*
X3380870Y-4113744D01*
X3390393Y-4094696D01*
X3399917Y-4085172D01*
X3418965Y-4075649D01*
X3447536Y-4075649D01*
X3466584Y-4085172D01*
X3476108Y-4094696D01*
X3485631Y-4113744D01*
X3485631Y-4170887D01*
X3476108Y-4189934D01*
X3466584Y-4199458D01*
X3447536Y-4208982D01*
X3418965Y-4208982D01*
X3599917Y-4208982D02*
X3580870Y-4199458D01*
X3571346Y-4180410D01*
X3571346Y-4008982D01*
X3752298Y-4199458D02*
X3733251Y-4208982D01*
X3695155Y-4208982D01*
X3676108Y-4199458D01*
X3666584Y-4180410D01*
X3666584Y-4104220D01*
X3676108Y-4085172D01*
X3695155Y-4075649D01*
X3733251Y-4075649D01*
X3752298Y-4085172D01*
X3761822Y-4104220D01*
X3761822Y-4123268D01*
X3666584Y-4142315D01*
X3838012Y-4199458D02*
X3857060Y-4208982D01*
X3895155Y-4208982D01*
X3914203Y-4199458D01*
X3923727Y-4180410D01*
X3923727Y-4170887D01*
X3914203Y-4151839D01*
X3895155Y-4142315D01*
X3866584Y-4142315D01*
X3847536Y-4132791D01*
X3838012Y-4113744D01*
X3838012Y-4104220D01*
X3847536Y-4085172D01*
X3866584Y-4075649D01*
X3895155Y-4075649D01*
X3914203Y-4085172D01*
X3990393Y-4285172D02*
X3999917Y-4275649D01*
X4018965Y-4247077D01*
X4028489Y-4228030D01*
X4038012Y-4199458D01*
X4047536Y-4151839D01*
X4047536Y-4113744D01*
X4038012Y-4066125D01*
X4028489Y-4037553D01*
X4018965Y-4018506D01*
X3999917Y-3989934D01*
X3990393Y-3980410D01*
X4352298Y-4285172D02*
X4342774Y-4275649D01*
X4323727Y-4247077D01*
X4314203Y-4228030D01*
X4304679Y-4199458D01*
X4295155Y-4151839D01*
X4295155Y-4113744D01*
X4304679Y-4066125D01*
X4314203Y-4037553D01*
X4323727Y-4018506D01*
X4342774Y-3989934D01*
X4352298Y-3980410D01*
X4428489Y-4075649D02*
X4428489Y-4208982D01*
X4428489Y-4094696D02*
X4438013Y-4085172D01*
X4457060Y-4075649D01*
X4485632Y-4075649D01*
X4504679Y-4085172D01*
X4514203Y-4104220D01*
X4514203Y-4208982D01*
X4638013Y-4208982D02*
X4618965Y-4199458D01*
X4609441Y-4189934D01*
X4599917Y-4170887D01*
X4599917Y-4113744D01*
X4609441Y-4094696D01*
X4618965Y-4085172D01*
X4638013Y-4075649D01*
X4666584Y-4075649D01*
X4685632Y-4085172D01*
X4695155Y-4094696D01*
X4704679Y-4113744D01*
X4704679Y-4170887D01*
X4695155Y-4189934D01*
X4685632Y-4199458D01*
X4666584Y-4208982D01*
X4638013Y-4208982D01*
X4761822Y-4075649D02*
X4838013Y-4075649D01*
X4790393Y-4008982D02*
X4790393Y-4180410D01*
X4799917Y-4199458D01*
X4818965Y-4208982D01*
X4838013Y-4208982D01*
X5057060Y-4075649D02*
X5057060Y-4275649D01*
X5057060Y-4085172D02*
X5076108Y-4075649D01*
X5114203Y-4075649D01*
X5133251Y-4085172D01*
X5142774Y-4094696D01*
X5152298Y-4113744D01*
X5152298Y-4170887D01*
X5142774Y-4189934D01*
X5133251Y-4199458D01*
X5114203Y-4208982D01*
X5076108Y-4208982D01*
X5057060Y-4199458D01*
X5266584Y-4208982D02*
X5247536Y-4199458D01*
X5238013Y-4180410D01*
X5238013Y-4008982D01*
X5428489Y-4208982D02*
X5428489Y-4104220D01*
X5418965Y-4085172D01*
X5399917Y-4075649D01*
X5361822Y-4075649D01*
X5342774Y-4085172D01*
X5428489Y-4199458D02*
X5409441Y-4208982D01*
X5361822Y-4208982D01*
X5342774Y-4199458D01*
X5333251Y-4180410D01*
X5333251Y-4161363D01*
X5342774Y-4142315D01*
X5361822Y-4132791D01*
X5409441Y-4132791D01*
X5428489Y-4123268D01*
X5495155Y-4075649D02*
X5571346Y-4075649D01*
X5523727Y-4008982D02*
X5523727Y-4180410D01*
X5533251Y-4199458D01*
X5552298Y-4208982D01*
X5571346Y-4208982D01*
X5714203Y-4199458D02*
X5695155Y-4208982D01*
X5657060Y-4208982D01*
X5638012Y-4199458D01*
X5628489Y-4180410D01*
X5628489Y-4104220D01*
X5638012Y-4085172D01*
X5657060Y-4075649D01*
X5695155Y-4075649D01*
X5714203Y-4085172D01*
X5723727Y-4104220D01*
X5723727Y-4123268D01*
X5628489Y-4142315D01*
X5895155Y-4208982D02*
X5895155Y-4008982D01*
X5895155Y-4199458D02*
X5876108Y-4208982D01*
X5838012Y-4208982D01*
X5818965Y-4199458D01*
X5809441Y-4189934D01*
X5799917Y-4170887D01*
X5799917Y-4113744D01*
X5809441Y-4094696D01*
X5818965Y-4085172D01*
X5838012Y-4075649D01*
X5876108Y-4075649D01*
X5895155Y-4085172D01*
X5971346Y-4285172D02*
X5980870Y-4275649D01*
X5999917Y-4247077D01*
X6009441Y-4228030D01*
X6018965Y-4199458D01*
X6028489Y-4151839D01*
X6028489Y-4113744D01*
X6018965Y-4066125D01*
X6009441Y-4037553D01*
X5999917Y-4018506D01*
X5980870Y-3989934D01*
X5971346Y-3980410D01*
D13*
X-781511Y-4388506D02*
G75*
G03*
X-781511Y-4388506I-85090J0D01*
G01*
D11*
X-419130Y-4478982D02*
X-533416Y-4478982D01*
X-476273Y-4478982D02*
X-476273Y-4278982D01*
X-495321Y-4307553D01*
X-514368Y-4326601D01*
X-533416Y-4336125D01*
X-333416Y-4459934D02*
X-323892Y-4469458D01*
X-333416Y-4478982D01*
X-342940Y-4469458D01*
X-333416Y-4459934D01*
X-333416Y-4478982D01*
X-257225Y-4278982D02*
X-123892Y-4278982D01*
X-209606Y-4478982D01*
X-9607Y-4278982D02*
X9441Y-4278982D01*
X28489Y-4288506D01*
X38013Y-4298030D01*
X47536Y-4317077D01*
X57060Y-4355172D01*
X57060Y-4402792D01*
X47536Y-4440887D01*
X38013Y-4459934D01*
X28489Y-4469458D01*
X9441Y-4478982D01*
X-9607Y-4478982D01*
X-28654Y-4469458D01*
X-38178Y-4459934D01*
X-47702Y-4440887D01*
X-57225Y-4402792D01*
X-57225Y-4355172D01*
X-47702Y-4317077D01*
X-38178Y-4298030D01*
X-28654Y-4288506D01*
X-9607Y-4278982D01*
X133251Y-4298030D02*
X142774Y-4288506D01*
X161822Y-4278982D01*
X209441Y-4278982D01*
X228489Y-4288506D01*
X238012Y-4298030D01*
X247536Y-4317077D01*
X247536Y-4336125D01*
X238012Y-4364696D01*
X123727Y-4478982D01*
X247536Y-4478982D01*
X333251Y-4478982D02*
X333251Y-4345649D01*
X333251Y-4364696D02*
X342774Y-4355172D01*
X361822Y-4345649D01*
X390393Y-4345649D01*
X409441Y-4355172D01*
X418965Y-4374220D01*
X418965Y-4478982D01*
X418965Y-4374220D02*
X428489Y-4355172D01*
X447536Y-4345649D01*
X476108Y-4345649D01*
X495155Y-4355172D01*
X504679Y-4374220D01*
X504679Y-4478982D01*
X599917Y-4478982D02*
X599917Y-4345649D01*
X599917Y-4364696D02*
X609441Y-4355172D01*
X628489Y-4345649D01*
X657060Y-4345649D01*
X676108Y-4355172D01*
X685632Y-4374220D01*
X685632Y-4478982D01*
X685632Y-4374220D02*
X695155Y-4355172D01*
X714203Y-4345649D01*
X742774Y-4345649D01*
X761822Y-4355172D01*
X771346Y-4374220D01*
X771346Y-4478982D01*
X1161822Y-4269458D02*
X990393Y-4526601D01*
X1418965Y-4278982D02*
X1438012Y-4278982D01*
X1457060Y-4288506D01*
X1466584Y-4298030D01*
X1476108Y-4317077D01*
X1485631Y-4355172D01*
X1485631Y-4402792D01*
X1476108Y-4440887D01*
X1466584Y-4459934D01*
X1457060Y-4469458D01*
X1438012Y-4478982D01*
X1418965Y-4478982D01*
X1399917Y-4469458D01*
X1390393Y-4459934D01*
X1380870Y-4440887D01*
X1371346Y-4402792D01*
X1371346Y-4355172D01*
X1380870Y-4317077D01*
X1390393Y-4298030D01*
X1399917Y-4288506D01*
X1418965Y-4278982D01*
X1571346Y-4459934D02*
X1580870Y-4469458D01*
X1571346Y-4478982D01*
X1561822Y-4469458D01*
X1571346Y-4459934D01*
X1571346Y-4478982D01*
X1704679Y-4278982D02*
X1723727Y-4278982D01*
X1742774Y-4288506D01*
X1752298Y-4298030D01*
X1761822Y-4317077D01*
X1771346Y-4355172D01*
X1771346Y-4402792D01*
X1761822Y-4440887D01*
X1752298Y-4459934D01*
X1742774Y-4469458D01*
X1723727Y-4478982D01*
X1704679Y-4478982D01*
X1685631Y-4469458D01*
X1676108Y-4459934D01*
X1666584Y-4440887D01*
X1657060Y-4402792D01*
X1657060Y-4355172D01*
X1666584Y-4317077D01*
X1676108Y-4298030D01*
X1685631Y-4288506D01*
X1704679Y-4278982D01*
X1942774Y-4278982D02*
X1904679Y-4278982D01*
X1885631Y-4288506D01*
X1876108Y-4298030D01*
X1857060Y-4326601D01*
X1847536Y-4364696D01*
X1847536Y-4440887D01*
X1857060Y-4459934D01*
X1866584Y-4469458D01*
X1885631Y-4478982D01*
X1923727Y-4478982D01*
X1942774Y-4469458D01*
X1952298Y-4459934D01*
X1961822Y-4440887D01*
X1961822Y-4393268D01*
X1952298Y-4374220D01*
X1942774Y-4364696D01*
X1923727Y-4355172D01*
X1885631Y-4355172D01*
X1866584Y-4364696D01*
X1857060Y-4374220D01*
X1847536Y-4393268D01*
X2028489Y-4278982D02*
X2161822Y-4278982D01*
X2076108Y-4478982D01*
X2276108Y-4278982D02*
X2295155Y-4278982D01*
X2314203Y-4288506D01*
X2323727Y-4298030D01*
X2333251Y-4317077D01*
X2342774Y-4355172D01*
X2342774Y-4402792D01*
X2333251Y-4440887D01*
X2323727Y-4459934D01*
X2314203Y-4469458D01*
X2295155Y-4478982D01*
X2276108Y-4478982D01*
X2257060Y-4469458D01*
X2247536Y-4459934D01*
X2238013Y-4440887D01*
X2228489Y-4402792D01*
X2228489Y-4355172D01*
X2238013Y-4317077D01*
X2247536Y-4298030D01*
X2257060Y-4288506D01*
X2276108Y-4278982D01*
X2418965Y-4278982D02*
X2418965Y-4317077D01*
X2495155Y-4278982D02*
X2495155Y-4317077D01*
X2790393Y-4555172D02*
X2780870Y-4545649D01*
X2761822Y-4517077D01*
X2752298Y-4498030D01*
X2742774Y-4469458D01*
X2733251Y-4421839D01*
X2733251Y-4383744D01*
X2742774Y-4336125D01*
X2752298Y-4307553D01*
X2761822Y-4288506D01*
X2780870Y-4259934D01*
X2790393Y-4250411D01*
X2952298Y-4278982D02*
X2914203Y-4278982D01*
X2895155Y-4288506D01*
X2885631Y-4298030D01*
X2866584Y-4326601D01*
X2857060Y-4364696D01*
X2857060Y-4440887D01*
X2866584Y-4459934D01*
X2876108Y-4469458D01*
X2895155Y-4478982D01*
X2933251Y-4478982D01*
X2952298Y-4469458D01*
X2961822Y-4459934D01*
X2971346Y-4440887D01*
X2971346Y-4393268D01*
X2961822Y-4374220D01*
X2952298Y-4364696D01*
X2933251Y-4355172D01*
X2895155Y-4355172D01*
X2876108Y-4364696D01*
X2866584Y-4374220D01*
X2857060Y-4393268D01*
X3085631Y-4364696D02*
X3066584Y-4355172D01*
X3057060Y-4345649D01*
X3047536Y-4326601D01*
X3047536Y-4317077D01*
X3057060Y-4298030D01*
X3066584Y-4288506D01*
X3085631Y-4278982D01*
X3123727Y-4278982D01*
X3142774Y-4288506D01*
X3152298Y-4298030D01*
X3161822Y-4317077D01*
X3161822Y-4326601D01*
X3152298Y-4345649D01*
X3142774Y-4355172D01*
X3123727Y-4364696D01*
X3085631Y-4364696D01*
X3066584Y-4374220D01*
X3057060Y-4383744D01*
X3047536Y-4402792D01*
X3047536Y-4440887D01*
X3057060Y-4459934D01*
X3066584Y-4469458D01*
X3085631Y-4478982D01*
X3123727Y-4478982D01*
X3142774Y-4469458D01*
X3152298Y-4459934D01*
X3161822Y-4440887D01*
X3161822Y-4402792D01*
X3152298Y-4383744D01*
X3142774Y-4374220D01*
X3123727Y-4364696D01*
X3399917Y-4478982D02*
X3399917Y-4278982D01*
X3485631Y-4478982D02*
X3485631Y-4374220D01*
X3476108Y-4355172D01*
X3457060Y-4345649D01*
X3428489Y-4345649D01*
X3409441Y-4355172D01*
X3399917Y-4364696D01*
X3609441Y-4478982D02*
X3590393Y-4469458D01*
X3580870Y-4459934D01*
X3571346Y-4440887D01*
X3571346Y-4383744D01*
X3580870Y-4364696D01*
X3590393Y-4355172D01*
X3609441Y-4345649D01*
X3638012Y-4345649D01*
X3657060Y-4355172D01*
X3666584Y-4364696D01*
X3676108Y-4383744D01*
X3676108Y-4440887D01*
X3666584Y-4459934D01*
X3657060Y-4469458D01*
X3638012Y-4478982D01*
X3609441Y-4478982D01*
X3790393Y-4478982D02*
X3771346Y-4469458D01*
X3761822Y-4450411D01*
X3761822Y-4278982D01*
X3942774Y-4469458D02*
X3923727Y-4478982D01*
X3885631Y-4478982D01*
X3866584Y-4469458D01*
X3857060Y-4450411D01*
X3857060Y-4374220D01*
X3866584Y-4355172D01*
X3885631Y-4345649D01*
X3923727Y-4345649D01*
X3942774Y-4355172D01*
X3952298Y-4374220D01*
X3952298Y-4393268D01*
X3857060Y-4412315D01*
X4028489Y-4469458D02*
X4047536Y-4478982D01*
X4085631Y-4478982D01*
X4104679Y-4469458D01*
X4114203Y-4450411D01*
X4114203Y-4440887D01*
X4104679Y-4421839D01*
X4085631Y-4412315D01*
X4057060Y-4412315D01*
X4038012Y-4402792D01*
X4028489Y-4383744D01*
X4028489Y-4374220D01*
X4038012Y-4355172D01*
X4057060Y-4345649D01*
X4085631Y-4345649D01*
X4104679Y-4355172D01*
X4180870Y-4555172D02*
X4190393Y-4545649D01*
X4209441Y-4517077D01*
X4218965Y-4498030D01*
X4228489Y-4469458D01*
X4238013Y-4421839D01*
X4238013Y-4383744D01*
X4228489Y-4336125D01*
X4218965Y-4307553D01*
X4209441Y-4288506D01*
X4190393Y-4259934D01*
X4180870Y-4250411D01*
X4542774Y-4555172D02*
X4533251Y-4545649D01*
X4514203Y-4517077D01*
X4504679Y-4498030D01*
X4495155Y-4469458D01*
X4485632Y-4421839D01*
X4485632Y-4383744D01*
X4495155Y-4336125D01*
X4504679Y-4307553D01*
X4514203Y-4288506D01*
X4533251Y-4259934D01*
X4542774Y-4250411D01*
X4618965Y-4345649D02*
X4618965Y-4478982D01*
X4618965Y-4364696D02*
X4628489Y-4355172D01*
X4647536Y-4345649D01*
X4676108Y-4345649D01*
X4695155Y-4355172D01*
X4704679Y-4374220D01*
X4704679Y-4478982D01*
X4828489Y-4478982D02*
X4809441Y-4469458D01*
X4799917Y-4459934D01*
X4790393Y-4440887D01*
X4790393Y-4383744D01*
X4799917Y-4364696D01*
X4809441Y-4355172D01*
X4828489Y-4345649D01*
X4857060Y-4345649D01*
X4876108Y-4355172D01*
X4885632Y-4364696D01*
X4895155Y-4383744D01*
X4895155Y-4440887D01*
X4885632Y-4459934D01*
X4876108Y-4469458D01*
X4857060Y-4478982D01*
X4828489Y-4478982D01*
X4952298Y-4345649D02*
X5028489Y-4345649D01*
X4980870Y-4278982D02*
X4980870Y-4450411D01*
X4990393Y-4469458D01*
X5009441Y-4478982D01*
X5028489Y-4478982D01*
X5247536Y-4345649D02*
X5247536Y-4545649D01*
X5247536Y-4355172D02*
X5266584Y-4345649D01*
X5304679Y-4345649D01*
X5323727Y-4355172D01*
X5333251Y-4364696D01*
X5342774Y-4383744D01*
X5342774Y-4440887D01*
X5333251Y-4459934D01*
X5323727Y-4469458D01*
X5304679Y-4478982D01*
X5266584Y-4478982D01*
X5247536Y-4469458D01*
X5457060Y-4478982D02*
X5438013Y-4469458D01*
X5428489Y-4450411D01*
X5428489Y-4278982D01*
X5618965Y-4478982D02*
X5618965Y-4374220D01*
X5609441Y-4355172D01*
X5590393Y-4345649D01*
X5552298Y-4345649D01*
X5533251Y-4355172D01*
X5618965Y-4469458D02*
X5599917Y-4478982D01*
X5552298Y-4478982D01*
X5533251Y-4469458D01*
X5523727Y-4450411D01*
X5523727Y-4431363D01*
X5533251Y-4412315D01*
X5552298Y-4402792D01*
X5599917Y-4402792D01*
X5618965Y-4393268D01*
X5685631Y-4345649D02*
X5761822Y-4345649D01*
X5714203Y-4278982D02*
X5714203Y-4450411D01*
X5723727Y-4469458D01*
X5742774Y-4478982D01*
X5761822Y-4478982D01*
X5904679Y-4469458D02*
X5885631Y-4478982D01*
X5847536Y-4478982D01*
X5828489Y-4469458D01*
X5818965Y-4450411D01*
X5818965Y-4374220D01*
X5828489Y-4355172D01*
X5847536Y-4345649D01*
X5885631Y-4345649D01*
X5904679Y-4355172D01*
X5914203Y-4374220D01*
X5914203Y-4393268D01*
X5818965Y-4412315D01*
X6085631Y-4478982D02*
X6085631Y-4278982D01*
X6085631Y-4469458D02*
X6066584Y-4478982D01*
X6028489Y-4478982D01*
X6009441Y-4469458D01*
X5999917Y-4459934D01*
X5990393Y-4440887D01*
X5990393Y-4383744D01*
X5999917Y-4364696D01*
X6009441Y-4355172D01*
X6028489Y-4345649D01*
X6066584Y-4345649D01*
X6085631Y-4355172D01*
X6161822Y-4555172D02*
X6171346Y-4545649D01*
X6190393Y-4517077D01*
X6199917Y-4498030D01*
X6209441Y-4469458D01*
X6218965Y-4421839D01*
X6218965Y-4383744D01*
X6209441Y-4336125D01*
X6199917Y-4307553D01*
X6190393Y-4288506D01*
X6171346Y-4259934D01*
X6161822Y-4250411D01*
X-881511Y-4578686D02*
X-881511Y-4778686D01*
X-981511Y-4678686D02*
X-781511Y-4678686D01*
X-542940Y-4569162D02*
X-419130Y-4569162D01*
X-485797Y-4645352D01*
X-457225Y-4645352D01*
X-438178Y-4654876D01*
X-428654Y-4664400D01*
X-419130Y-4683448D01*
X-419130Y-4731067D01*
X-428654Y-4750114D01*
X-438178Y-4759638D01*
X-457225Y-4769162D01*
X-514368Y-4769162D01*
X-533416Y-4759638D01*
X-542940Y-4750114D01*
X-333416Y-4750114D02*
X-323892Y-4759638D01*
X-333416Y-4769162D01*
X-342940Y-4759638D01*
X-333416Y-4750114D01*
X-333416Y-4769162D01*
X-200083Y-4569162D02*
X-181035Y-4569162D01*
X-161987Y-4578686D01*
X-152464Y-4588210D01*
X-142940Y-4607257D01*
X-133416Y-4645352D01*
X-133416Y-4692972D01*
X-142940Y-4731067D01*
X-152464Y-4750114D01*
X-161987Y-4759638D01*
X-181035Y-4769162D01*
X-200083Y-4769162D01*
X-219130Y-4759638D01*
X-228654Y-4750114D01*
X-238178Y-4731067D01*
X-247702Y-4692972D01*
X-247702Y-4645352D01*
X-238178Y-4607257D01*
X-228654Y-4588210D01*
X-219130Y-4578686D01*
X-200083Y-4569162D01*
X-9607Y-4569162D02*
X9441Y-4569162D01*
X28489Y-4578686D01*
X38013Y-4588210D01*
X47536Y-4607257D01*
X57060Y-4645352D01*
X57060Y-4692972D01*
X47536Y-4731067D01*
X38013Y-4750114D01*
X28489Y-4759638D01*
X9441Y-4769162D01*
X-9607Y-4769162D01*
X-28654Y-4759638D01*
X-38178Y-4750114D01*
X-47702Y-4731067D01*
X-57225Y-4692972D01*
X-57225Y-4645352D01*
X-47702Y-4607257D01*
X-38178Y-4588210D01*
X-28654Y-4578686D01*
X-9607Y-4569162D01*
X180870Y-4569162D02*
X199917Y-4569162D01*
X218965Y-4578686D01*
X228489Y-4588210D01*
X238012Y-4607257D01*
X247536Y-4645352D01*
X247536Y-4692972D01*
X238012Y-4731067D01*
X228489Y-4750114D01*
X218965Y-4759638D01*
X199917Y-4769162D01*
X180870Y-4769162D01*
X161822Y-4759638D01*
X152298Y-4750114D01*
X142774Y-4731067D01*
X133251Y-4692972D01*
X133251Y-4645352D01*
X142774Y-4607257D01*
X152298Y-4588210D01*
X161822Y-4578686D01*
X180870Y-4569162D01*
X333251Y-4769162D02*
X333251Y-4635829D01*
X333251Y-4654876D02*
X342774Y-4645352D01*
X361822Y-4635829D01*
X390393Y-4635829D01*
X409441Y-4645352D01*
X418965Y-4664400D01*
X418965Y-4769162D01*
X418965Y-4664400D02*
X428489Y-4645352D01*
X447536Y-4635829D01*
X476108Y-4635829D01*
X495155Y-4645352D01*
X504679Y-4664400D01*
X504679Y-4769162D01*
X599917Y-4769162D02*
X599917Y-4635829D01*
X599917Y-4654876D02*
X609441Y-4645352D01*
X628489Y-4635829D01*
X657060Y-4635829D01*
X676108Y-4645352D01*
X685632Y-4664400D01*
X685632Y-4769162D01*
X685632Y-4664400D02*
X695155Y-4645352D01*
X714203Y-4635829D01*
X742774Y-4635829D01*
X761822Y-4645352D01*
X771346Y-4664400D01*
X771346Y-4769162D01*
X1161822Y-4559638D02*
X990393Y-4816781D01*
X1418965Y-4569162D02*
X1438012Y-4569162D01*
X1457060Y-4578686D01*
X1466584Y-4588210D01*
X1476108Y-4607257D01*
X1485631Y-4645352D01*
X1485631Y-4692972D01*
X1476108Y-4731067D01*
X1466584Y-4750114D01*
X1457060Y-4759638D01*
X1438012Y-4769162D01*
X1418965Y-4769162D01*
X1399917Y-4759638D01*
X1390393Y-4750114D01*
X1380870Y-4731067D01*
X1371346Y-4692972D01*
X1371346Y-4645352D01*
X1380870Y-4607257D01*
X1390393Y-4588210D01*
X1399917Y-4578686D01*
X1418965Y-4569162D01*
X1571346Y-4750114D02*
X1580870Y-4759638D01*
X1571346Y-4769162D01*
X1561822Y-4759638D01*
X1571346Y-4750114D01*
X1571346Y-4769162D01*
X1771346Y-4769162D02*
X1657060Y-4769162D01*
X1714203Y-4769162D02*
X1714203Y-4569162D01*
X1695155Y-4597733D01*
X1676108Y-4616781D01*
X1657060Y-4626305D01*
X1961822Y-4769162D02*
X1847536Y-4769162D01*
X1904679Y-4769162D02*
X1904679Y-4569162D01*
X1885631Y-4597733D01*
X1866584Y-4616781D01*
X1847536Y-4626305D01*
X2076108Y-4654876D02*
X2057060Y-4645352D01*
X2047536Y-4635829D01*
X2038012Y-4616781D01*
X2038012Y-4607257D01*
X2047536Y-4588210D01*
X2057060Y-4578686D01*
X2076108Y-4569162D01*
X2114203Y-4569162D01*
X2133251Y-4578686D01*
X2142774Y-4588210D01*
X2152298Y-4607257D01*
X2152298Y-4616781D01*
X2142774Y-4635829D01*
X2133251Y-4645352D01*
X2114203Y-4654876D01*
X2076108Y-4654876D01*
X2057060Y-4664400D01*
X2047536Y-4673924D01*
X2038012Y-4692972D01*
X2038012Y-4731067D01*
X2047536Y-4750114D01*
X2057060Y-4759638D01*
X2076108Y-4769162D01*
X2114203Y-4769162D01*
X2133251Y-4759638D01*
X2142774Y-4750114D01*
X2152298Y-4731067D01*
X2152298Y-4692972D01*
X2142774Y-4673924D01*
X2133251Y-4664400D01*
X2114203Y-4654876D01*
X2342774Y-4769162D02*
X2228489Y-4769162D01*
X2285632Y-4769162D02*
X2285632Y-4569162D01*
X2266584Y-4597733D01*
X2247536Y-4616781D01*
X2228489Y-4626305D01*
X2418965Y-4569162D02*
X2418965Y-4607257D01*
X2495155Y-4569162D02*
X2495155Y-4607257D01*
X2790393Y-4845352D02*
X2780870Y-4835829D01*
X2761822Y-4807257D01*
X2752298Y-4788210D01*
X2742774Y-4759638D01*
X2733251Y-4712019D01*
X2733251Y-4673924D01*
X2742774Y-4626305D01*
X2752298Y-4597733D01*
X2761822Y-4578686D01*
X2780870Y-4550114D01*
X2790393Y-4540591D01*
X2952298Y-4569162D02*
X2914203Y-4569162D01*
X2895155Y-4578686D01*
X2885631Y-4588210D01*
X2866584Y-4616781D01*
X2857060Y-4654876D01*
X2857060Y-4731067D01*
X2866584Y-4750114D01*
X2876108Y-4759638D01*
X2895155Y-4769162D01*
X2933251Y-4769162D01*
X2952298Y-4759638D01*
X2961822Y-4750114D01*
X2971346Y-4731067D01*
X2971346Y-4683448D01*
X2961822Y-4664400D01*
X2952298Y-4654876D01*
X2933251Y-4645352D01*
X2895155Y-4645352D01*
X2876108Y-4654876D01*
X2866584Y-4664400D01*
X2857060Y-4683448D01*
X3085631Y-4654876D02*
X3066584Y-4645352D01*
X3057060Y-4635829D01*
X3047536Y-4616781D01*
X3047536Y-4607257D01*
X3057060Y-4588210D01*
X3066584Y-4578686D01*
X3085631Y-4569162D01*
X3123727Y-4569162D01*
X3142774Y-4578686D01*
X3152298Y-4588210D01*
X3161822Y-4607257D01*
X3161822Y-4616781D01*
X3152298Y-4635829D01*
X3142774Y-4645352D01*
X3123727Y-4654876D01*
X3085631Y-4654876D01*
X3066584Y-4664400D01*
X3057060Y-4673924D01*
X3047536Y-4692972D01*
X3047536Y-4731067D01*
X3057060Y-4750114D01*
X3066584Y-4759638D01*
X3085631Y-4769162D01*
X3123727Y-4769162D01*
X3142774Y-4759638D01*
X3152298Y-4750114D01*
X3161822Y-4731067D01*
X3161822Y-4692972D01*
X3152298Y-4673924D01*
X3142774Y-4664400D01*
X3123727Y-4654876D01*
X3399917Y-4769162D02*
X3399917Y-4569162D01*
X3485631Y-4769162D02*
X3485631Y-4664400D01*
X3476108Y-4645352D01*
X3457060Y-4635829D01*
X3428489Y-4635829D01*
X3409441Y-4645352D01*
X3399917Y-4654876D01*
X3609441Y-4769162D02*
X3590393Y-4759638D01*
X3580870Y-4750114D01*
X3571346Y-4731067D01*
X3571346Y-4673924D01*
X3580870Y-4654876D01*
X3590393Y-4645352D01*
X3609441Y-4635829D01*
X3638012Y-4635829D01*
X3657060Y-4645352D01*
X3666584Y-4654876D01*
X3676108Y-4673924D01*
X3676108Y-4731067D01*
X3666584Y-4750114D01*
X3657060Y-4759638D01*
X3638012Y-4769162D01*
X3609441Y-4769162D01*
X3790393Y-4769162D02*
X3771346Y-4759638D01*
X3761822Y-4740591D01*
X3761822Y-4569162D01*
X3942774Y-4759638D02*
X3923727Y-4769162D01*
X3885631Y-4769162D01*
X3866584Y-4759638D01*
X3857060Y-4740591D01*
X3857060Y-4664400D01*
X3866584Y-4645352D01*
X3885631Y-4635829D01*
X3923727Y-4635829D01*
X3942774Y-4645352D01*
X3952298Y-4664400D01*
X3952298Y-4683448D01*
X3857060Y-4702495D01*
X4028489Y-4759638D02*
X4047536Y-4769162D01*
X4085631Y-4769162D01*
X4104679Y-4759638D01*
X4114203Y-4740591D01*
X4114203Y-4731067D01*
X4104679Y-4712019D01*
X4085631Y-4702495D01*
X4057060Y-4702495D01*
X4038012Y-4692972D01*
X4028489Y-4673924D01*
X4028489Y-4664400D01*
X4038012Y-4645352D01*
X4057060Y-4635829D01*
X4085631Y-4635829D01*
X4104679Y-4645352D01*
X4180870Y-4845352D02*
X4190393Y-4835829D01*
X4209441Y-4807257D01*
X4218965Y-4788210D01*
X4228489Y-4759638D01*
X4238013Y-4712019D01*
X4238013Y-4673924D01*
X4228489Y-4626305D01*
X4218965Y-4597733D01*
X4209441Y-4578686D01*
X4190393Y-4550114D01*
X4180870Y-4540591D01*
X4542774Y-4845352D02*
X4533251Y-4835829D01*
X4514203Y-4807257D01*
X4504679Y-4788210D01*
X4495155Y-4759638D01*
X4485632Y-4712019D01*
X4485632Y-4673924D01*
X4495155Y-4626305D01*
X4504679Y-4597733D01*
X4514203Y-4578686D01*
X4533251Y-4550114D01*
X4542774Y-4540591D01*
X4618965Y-4635829D02*
X4618965Y-4769162D01*
X4618965Y-4654876D02*
X4628489Y-4645352D01*
X4647536Y-4635829D01*
X4676108Y-4635829D01*
X4695155Y-4645352D01*
X4704679Y-4664400D01*
X4704679Y-4769162D01*
X4828489Y-4769162D02*
X4809441Y-4759638D01*
X4799917Y-4750114D01*
X4790393Y-4731067D01*
X4790393Y-4673924D01*
X4799917Y-4654876D01*
X4809441Y-4645352D01*
X4828489Y-4635829D01*
X4857060Y-4635829D01*
X4876108Y-4645352D01*
X4885632Y-4654876D01*
X4895155Y-4673924D01*
X4895155Y-4731067D01*
X4885632Y-4750114D01*
X4876108Y-4759638D01*
X4857060Y-4769162D01*
X4828489Y-4769162D01*
X4952298Y-4635829D02*
X5028489Y-4635829D01*
X4980870Y-4569162D02*
X4980870Y-4740591D01*
X4990393Y-4759638D01*
X5009441Y-4769162D01*
X5028489Y-4769162D01*
X5247536Y-4635829D02*
X5247536Y-4835829D01*
X5247536Y-4645352D02*
X5266584Y-4635829D01*
X5304679Y-4635829D01*
X5323727Y-4645352D01*
X5333251Y-4654876D01*
X5342774Y-4673924D01*
X5342774Y-4731067D01*
X5333251Y-4750114D01*
X5323727Y-4759638D01*
X5304679Y-4769162D01*
X5266584Y-4769162D01*
X5247536Y-4759638D01*
X5457060Y-4769162D02*
X5438013Y-4759638D01*
X5428489Y-4740591D01*
X5428489Y-4569162D01*
X5618965Y-4769162D02*
X5618965Y-4664400D01*
X5609441Y-4645352D01*
X5590393Y-4635829D01*
X5552298Y-4635829D01*
X5533251Y-4645352D01*
X5618965Y-4759638D02*
X5599917Y-4769162D01*
X5552298Y-4769162D01*
X5533251Y-4759638D01*
X5523727Y-4740591D01*
X5523727Y-4721543D01*
X5533251Y-4702495D01*
X5552298Y-4692972D01*
X5599917Y-4692972D01*
X5618965Y-4683448D01*
X5685631Y-4635829D02*
X5761822Y-4635829D01*
X5714203Y-4569162D02*
X5714203Y-4740591D01*
X5723727Y-4759638D01*
X5742774Y-4769162D01*
X5761822Y-4769162D01*
X5904679Y-4759638D02*
X5885631Y-4769162D01*
X5847536Y-4769162D01*
X5828489Y-4759638D01*
X5818965Y-4740591D01*
X5818965Y-4664400D01*
X5828489Y-4645352D01*
X5847536Y-4635829D01*
X5885631Y-4635829D01*
X5904679Y-4645352D01*
X5914203Y-4664400D01*
X5914203Y-4683448D01*
X5818965Y-4702495D01*
X6085631Y-4769162D02*
X6085631Y-4569162D01*
X6085631Y-4759638D02*
X6066584Y-4769162D01*
X6028489Y-4769162D01*
X6009441Y-4759638D01*
X5999917Y-4750114D01*
X5990393Y-4731067D01*
X5990393Y-4673924D01*
X5999917Y-4654876D01*
X6009441Y-4645352D01*
X6028489Y-4635829D01*
X6066584Y-4635829D01*
X6085631Y-4645352D01*
X6161822Y-4845352D02*
X6171346Y-4835829D01*
X6190393Y-4807257D01*
X6199917Y-4788210D01*
X6209441Y-4759638D01*
X6218965Y-4712019D01*
X6218965Y-4673924D01*
X6209441Y-4626305D01*
X6199917Y-4597733D01*
X6190393Y-4578686D01*
X6171346Y-4550114D01*
X6161822Y-4540591D01*
X-810800Y-5069397D02*
X-810800Y-4927974D01*
X-952223Y-4927974D01*
X-952223Y-5069397D01*
X-810800Y-5069397D01*
X-542940Y-4889162D02*
X-419130Y-4889162D01*
X-485797Y-4965352D01*
X-457225Y-4965352D01*
X-438178Y-4974876D01*
X-428654Y-4984400D01*
X-419130Y-5003448D01*
X-419130Y-5051067D01*
X-428654Y-5070114D01*
X-438178Y-5079638D01*
X-457225Y-5089162D01*
X-514368Y-5089162D01*
X-533416Y-5079638D01*
X-542940Y-5070114D01*
X-333416Y-5070114D02*
X-323892Y-5079638D01*
X-333416Y-5089162D01*
X-342940Y-5079638D01*
X-333416Y-5070114D01*
X-333416Y-5089162D01*
X-228654Y-5089162D02*
X-190559Y-5089162D01*
X-171511Y-5079638D01*
X-161987Y-5070114D01*
X-142940Y-5041543D01*
X-133416Y-5003448D01*
X-133416Y-4927257D01*
X-142940Y-4908210D01*
X-152464Y-4898686D01*
X-171511Y-4889162D01*
X-209606Y-4889162D01*
X-228654Y-4898686D01*
X-238178Y-4908210D01*
X-247702Y-4927257D01*
X-247702Y-4974876D01*
X-238178Y-4993924D01*
X-228654Y-5003448D01*
X-209606Y-5012972D01*
X-171511Y-5012972D01*
X-152464Y-5003448D01*
X-142940Y-4993924D01*
X-133416Y-4974876D01*
X-19130Y-4974876D02*
X-38178Y-4965352D01*
X-47702Y-4955829D01*
X-57225Y-4936781D01*
X-57225Y-4927257D01*
X-47702Y-4908210D01*
X-38178Y-4898686D01*
X-19130Y-4889162D01*
X18965Y-4889162D01*
X38013Y-4898686D01*
X47536Y-4908210D01*
X57060Y-4927257D01*
X57060Y-4936781D01*
X47536Y-4955829D01*
X38013Y-4965352D01*
X18965Y-4974876D01*
X-19130Y-4974876D01*
X-38178Y-4984400D01*
X-47702Y-4993924D01*
X-57225Y-5012972D01*
X-57225Y-5051067D01*
X-47702Y-5070114D01*
X-38178Y-5079638D01*
X-19130Y-5089162D01*
X18965Y-5089162D01*
X38013Y-5079638D01*
X47536Y-5070114D01*
X57060Y-5051067D01*
X57060Y-5012972D01*
X47536Y-4993924D01*
X38013Y-4984400D01*
X18965Y-4974876D01*
X171346Y-4974876D02*
X152298Y-4965352D01*
X142774Y-4955829D01*
X133251Y-4936781D01*
X133251Y-4927257D01*
X142774Y-4908210D01*
X152298Y-4898686D01*
X171346Y-4889162D01*
X209441Y-4889162D01*
X228489Y-4898686D01*
X238012Y-4908210D01*
X247536Y-4927257D01*
X247536Y-4936781D01*
X238012Y-4955829D01*
X228489Y-4965352D01*
X209441Y-4974876D01*
X171346Y-4974876D01*
X152298Y-4984400D01*
X142774Y-4993924D01*
X133251Y-5012972D01*
X133251Y-5051067D01*
X142774Y-5070114D01*
X152298Y-5079638D01*
X171346Y-5089162D01*
X209441Y-5089162D01*
X228489Y-5079638D01*
X238012Y-5070114D01*
X247536Y-5051067D01*
X247536Y-5012972D01*
X238012Y-4993924D01*
X228489Y-4984400D01*
X209441Y-4974876D01*
X333251Y-5089162D02*
X333251Y-4955829D01*
X333251Y-4974876D02*
X342774Y-4965352D01*
X361822Y-4955829D01*
X390393Y-4955829D01*
X409441Y-4965352D01*
X418965Y-4984400D01*
X418965Y-5089162D01*
X418965Y-4984400D02*
X428489Y-4965352D01*
X447536Y-4955829D01*
X476108Y-4955829D01*
X495155Y-4965352D01*
X504679Y-4984400D01*
X504679Y-5089162D01*
X599917Y-5089162D02*
X599917Y-4955829D01*
X599917Y-4974876D02*
X609441Y-4965352D01*
X628489Y-4955829D01*
X657060Y-4955829D01*
X676108Y-4965352D01*
X685632Y-4984400D01*
X685632Y-5089162D01*
X685632Y-4984400D02*
X695155Y-4965352D01*
X714203Y-4955829D01*
X742774Y-4955829D01*
X761822Y-4965352D01*
X771346Y-4984400D01*
X771346Y-5089162D01*
X1161822Y-4879638D02*
X990393Y-5136781D01*
X1418965Y-4889162D02*
X1438012Y-4889162D01*
X1457060Y-4898686D01*
X1466584Y-4908210D01*
X1476108Y-4927257D01*
X1485631Y-4965352D01*
X1485631Y-5012972D01*
X1476108Y-5051067D01*
X1466584Y-5070114D01*
X1457060Y-5079638D01*
X1438012Y-5089162D01*
X1418965Y-5089162D01*
X1399917Y-5079638D01*
X1390393Y-5070114D01*
X1380870Y-5051067D01*
X1371346Y-5012972D01*
X1371346Y-4965352D01*
X1380870Y-4927257D01*
X1390393Y-4908210D01*
X1399917Y-4898686D01*
X1418965Y-4889162D01*
X1571346Y-5070114D02*
X1580870Y-5079638D01*
X1571346Y-5089162D01*
X1561822Y-5079638D01*
X1571346Y-5070114D01*
X1571346Y-5089162D01*
X1771346Y-5089162D02*
X1657060Y-5089162D01*
X1714203Y-5089162D02*
X1714203Y-4889162D01*
X1695155Y-4917733D01*
X1676108Y-4936781D01*
X1657060Y-4946305D01*
X1952298Y-4889162D02*
X1857060Y-4889162D01*
X1847536Y-4984400D01*
X1857060Y-4974876D01*
X1876108Y-4965352D01*
X1923727Y-4965352D01*
X1942774Y-4974876D01*
X1952298Y-4984400D01*
X1961822Y-5003448D01*
X1961822Y-5051067D01*
X1952298Y-5070114D01*
X1942774Y-5079638D01*
X1923727Y-5089162D01*
X1876108Y-5089162D01*
X1857060Y-5079638D01*
X1847536Y-5070114D01*
X2028489Y-4889162D02*
X2161822Y-4889162D01*
X2076108Y-5089162D01*
X2276108Y-4889162D02*
X2295155Y-4889162D01*
X2314203Y-4898686D01*
X2323727Y-4908210D01*
X2333251Y-4927257D01*
X2342774Y-4965352D01*
X2342774Y-5012972D01*
X2333251Y-5051067D01*
X2323727Y-5070114D01*
X2314203Y-5079638D01*
X2295155Y-5089162D01*
X2276108Y-5089162D01*
X2257060Y-5079638D01*
X2247536Y-5070114D01*
X2238013Y-5051067D01*
X2228489Y-5012972D01*
X2228489Y-4965352D01*
X2238013Y-4927257D01*
X2247536Y-4908210D01*
X2257060Y-4898686D01*
X2276108Y-4889162D01*
X2418965Y-4889162D02*
X2418965Y-4927257D01*
X2495155Y-4889162D02*
X2495155Y-4927257D01*
X2790393Y-5165352D02*
X2780870Y-5155829D01*
X2761822Y-5127257D01*
X2752298Y-5108210D01*
X2742774Y-5079638D01*
X2733251Y-5032019D01*
X2733251Y-4993924D01*
X2742774Y-4946305D01*
X2752298Y-4917733D01*
X2761822Y-4898686D01*
X2780870Y-4870114D01*
X2790393Y-4860591D01*
X2847536Y-4889162D02*
X2971346Y-4889162D01*
X2904679Y-4965352D01*
X2933251Y-4965352D01*
X2952298Y-4974876D01*
X2961822Y-4984400D01*
X2971346Y-5003448D01*
X2971346Y-5051067D01*
X2961822Y-5070114D01*
X2952298Y-5079638D01*
X2933251Y-5089162D01*
X2876108Y-5089162D01*
X2857060Y-5079638D01*
X2847536Y-5070114D01*
X3142774Y-4955829D02*
X3142774Y-5089162D01*
X3095155Y-4879638D02*
X3047536Y-5022495D01*
X3171346Y-5022495D01*
X3399917Y-5089162D02*
X3399917Y-4889162D01*
X3485631Y-5089162D02*
X3485631Y-4984400D01*
X3476108Y-4965352D01*
X3457060Y-4955829D01*
X3428489Y-4955829D01*
X3409441Y-4965352D01*
X3399917Y-4974876D01*
X3609441Y-5089162D02*
X3590393Y-5079638D01*
X3580870Y-5070114D01*
X3571346Y-5051067D01*
X3571346Y-4993924D01*
X3580870Y-4974876D01*
X3590393Y-4965352D01*
X3609441Y-4955829D01*
X3638012Y-4955829D01*
X3657060Y-4965352D01*
X3666584Y-4974876D01*
X3676108Y-4993924D01*
X3676108Y-5051067D01*
X3666584Y-5070114D01*
X3657060Y-5079638D01*
X3638012Y-5089162D01*
X3609441Y-5089162D01*
X3790393Y-5089162D02*
X3771346Y-5079638D01*
X3761822Y-5060591D01*
X3761822Y-4889162D01*
X3942774Y-5079638D02*
X3923727Y-5089162D01*
X3885631Y-5089162D01*
X3866584Y-5079638D01*
X3857060Y-5060591D01*
X3857060Y-4984400D01*
X3866584Y-4965352D01*
X3885631Y-4955829D01*
X3923727Y-4955829D01*
X3942774Y-4965352D01*
X3952298Y-4984400D01*
X3952298Y-5003448D01*
X3857060Y-5022495D01*
X4028489Y-5079638D02*
X4047536Y-5089162D01*
X4085631Y-5089162D01*
X4104679Y-5079638D01*
X4114203Y-5060591D01*
X4114203Y-5051067D01*
X4104679Y-5032019D01*
X4085631Y-5022495D01*
X4057060Y-5022495D01*
X4038012Y-5012972D01*
X4028489Y-4993924D01*
X4028489Y-4984400D01*
X4038012Y-4965352D01*
X4057060Y-4955829D01*
X4085631Y-4955829D01*
X4104679Y-4965352D01*
X4180870Y-5165352D02*
X4190393Y-5155829D01*
X4209441Y-5127257D01*
X4218965Y-5108210D01*
X4228489Y-5079638D01*
X4238013Y-5032019D01*
X4238013Y-4993924D01*
X4228489Y-4946305D01*
X4218965Y-4917733D01*
X4209441Y-4898686D01*
X4190393Y-4870114D01*
X4180870Y-4860591D01*
X4542774Y-5165352D02*
X4533251Y-5155829D01*
X4514203Y-5127257D01*
X4504679Y-5108210D01*
X4495155Y-5079638D01*
X4485632Y-5032019D01*
X4485632Y-4993924D01*
X4495155Y-4946305D01*
X4504679Y-4917733D01*
X4514203Y-4898686D01*
X4533251Y-4870114D01*
X4542774Y-4860591D01*
X4618965Y-4955829D02*
X4618965Y-5089162D01*
X4618965Y-4974876D02*
X4628489Y-4965352D01*
X4647536Y-4955829D01*
X4676108Y-4955829D01*
X4695155Y-4965352D01*
X4704679Y-4984400D01*
X4704679Y-5089162D01*
X4828489Y-5089162D02*
X4809441Y-5079638D01*
X4799917Y-5070114D01*
X4790393Y-5051067D01*
X4790393Y-4993924D01*
X4799917Y-4974876D01*
X4809441Y-4965352D01*
X4828489Y-4955829D01*
X4857060Y-4955829D01*
X4876108Y-4965352D01*
X4885632Y-4974876D01*
X4895155Y-4993924D01*
X4895155Y-5051067D01*
X4885632Y-5070114D01*
X4876108Y-5079638D01*
X4857060Y-5089162D01*
X4828489Y-5089162D01*
X4952298Y-4955829D02*
X5028489Y-4955829D01*
X4980870Y-4889162D02*
X4980870Y-5060591D01*
X4990393Y-5079638D01*
X5009441Y-5089162D01*
X5028489Y-5089162D01*
X5247536Y-4955829D02*
X5247536Y-5155829D01*
X5247536Y-4965352D02*
X5266584Y-4955829D01*
X5304679Y-4955829D01*
X5323727Y-4965352D01*
X5333251Y-4974876D01*
X5342774Y-4993924D01*
X5342774Y-5051067D01*
X5333251Y-5070114D01*
X5323727Y-5079638D01*
X5304679Y-5089162D01*
X5266584Y-5089162D01*
X5247536Y-5079638D01*
X5457060Y-5089162D02*
X5438013Y-5079638D01*
X5428489Y-5060591D01*
X5428489Y-4889162D01*
X5618965Y-5089162D02*
X5618965Y-4984400D01*
X5609441Y-4965352D01*
X5590393Y-4955829D01*
X5552298Y-4955829D01*
X5533251Y-4965352D01*
X5618965Y-5079638D02*
X5599917Y-5089162D01*
X5552298Y-5089162D01*
X5533251Y-5079638D01*
X5523727Y-5060591D01*
X5523727Y-5041543D01*
X5533251Y-5022495D01*
X5552298Y-5012972D01*
X5599917Y-5012972D01*
X5618965Y-5003448D01*
X5685631Y-4955829D02*
X5761822Y-4955829D01*
X5714203Y-4889162D02*
X5714203Y-5060591D01*
X5723727Y-5079638D01*
X5742774Y-5089162D01*
X5761822Y-5089162D01*
X5904679Y-5079638D02*
X5885631Y-5089162D01*
X5847536Y-5089162D01*
X5828489Y-5079638D01*
X5818965Y-5060591D01*
X5818965Y-4984400D01*
X5828489Y-4965352D01*
X5847536Y-4955829D01*
X5885631Y-4955829D01*
X5904679Y-4965352D01*
X5914203Y-4984400D01*
X5914203Y-5003448D01*
X5818965Y-5022495D01*
X6085631Y-5089162D02*
X6085631Y-4889162D01*
X6085631Y-5079638D02*
X6066584Y-5089162D01*
X6028489Y-5089162D01*
X6009441Y-5079638D01*
X5999917Y-5070114D01*
X5990393Y-5051067D01*
X5990393Y-4993924D01*
X5999917Y-4974876D01*
X6009441Y-4965352D01*
X6028489Y-4955829D01*
X6066584Y-4955829D01*
X6085631Y-4965352D01*
X6161822Y-5165352D02*
X6171346Y-5155829D01*
X6190393Y-5127257D01*
X6199917Y-5108210D01*
X6209441Y-5079638D01*
X6218965Y-5032019D01*
X6218965Y-4993924D01*
X6209441Y-4946305D01*
X6199917Y-4917733D01*
X6190393Y-4898686D01*
X6171346Y-4870114D01*
X6161822Y-4860591D01*
M02*
