M48
; DRILL file {KiCad (6.0.2-0)} date Wednesday, March 23, 2022 at 10:44:08 AM
; FORMAT={-:-/ absolute / metric / decimal}
; #@! TF.CreationDate,2022-03-23T10:44:08-07:00
; #@! TF.GenerationSoftware,Kicad,Pcbnew,(6.0.2-0)
; #@! TF.FileFunction,NonPlated,1,2,NPTH
FMAT,2
METRIC
; #@! TA.AperFunction,NonPlated,NPTH,ComponentDrill
T1C1.500
; #@! TA.AperFunction,NonPlated,NPTH,ComponentDrill
T2C1.702
; #@! TA.AperFunction,NonPlated,NPTH,ComponentDrill
T3C3.000
; #@! TA.AperFunction,NonPlated,NPTH,ComponentDrill
T4C3.988
%
G90
G05
T1
X125.762Y37.805
X126.372Y44.778
T2
X-0.107Y30.947
X-0.107Y30.947
X4.293Y14.527
X4.293Y14.527
X8.693Y-1.894
X8.693Y-1.894
X9.707Y33.577
X9.707Y33.577
X14.107Y17.156
X14.107Y17.156
X18.507Y0.736
X18.507Y0.736
X22.378Y58.824
X22.378Y58.824
X23.859Y41.889
X23.859Y41.889
X25.341Y24.953
X25.341Y24.953
X32.499Y59.71
X32.499Y59.71
X33.981Y42.774
X33.981Y42.774
X35.462Y25.839
X35.462Y25.839
X45.437Y66.762
X45.437Y66.762
X45.437Y49.762
X45.437Y49.762
X45.437Y32.762
X45.437Y32.762
X55.597Y66.762
X55.597Y66.762
X55.597Y49.762
X55.597Y49.762
X55.597Y32.762
X55.597Y32.762
X65.738Y27.473
X65.738Y27.473
X67.22Y44.409
X67.22Y44.409
X68.701Y61.344
X68.701Y61.344
X75.859Y26.588
X75.859Y26.588
X77.341Y43.523
X77.341Y43.523
X78.823Y60.458
X78.823Y60.458
X82.739Y-9.668
X82.739Y-9.668
X85.415Y22.908
X85.415Y22.908
X86.897Y39.843
X86.897Y39.843
X88.378Y56.778
X88.378Y56.778
X92.286Y-13.143
X92.286Y-13.143
X95.536Y22.022
X95.536Y22.022
X97.018Y38.957
X97.018Y38.957
X98.5Y55.893
X98.5Y55.893
X100.865Y-17.144
X100.865Y-17.144
X109.664Y-22.224
X109.664Y-22.224
T3
X0.463Y33.73
X1.032Y36.512
X4.863Y17.309
X5.432Y20.091
X5.939Y37.827
X7.823Y35.702
X9.262Y0.888
X9.832Y3.67
X10.339Y21.406
X12.223Y19.281
X14.739Y4.985
X16.623Y2.86
X23.421Y61.465
X24.465Y64.106
X24.903Y44.53
X25.947Y47.171
X26.385Y27.594
X27.429Y30.235
X29.526Y64.549
X31.008Y47.613
X31.012Y62.129
X32.489Y30.678
X32.494Y45.194
X33.976Y28.259
X46.707Y69.302
X46.707Y52.302
X46.707Y35.302
X47.977Y71.842
X47.977Y54.842
X47.977Y37.842
X53.057Y71.842
X53.057Y54.842
X53.057Y37.842
X54.327Y69.302
X54.327Y52.302
X54.327Y35.302
X67.225Y29.893
X68.706Y46.828
X68.711Y32.313
X70.188Y63.764
X70.193Y49.248
X71.674Y66.183
X73.772Y31.87
X74.816Y29.229
X75.254Y48.805
X76.297Y46.164
X76.735Y65.74
X77.779Y63.099
X84.801Y-7.716
X86.863Y-5.763
X86.902Y25.327
X88.383Y42.263
X88.388Y27.747
X89.865Y59.198
X89.87Y44.682
X91.351Y61.618
X91.637Y-7.501
X91.961Y-10.322
X93.449Y27.304
X94.493Y24.663
X94.93Y44.239
X95.974Y41.598
X96.412Y61.175
X97.456Y58.534
X103.235Y-15.579
X105.605Y-14.014
X109.834Y-19.389
X110.004Y-16.554
T4
X4.8Y32.262
X4.8Y32.262
X9.2Y15.841
X9.2Y15.841
X13.6Y-0.579
X13.6Y-0.579
X27.438Y59.267
X27.438Y59.267
X28.92Y42.331
X28.92Y42.331
X30.402Y25.396
X30.402Y25.396
X50.517Y66.762
X50.517Y66.762
X50.517Y49.762
X50.517Y49.762
X50.517Y32.762
X50.517Y32.762
X70.799Y27.031
X70.799Y27.031
X72.28Y43.966
X72.28Y43.966
X73.762Y60.901
X73.762Y60.901
X87.512Y-11.406
X87.512Y-11.406
X90.476Y22.465
X90.476Y22.465
X91.957Y39.4
X91.957Y39.4
X93.439Y56.335
X93.439Y56.335
X105.265Y-19.684
X105.265Y-19.684
T0
M30
