%TF.GenerationSoftware,KiCad,Pcbnew,(6.0.2-0)*%
%TF.CreationDate,2022-03-23T10:44:18-07:00*%
%TF.ProjectId,Untitled,556e7469-746c-4656-942e-6b696361645f,v1.0.0*%
%TF.SameCoordinates,Original*%
%TF.FileFunction,Soldermask,Bot*%
%TF.FilePolarity,Negative*%
%FSLAX46Y46*%
G04 Gerber Fmt 4.6, Leading zero omitted, Abs format (unit mm)*
G04 Created by KiCad (PCBNEW (6.0.2-0)) date 2022-03-23 10:44:18*
%MOMM*%
%LPD*%
G01*
G04 APERTURE LIST*
G04 Aperture macros list*
%AMRoundRect*
0 Rectangle with rounded corners*
0 $1 Rounding radius*
0 $2 $3 $4 $5 $6 $7 $8 $9 X,Y pos of 4 corners*
0 Add a 4 corners polygon primitive as box body*
4,1,4,$2,$3,$4,$5,$6,$7,$8,$9,$2,$3,0*
0 Add four circle primitives for the rounded corners*
1,1,$1+$1,$2,$3*
1,1,$1+$1,$4,$5*
1,1,$1+$1,$6,$7*
1,1,$1+$1,$8,$9*
0 Add four rect primitives between the rounded corners*
20,1,$1+$1,$2,$3,$4,$5,0*
20,1,$1+$1,$4,$5,$6,$7,0*
20,1,$1+$1,$6,$7,$8,$9,0*
20,1,$1+$1,$8,$9,$2,$3,0*%
%AMHorizOval*
0 Thick line with rounded ends*
0 $1 width*
0 $2 $3 position (X,Y) of the first rounded end (center of the circle)*
0 $4 $5 position (X,Y) of the second rounded end (center of the circle)*
0 Add line between two ends*
20,1,$1,$2,$3,$4,$5,0*
0 Add two circle primitives to create the rounded ends*
1,1,$1,$2,$3*
1,1,$1,$4,$5*%
G04 Aperture macros list end*
%ADD10C,1.801800*%
%ADD11C,3.100000*%
%ADD12C,4.087800*%
%ADD13RoundRect,0.050000X1.275000X1.250000X-1.275000X1.250000X-1.275000X-1.250000X1.275000X-1.250000X0*%
%ADD14C,2.386000*%
%ADD15RoundRect,0.050000X-0.796591X0.949340X-0.949340X-0.796591X0.796591X-0.949340X0.949340X0.796591X0*%
%ADD16C,1.852600*%
%ADD17C,1.600000*%
%ADD18HorizOval,1.700000X-0.026147X-0.298858X0.026147X0.298858X0*%
G04 APERTURE END LIST*
D10*
%TO.C,S5*%
X9707132Y33577018D03*
X-106674Y30947416D03*
D11*
X5938880Y37826521D03*
X462651Y33729568D03*
X7823006Y35701769D03*
X1031977Y36511720D03*
D12*
X4800229Y32262217D03*
D13*
X-2700756Y32881936D03*
X9128367Y38681141D03*
%TD*%
D12*
%TO.C,S20*%
X70798781Y27030529D03*
D10*
X75859450Y26587778D03*
X65738112Y27473280D03*
D14*
X67825695Y22191236D03*
X72886364Y21748484D03*
X74372907Y24168131D03*
X66781904Y24832258D03*
%TD*%
D10*
%TO.C,S23*%
X78822745Y60458398D03*
D11*
X70187950Y63763547D03*
X71674493Y66183194D03*
X76735162Y65740442D03*
D12*
X73762076Y60901149D03*
D11*
X77778953Y63099420D03*
D10*
X68701407Y61343900D03*
D13*
X66925412Y64048982D03*
X80024597Y65452654D03*
%TD*%
D12*
%TO.C,S3*%
X9200153Y15841478D03*
D10*
X4293250Y14526677D03*
D11*
X5431901Y20090981D03*
D10*
X14107056Y17156279D03*
D11*
X10338804Y21405782D03*
X12222930Y19281030D03*
X4862575Y17308829D03*
D13*
X1699168Y16461197D03*
X13528291Y22260402D03*
%TD*%
D12*
%TO.C,S30*%
X93439029Y56335482D03*
D10*
X98499698Y55892731D03*
X88378360Y56778233D03*
D14*
X90465943Y51496189D03*
X95526612Y51053437D03*
X89422152Y54137211D03*
X97013155Y53473084D03*
%TD*%
D11*
%TO.C,S13*%
X47977133Y37841886D03*
X54327133Y35301886D03*
D12*
X50517133Y32761886D03*
D10*
X45437133Y32761886D03*
D11*
X46707133Y35301886D03*
X53057133Y37841886D03*
D10*
X55597133Y32761886D03*
D13*
X43432133Y35301886D03*
X56359133Y37841886D03*
%TD*%
D10*
%TO.C,S22*%
X67219760Y44408590D03*
X77341098Y43523088D03*
D12*
X72280429Y43965839D03*
D14*
X74368012Y38683794D03*
X69307343Y39126546D03*
X68263552Y41767568D03*
X75854555Y41103441D03*
%TD*%
D11*
%TO.C,S1*%
X9831824Y3670242D03*
D10*
X8693173Y-1894062D03*
D11*
X16622853Y2860291D03*
X9262498Y888090D03*
D10*
X18506979Y735540D03*
D12*
X13600076Y-579261D03*
D11*
X14738727Y4985043D03*
D13*
X6099091Y40458D03*
X17928214Y5839663D03*
%TD*%
D10*
%TO.C,S11*%
X32499043Y59709504D03*
D11*
X23421497Y61465024D03*
D12*
X27438374Y59266753D03*
D11*
X29525957Y64548798D03*
X31012500Y62129151D03*
D10*
X22377705Y58824002D03*
D11*
X24465288Y64106046D03*
D13*
X20158959Y61179589D03*
X32815392Y64836586D03*
%TD*%
D10*
%TO.C,S28*%
X97018050Y38957421D03*
D12*
X91957381Y39400172D03*
D10*
X86896712Y39842923D03*
D14*
X88984295Y34560879D03*
X94044964Y34118127D03*
X95531507Y36537774D03*
X87940504Y37201901D03*
%TD*%
D10*
%TO.C,S34*%
X100865300Y-17143777D03*
X109664118Y-22223777D03*
D12*
X105264709Y-19683777D03*
D14*
X100525004Y-22813186D03*
X104924414Y-25353186D03*
X100695152Y-19978482D03*
X107294266Y-23788482D03*
%TD*%
D15*
%TO.C,MCU1*%
X104615474Y47017275D03*
D16*
X104394099Y44486940D03*
X104172723Y41956606D03*
X103951347Y39426271D03*
X103729972Y36895937D03*
X103508596Y34365602D03*
X103287221Y31835267D03*
X103065845Y29304933D03*
X102844469Y26774598D03*
X102623094Y24244264D03*
X102401718Y21713929D03*
X102180343Y19183595D03*
X119797481Y45689021D03*
X119576106Y43158687D03*
X119354730Y40628352D03*
X119133355Y38098018D03*
X118911979Y35567683D03*
X118690603Y33037349D03*
X118469228Y30507014D03*
X118247852Y27976679D03*
X118026477Y25446345D03*
X117805101Y22916010D03*
X117583725Y20385676D03*
X117362350Y17855341D03*
%TD*%
D10*
%TO.C,S18*%
X55597133Y66761886D03*
D12*
X50517133Y66761886D03*
D10*
X45437133Y66761886D03*
D14*
X53057133Y61681886D03*
X47977133Y61681886D03*
X54327133Y64221886D03*
X46707133Y64221886D03*
%TD*%
D10*
%TO.C,S4*%
X14107056Y17156279D03*
D12*
X9200153Y15841478D03*
D10*
X4293250Y14526677D03*
D14*
X12968405Y11591975D03*
X8061502Y10277174D03*
X13537731Y14374127D03*
X6177376Y12401926D03*
%TD*%
D11*
%TO.C,S31*%
X84800940Y-7715841D03*
D10*
X92286077Y-13143219D03*
D11*
X86863081Y-5763387D03*
D12*
X87512438Y-11405757D03*
D11*
X91636720Y-7500850D03*
X91961398Y-10322034D03*
D10*
X82738799Y-9668295D03*
D13*
X81723447Y-6595725D03*
X94739585Y-8630200D03*
%TD*%
D10*
%TO.C,S27*%
X97018050Y38957421D03*
D11*
X95974258Y41598443D03*
D10*
X86896712Y39842923D03*
D12*
X91957381Y39400172D03*
D11*
X88383255Y42262570D03*
X89869798Y44682217D03*
X94930467Y44239465D03*
D13*
X85120717Y42548005D03*
X98219902Y43951677D03*
%TD*%
D11*
%TO.C,S29*%
X96412115Y61174775D03*
D10*
X98499698Y55892731D03*
D11*
X97455906Y58533753D03*
X91351446Y61617527D03*
D10*
X88378360Y56778233D03*
D11*
X89864903Y59197880D03*
D12*
X93439029Y56335482D03*
D13*
X86602365Y59483315D03*
X99701550Y60886987D03*
%TD*%
D12*
%TO.C,S6*%
X4800229Y32262217D03*
D10*
X9707132Y33577018D03*
X-106674Y30947416D03*
D14*
X8568481Y28012714D03*
X3661578Y26697913D03*
X1777452Y28822665D03*
X9137807Y30794866D03*
%TD*%
D10*
%TO.C,S14*%
X55597133Y32761886D03*
X45437133Y32761886D03*
D12*
X50517133Y32761886D03*
D14*
X47977133Y27681886D03*
X53057133Y27681886D03*
X54327133Y30221886D03*
X46707133Y30221886D03*
%TD*%
D12*
%TO.C,S8*%
X30401669Y25396133D03*
D10*
X25341000Y24953382D03*
X35462338Y25838884D03*
D14*
X33374755Y20556840D03*
X28314086Y20114088D03*
X26827543Y22533735D03*
X34418546Y23197862D03*
%TD*%
D12*
%TO.C,S32*%
X87512438Y-11405757D03*
D10*
X82738799Y-9668295D03*
X92286077Y-13143219D03*
D14*
X83388156Y-15310664D03*
X88161795Y-17048127D03*
X83063478Y-12489480D03*
X90223936Y-15095673D03*
%TD*%
D12*
%TO.C,S21*%
X72280429Y43965839D03*
D11*
X75253515Y48805132D03*
X68706303Y46828237D03*
D10*
X77341098Y43523088D03*
D11*
X76297306Y46164110D03*
X70192846Y49247884D03*
D10*
X67219760Y44408590D03*
D13*
X65443765Y47113672D03*
X78542950Y48517344D03*
%TD*%
D17*
%TO.C,REF\u002A\u002A*%
X126371843Y44778134D03*
X125761753Y37804771D03*
D18*
X127817680Y34914587D03*
X123235184Y35315503D03*
X127913551Y36010401D03*
X123331056Y36411317D03*
X128262174Y39995180D03*
X123679679Y40396096D03*
X128523642Y42983764D03*
X123941146Y43384680D03*
%TD*%
D11*
%TO.C,S25*%
X94492611Y24663133D03*
X93448820Y27304155D03*
D12*
X90475734Y22464862D03*
D10*
X95536403Y22022111D03*
D11*
X88388151Y27746907D03*
D10*
X85415065Y22907613D03*
D11*
X86901608Y25327260D03*
D13*
X83639070Y25612695D03*
X96738255Y27016367D03*
%TD*%
D12*
%TO.C,S15*%
X50517133Y49761886D03*
D11*
X47977133Y54841886D03*
D10*
X55597133Y49761886D03*
D11*
X53057133Y54841886D03*
X54327133Y52301886D03*
X46707133Y52301886D03*
D10*
X45437133Y49761886D03*
D13*
X43432133Y52301886D03*
X56359133Y54841886D03*
%TD*%
D11*
%TO.C,S7*%
X32489252Y30678178D03*
X33975795Y28258531D03*
X27428583Y30235426D03*
D12*
X30401669Y25396133D03*
D10*
X35462338Y25838884D03*
X25341000Y24953382D03*
D11*
X26384792Y27594404D03*
D13*
X23122254Y27308969D03*
X35778687Y30965966D03*
%TD*%
D12*
%TO.C,S16*%
X50517133Y49761886D03*
D10*
X45437133Y49761886D03*
X55597133Y49761886D03*
D14*
X47977133Y44681886D03*
X53057133Y44681886D03*
X54327133Y47221886D03*
X46707133Y47221886D03*
%TD*%
D10*
%TO.C,S10*%
X33980690Y42774194D03*
D12*
X28920021Y42331443D03*
D10*
X23859352Y41888692D03*
D14*
X26832438Y37049398D03*
X31893107Y37492150D03*
X32936898Y40133172D03*
X25345895Y39469045D03*
%TD*%
D11*
%TO.C,S9*%
X31007604Y47613488D03*
X32494147Y45193841D03*
D12*
X28920021Y42331443D03*
D10*
X33980690Y42774194D03*
X23859352Y41888692D03*
D11*
X25946935Y47170736D03*
X24903144Y44529714D03*
D13*
X21640606Y44244279D03*
X34297039Y47901276D03*
%TD*%
D10*
%TO.C,S2*%
X18506979Y735540D03*
X8693173Y-1894062D03*
D12*
X13600076Y-579261D03*
D14*
X12461425Y-6143565D03*
X17368328Y-4828764D03*
X10577299Y-4018813D03*
X17937654Y-2046612D03*
%TD*%
D11*
%TO.C,S19*%
X67224655Y29892927D03*
X68711198Y32312574D03*
D10*
X65738112Y27473280D03*
D11*
X74815658Y29228800D03*
D12*
X70798781Y27030529D03*
D10*
X75859450Y26587778D03*
D11*
X73771867Y31869822D03*
D13*
X63962117Y30178362D03*
X77061302Y31582034D03*
%TD*%
D10*
%TO.C,S24*%
X68701407Y61343900D03*
D12*
X73762076Y60901149D03*
D10*
X78822745Y60458398D03*
D14*
X70788990Y56061856D03*
X75849659Y55619104D03*
X77336202Y58038751D03*
X69745199Y58702878D03*
%TD*%
D10*
%TO.C,S33*%
X109664118Y-22223777D03*
D11*
X109834266Y-19389072D03*
X105605004Y-14014368D03*
D12*
X105264709Y-19683777D03*
D10*
X100865300Y-17143777D03*
D11*
X103235152Y-15579072D03*
X110004414Y-16554368D03*
D13*
X100398919Y-13941572D03*
X112864029Y-18205368D03*
%TD*%
D11*
%TO.C,S17*%
X47977133Y71841886D03*
X46707133Y69301886D03*
D10*
X55597133Y66761886D03*
D11*
X53057133Y71841886D03*
D12*
X50517133Y66761886D03*
D10*
X45437133Y66761886D03*
D11*
X54327133Y69301886D03*
D13*
X43432133Y69301886D03*
X56359133Y71841886D03*
%TD*%
D10*
%TO.C,S26*%
X85415065Y22907613D03*
X95536403Y22022111D03*
D12*
X90475734Y22464862D03*
D14*
X92563317Y17182817D03*
X87502648Y17625569D03*
X94049860Y19602464D03*
X86458857Y20266591D03*
%TD*%
D12*
%TO.C,S12*%
X27438374Y59266753D03*
D10*
X32499043Y59709504D03*
X22377705Y58824002D03*
D14*
X25350791Y53984708D03*
X30411460Y54427460D03*
X31455251Y57068482D03*
X23864248Y56404355D03*
%TD*%
M02*
