M48
; DRILL file {KiCad (6.0.2-0)} date Wednesday, March 23, 2022 at 10:44:08 AM
; FORMAT={-:-/ absolute / metric / decimal}
; #@! TF.CreationDate,2022-03-23T10:44:08-07:00
; #@! TF.GenerationSoftware,Kicad,Pcbnew,(6.0.2-0)
; #@! TF.FileFunction,Plated,1,2,PTH
FMAT,2
METRIC
; #@! TA.AperFunction,Plated,PTH,ComponentDrill
T1C0.900
; #@! TA.AperFunction,Plated,PTH,ComponentDrill
T2C1.092
; #@! TA.AperFunction,Plated,PTH,ComponentDrill
T3C1.499
%
G90
G05
T2
X102.18Y19.184
X102.402Y21.714
X102.623Y24.244
X102.844Y26.775
X103.066Y29.305
X103.287Y31.835
X103.509Y34.366
X103.73Y36.896
X103.951Y39.426
X104.173Y41.957
X104.394Y44.487
X104.615Y47.017
X117.362Y17.855
X117.584Y20.386
X117.805Y22.916
X118.026Y25.446
X118.248Y27.977
X118.469Y30.507
X118.691Y33.037
X118.912Y35.568
X119.133Y38.098
X119.355Y40.628
X119.576Y43.159
X119.797Y45.689
T3
X1.777Y28.823
X3.662Y26.698
X6.177Y12.402
X8.062Y10.277
X8.568Y28.013
X9.138Y30.795
X10.577Y-4.019
X12.461Y-6.144
X12.968Y11.592
X13.538Y14.374
X17.368Y-4.829
X17.938Y-2.047
X23.864Y56.404
X25.346Y39.469
X25.351Y53.985
X26.828Y22.534
X26.832Y37.049
X28.314Y20.114
X30.411Y54.427
X31.455Y57.068
X31.893Y37.492
X32.937Y40.133
X33.375Y20.557
X34.419Y23.198
X46.707Y64.222
X46.707Y47.222
X46.707Y30.222
X47.977Y61.682
X47.977Y44.682
X47.977Y27.682
X53.057Y61.682
X53.057Y44.682
X53.057Y27.682
X54.327Y64.222
X54.327Y47.222
X54.327Y30.222
X66.782Y24.832
X67.826Y22.191
X68.264Y41.768
X69.307Y39.127
X69.745Y58.703
X70.789Y56.062
X72.886Y21.748
X74.368Y38.684
X74.373Y24.168
X75.85Y55.619
X75.855Y41.103
X77.336Y58.039
X83.063Y-12.489
X83.388Y-15.311
X86.459Y20.267
X87.503Y17.626
X87.941Y37.202
X88.162Y-17.048
X88.984Y34.561
X89.422Y54.137
X90.224Y-15.096
X90.466Y51.496
X92.563Y17.183
X94.045Y34.118
X94.05Y19.602
X95.527Y51.053
X95.532Y36.538
X97.013Y53.473
X100.525Y-22.813
X100.695Y-19.978
X104.924Y-25.353
X107.294Y-23.788
T1
G00X123.261Y35.614
M15
G01X123.209Y35.017
M16
G05
G00X123.357Y36.71
M15
G01X123.305Y36.112
M16
G05
G00X123.706Y40.695
M15
G01X123.654Y40.097
M16
G05
G00X123.967Y43.684
M15
G01X123.915Y43.086
M16
G05
G00X127.844Y35.213
M15
G01X127.792Y34.616
M16
G05
G00X127.94Y36.309
M15
G01X127.887Y35.712
M16
G05
G00X128.288Y40.294
M15
G01X128.236Y39.696
M16
G05
G00X128.55Y43.283
M15
G01X128.497Y42.685
M16
G05
T0
M30
