%TF.GenerationSoftware,KiCad,Pcbnew,(6.0.2-0)*%
%TF.CreationDate,2022-05-11T10:09:57-07:00*%
%TF.ProjectId,Untitled,556e7469-746c-4656-942e-6b696361645f,v1.0.0*%
%TF.SameCoordinates,Original*%
%TF.FileFunction,Profile,NP*%
%FSLAX46Y46*%
G04 Gerber Fmt 4.6, Leading zero omitted, Abs format (unit mm)*
G04 Created by KiCad (PCBNEW (6.0.2-0)) date 2022-05-11 10:09:57*
%MOMM*%
%LPD*%
G01*
G04 APERTURE LIST*
%TA.AperFunction,Profile*%
%ADD10C,0.150000*%
%TD*%
G04 APERTURE END LIST*
D10*
X122789743Y24656852D02*
G75*
G03*
X119539691Y21929736I-261468J-2988584D01*
G01*
X124782132Y24482541D02*
X122789743Y24656852D01*
X59517133Y78761886D02*
X41517133Y78761886D01*
X-6998932Y41523956D02*
X15926514Y47666810D01*
X60517133Y77761886D02*
G75*
G03*
X59517133Y78761886I-999999J1D01*
G01*
X-3306115Y23878472D02*
X6787827Y-13792636D01*
X91887201Y-25816676D02*
G75*
G03*
X91413261Y-25595674I-1500016J-2598108D01*
G01*
X41517133Y78761886D02*
G75*
G03*
X40517133Y77761886I-1J-999999D01*
G01*
X84682736Y70987733D02*
G75*
G03*
X83773698Y72071083I-996194J87156D01*
G01*
X108424963Y-34210057D02*
X119424963Y-15157498D01*
X37778601Y72217244D02*
G75*
G03*
X40517133Y75205829I-261467J2988583D01*
G01*
X17426753Y70436688D02*
X37778601Y72217244D01*
X8012573Y-14499741D02*
X91413262Y-25595674D01*
X124782132Y24482541D02*
G75*
G03*
X128032183Y27209658I261467J2988584D01*
G01*
X128032183Y27209658D02*
X129727206Y46590000D01*
X107058937Y-34576083D02*
G75*
G03*
X108424963Y-34210057I500001J866024D01*
G01*
X84610107Y70157571D02*
G75*
G03*
X85519145Y69074221I996194J-87156D01*
G01*
X85519146Y69074220D02*
X103450650Y67505417D01*
X91887201Y-25816676D02*
X107058938Y-34576082D01*
X127599999Y47395019D02*
G75*
G03*
X127599999Y47395019I-999999J0D01*
G01*
X60517133Y76854763D02*
X60517133Y77761886D01*
X40517133Y77761886D02*
X40517133Y75205828D01*
X-7706039Y40299211D02*
X-3306115Y23878472D01*
X129727206Y46590000D02*
G75*
G03*
X127000089Y49799508I-2987131J225206D01*
G01*
X17426753Y70436688D02*
G75*
G03*
X16517713Y69353338I87156J-996196D01*
G01*
X119424963Y-15157498D02*
X119539691Y21929735D01*
X15926514Y47666810D02*
G75*
G03*
X18138642Y50826055I-776455J2897777D01*
G01*
X16517714Y69353337D02*
X18138641Y50826055D01*
X103110000Y51840000D02*
X127000089Y49799508D01*
X84610107Y70157571D02*
X84682736Y70987733D01*
X-6998932Y41523956D02*
G75*
G03*
X-7706039Y40299211I258820J-965927D01*
G01*
X60517133Y76854763D02*
G75*
G03*
X63255666Y73866179I2999999J-1D01*
G01*
X104359689Y66422066D02*
G75*
G03*
X103450650Y67505417I-996194J87157D01*
G01*
X63255666Y73866178D02*
X83773697Y72071083D01*
X6787828Y-13792636D02*
G75*
G03*
X8012573Y-14499741I965926J258822D01*
G01*
X103110000Y51840000D02*
X104359689Y66422066D01*
M02*
