%FSLAX45Y45*%
G04 Gerber Fmt 4.5, Leading zero omitted, Abs format (unit mm)*
G04 Created by KiCad (PCBNEW (6.0.2-0)) date 2022-05-11 10:09:49*
%MOMM*%
%LPD*%
G01*
G04 APERTURE LIST*
%TA.AperFunction,Profile*%
%ADD10C,0.150000*%
%TD*%
%ADD11C,0.200000*%
%ADD12C,0.090000*%
%ADD13C,0.109220*%
%ADD14C,0.149860*%
G04 APERTURE END LIST*
D10*
X12278974Y2465685D02*
G75*
G03*
X11953969Y2192974I-26147J-298858D01*
G01*
X12478213Y2448254D02*
X12278974Y2465685D01*
X5951713Y7876189D02*
X4151713Y7876189D01*
X-699893Y4152396D02*
X1592651Y4766681D01*
X6051713Y7776189D02*
G75*
G03*
X5951713Y7876189I-100000J0D01*
G01*
X-330612Y2387847D02*
X678783Y-1379264D01*
X9188720Y-2581668D02*
G75*
G03*
X9141326Y-2559567I-150002J-259811D01*
G01*
X4151713Y7876189D02*
G75*
G03*
X4051713Y7776189I0J-100000D01*
G01*
X8468274Y7098773D02*
G75*
G03*
X8377370Y7207108I-99619J8716D01*
G01*
X10842496Y-3421006D02*
X11942496Y-1515750D01*
X3777860Y7221724D02*
G75*
G03*
X4051713Y7520583I-26147J298858D01*
G01*
X1742675Y7043669D02*
X3777860Y7221724D01*
X801257Y-1449974D02*
X9141326Y-2559567D01*
X12478213Y2448254D02*
G75*
G03*
X12803218Y2720966I26147J298858D01*
G01*
X12803218Y2720966D02*
X12972721Y4659000D01*
X10705894Y-3457608D02*
G75*
G03*
X10842496Y-3421006I50000J86602D01*
G01*
X8461011Y7015757D02*
G75*
G03*
X8551915Y6907422I99619J-8716D01*
G01*
X8551915Y6907422D02*
X10345065Y6750542D01*
X9188720Y-2581668D02*
X10705894Y-3457608D01*
X12760000Y4739502D02*
G75*
G03*
X12760000Y4739502I-100000J0D01*
G01*
X6051713Y7685476D02*
X6051713Y7776189D01*
X4051713Y7776189D02*
X4051713Y7520583D01*
X-770604Y4029921D02*
X-330612Y2387847D01*
X12972721Y4659000D02*
G75*
G03*
X12700009Y4979951I-298713J22521D01*
G01*
X1742675Y7043669D02*
G75*
G03*
X1651771Y6935334I8716J-99620D01*
G01*
X11942496Y-1515750D02*
X11953969Y2192974D01*
X1592651Y4766681D02*
G75*
G03*
X1813864Y5082606I-77646J289778D01*
G01*
X1651771Y6935334D02*
X1813864Y5082606D01*
X10311000Y5184000D02*
X12700009Y4979951D01*
X8461011Y7015757D02*
X8468274Y7098773D01*
X-699893Y4152396D02*
G75*
G03*
X-770604Y4029921I25882J-96593D01*
G01*
X6051713Y7685476D02*
G75*
G03*
X6325567Y7386618I300000J0D01*
G01*
X10435969Y6642207D02*
G75*
G03*
X10345065Y6750542I-99619J8716D01*
G01*
X6325567Y7386618D02*
X8377370Y7207108D01*
X678783Y-1379264D02*
G75*
G03*
X801257Y-1449974I96593J25882D01*
G01*
X10311000Y5184000D02*
X10435969Y6642207D01*
D11*
D12*
X12250264Y3583392D02*
X12340264Y3493392D01*
X12340264Y3583392D02*
X12250264Y3493392D01*
D11*
X12263012Y3571328D02*
X12257783Y3511556D01*
X12332746Y3565227D02*
X12327516Y3505455D01*
X12257783Y3511556D02*
G75*
G03*
X12327516Y3505455I34867J-3051D01*
G01*
X12332746Y3565227D02*
G75*
G03*
X12263012Y3571328I-34867J3051D01*
G01*
D12*
X12259852Y3692973D02*
X12349852Y3602973D01*
X12349852Y3692973D02*
X12259852Y3602973D01*
D11*
X12272599Y3680909D02*
X12267370Y3621138D01*
X12342333Y3674808D02*
X12337104Y3615037D01*
X12267370Y3621138D02*
G75*
G03*
X12337104Y3615037I34867J-3051D01*
G01*
X12342333Y3674808D02*
G75*
G03*
X12272599Y3680909I-34867J3051D01*
G01*
D12*
X12294714Y4091451D02*
X12384714Y4001451D01*
X12384714Y4091451D02*
X12294714Y4001451D01*
D11*
X12307462Y4079387D02*
X12302232Y4019615D01*
X12377195Y4073286D02*
X12371966Y4013515D01*
X12302232Y4019616D02*
G75*
G03*
X12371966Y4013515I34867J-3051D01*
G01*
X12377195Y4073286D02*
G75*
G03*
X12307462Y4079387I-34867J3051D01*
G01*
D12*
X12320861Y4390309D02*
X12410861Y4300309D01*
X12410861Y4390309D02*
X12320861Y4300309D01*
D11*
X12333608Y4378246D02*
X12328379Y4318474D01*
X12403342Y4372145D02*
X12398113Y4312373D01*
X12328379Y4318474D02*
G75*
G03*
X12398113Y4312373I34867J-3051D01*
G01*
X12403342Y4372145D02*
G75*
G03*
X12333608Y4378246I-34867J3051D01*
G01*
D12*
X12708514Y3543300D02*
X12798514Y3453300D01*
X12798514Y3543300D02*
X12708514Y3453300D01*
D11*
X12721262Y3531236D02*
X12716032Y3471465D01*
X12790995Y3525135D02*
X12785766Y3465364D01*
X12716032Y3471465D02*
G75*
G03*
X12785766Y3465364I34867J-3051D01*
G01*
X12790995Y3525135D02*
G75*
G03*
X12721262Y3531236I-34867J3051D01*
G01*
D12*
X12718101Y3652881D02*
X12808101Y3562881D01*
X12808101Y3652881D02*
X12718101Y3562881D01*
D11*
X12730849Y3640818D02*
X12725620Y3581046D01*
X12800583Y3634717D02*
X12795353Y3574945D01*
X12725620Y3581046D02*
G75*
G03*
X12795353Y3574945I34867J-3051D01*
G01*
X12800583Y3634717D02*
G75*
G03*
X12730849Y3640818I-34867J3051D01*
G01*
D12*
X12752963Y4051359D02*
X12842963Y3961359D01*
X12842963Y4051359D02*
X12752963Y3961359D01*
D11*
X12765711Y4039296D02*
X12760482Y3979524D01*
X12835445Y4033195D02*
X12830215Y3973423D01*
X12760482Y3979524D02*
G75*
G03*
X12830215Y3973423I34867J-3051D01*
G01*
X12835445Y4033195D02*
G75*
G03*
X12765711Y4039296I-34867J3051D01*
G01*
D12*
X12779110Y4350218D02*
X12869110Y4260218D01*
X12869110Y4350218D02*
X12779110Y4260218D01*
D11*
X12791858Y4338154D02*
X12786629Y4278382D01*
X12861592Y4332053D02*
X12856362Y4272281D01*
X12786629Y4278382D02*
G75*
G03*
X12856362Y4272281I34867J-3051D01*
G01*
X12861592Y4332053D02*
G75*
G03*
X12791858Y4338154I-34867J3051D01*
G01*
D13*
X10272644Y1918359D02*
G75*
G03*
X10272644Y1918359I-54610J0D01*
G01*
X10294782Y2171393D02*
G75*
G03*
X10294782Y2171393I-54610J0D01*
G01*
X10316919Y2424426D02*
G75*
G03*
X10316919Y2424426I-54610J0D01*
G01*
X10339057Y2677460D02*
G75*
G03*
X10339057Y2677460I-54610J0D01*
G01*
X10361195Y2930493D02*
G75*
G03*
X10361195Y2930493I-54610J0D01*
G01*
X10383332Y3183527D02*
G75*
G03*
X10383332Y3183527I-54610J0D01*
G01*
X10405470Y3436560D02*
G75*
G03*
X10405470Y3436560I-54610J0D01*
G01*
X10427607Y3689594D02*
G75*
G03*
X10427607Y3689594I-54610J0D01*
G01*
X10449745Y3942627D02*
G75*
G03*
X10449745Y3942627I-54610J0D01*
G01*
X10471882Y4195661D02*
G75*
G03*
X10471882Y4195661I-54610J0D01*
G01*
X10494020Y4448694D02*
G75*
G03*
X10494020Y4448694I-54610J0D01*
G01*
X10516157Y4701728D02*
G75*
G03*
X10516157Y4701728I-54610J0D01*
G01*
X11790845Y1785534D02*
G75*
G03*
X11790845Y1785534I-54610J0D01*
G01*
X11812982Y2038568D02*
G75*
G03*
X11812982Y2038568I-54610J0D01*
G01*
X11835120Y2291601D02*
G75*
G03*
X11835120Y2291601I-54610J0D01*
G01*
X11857258Y2544635D02*
G75*
G03*
X11857258Y2544635I-54610J0D01*
G01*
X11879395Y2797668D02*
G75*
G03*
X11879395Y2797668I-54610J0D01*
G01*
X11901533Y3050701D02*
G75*
G03*
X11901533Y3050701I-54610J0D01*
G01*
X11923670Y3303735D02*
G75*
G03*
X11923670Y3303735I-54610J0D01*
G01*
X11945808Y3556768D02*
G75*
G03*
X11945808Y3556768I-54610J0D01*
G01*
X11967945Y3809802D02*
G75*
G03*
X11967945Y3809802I-54610J0D01*
G01*
X11990083Y4062835D02*
G75*
G03*
X11990083Y4062835I-54610J0D01*
G01*
X12012221Y4315869D02*
G75*
G03*
X12012221Y4315869I-54610J0D01*
G01*
X12034358Y4568902D02*
G75*
G03*
X12034358Y4568902I-54610J0D01*
G01*
D14*
X177745Y2957196D02*
X177745Y2807336D01*
X102815Y2882266D02*
X252675Y2882266D01*
X366158Y2744721D02*
X366158Y2594861D01*
X291228Y2669791D02*
X441088Y2669791D01*
X617738Y1315123D02*
X617738Y1165263D01*
X542808Y1240193D02*
X692668Y1240193D01*
X806150Y1102647D02*
X806150Y952787D01*
X731220Y1027717D02*
X881080Y1027717D01*
X856848Y2876201D02*
X856848Y2726341D01*
X781918Y2801271D02*
X931778Y2801271D01*
X913781Y3154417D02*
X913781Y3004557D01*
X838851Y3079487D02*
X988711Y3079487D01*
X1057730Y-326951D02*
X1057730Y-476811D01*
X982800Y-401881D02*
X1132660Y-401881D01*
X1246143Y-539427D02*
X1246143Y-689287D01*
X1171213Y-614357D02*
X1321073Y-614357D01*
X1296841Y1234128D02*
X1296841Y1084268D01*
X1221911Y1159198D02*
X1371771Y1159198D01*
X1353773Y1512343D02*
X1353773Y1362483D01*
X1278843Y1437413D02*
X1428703Y1437413D01*
X1736833Y-407946D02*
X1736833Y-557806D01*
X1661903Y-482876D02*
X1811763Y-482876D01*
X1793765Y-129731D02*
X1793765Y-279591D01*
X1718835Y-204661D02*
X1868695Y-204661D01*
X2386425Y5715365D02*
X2386425Y5565506D01*
X2311495Y5640435D02*
X2461355Y5640435D01*
X2534590Y4021834D02*
X2534590Y3871974D01*
X2459660Y3946904D02*
X2609520Y3946904D01*
X2535079Y5473401D02*
X2535079Y5323541D01*
X2460149Y5398471D02*
X2610009Y5398471D01*
X2682754Y2328304D02*
X2682754Y2178444D01*
X2607824Y2253374D02*
X2757684Y2253374D01*
X2683244Y3779870D02*
X2683244Y3630010D01*
X2608314Y3704940D02*
X2758174Y3704940D01*
X2831409Y2086339D02*
X2831409Y1936479D01*
X2756479Y2011409D02*
X2906339Y2011409D01*
X3041146Y5517676D02*
X3041146Y5367816D01*
X2966216Y5442746D02*
X3116076Y5442746D01*
X3145525Y5781778D02*
X3145525Y5631918D01*
X3070595Y5706848D02*
X3220455Y5706848D01*
X3189311Y3824145D02*
X3189311Y3674285D01*
X3114381Y3749215D02*
X3264241Y3749215D01*
X3293690Y4088247D02*
X3293690Y3938387D01*
X3218760Y4013317D02*
X3368620Y4013317D01*
X3337475Y2130614D02*
X3337475Y1980754D01*
X3262545Y2055684D02*
X3412405Y2055684D01*
X3441855Y2394716D02*
X3441855Y2244856D01*
X3366925Y2319786D02*
X3516785Y2319786D01*
X4670713Y6497119D02*
X4670713Y6347259D01*
X4595783Y6422189D02*
X4745643Y6422189D01*
X4670713Y4797119D02*
X4670713Y4647259D01*
X4595783Y4722189D02*
X4745643Y4722189D01*
X4670713Y3097119D02*
X4670713Y2947259D01*
X4595783Y3022189D02*
X4745643Y3022189D01*
X4797713Y6243119D02*
X4797713Y6093259D01*
X4722783Y6168189D02*
X4872643Y6168189D01*
X4797713Y4543119D02*
X4797713Y4393259D01*
X4722783Y4468189D02*
X4872643Y4468189D01*
X4797713Y2843119D02*
X4797713Y2693259D01*
X4722783Y2768189D02*
X4872643Y2768189D01*
X5305713Y6243119D02*
X5305713Y6093259D01*
X5230783Y6168189D02*
X5380643Y6168189D01*
X5305713Y4543119D02*
X5305713Y4393259D01*
X5230783Y4468189D02*
X5380643Y4468189D01*
X5305713Y2843119D02*
X5305713Y2693259D01*
X5230783Y2768189D02*
X5380643Y2768189D01*
X5432713Y6497119D02*
X5432713Y6347259D01*
X5357783Y6422189D02*
X5507643Y6422189D01*
X5432713Y4797119D02*
X5432713Y4647259D01*
X5357783Y4722189D02*
X5507643Y4722189D01*
X5432713Y3097119D02*
X5432713Y2947259D01*
X5357783Y3022189D02*
X5507643Y3022189D01*
X6678190Y2558156D02*
X6678190Y2408296D01*
X6603260Y2483226D02*
X6753120Y2483226D01*
X6782569Y2294054D02*
X6782569Y2144194D01*
X6707639Y2219124D02*
X6857499Y2219124D01*
X6826355Y4251687D02*
X6826355Y4101827D01*
X6751425Y4176757D02*
X6901285Y4176757D01*
X6930734Y3987585D02*
X6930734Y3837725D01*
X6855804Y3912655D02*
X7005664Y3912655D01*
X6974520Y5945218D02*
X6974520Y5795358D01*
X6899590Y5870288D02*
X7049450Y5870288D01*
X7078899Y5681116D02*
X7078899Y5531256D01*
X7003969Y5606186D02*
X7153829Y5606186D01*
X7288636Y2249778D02*
X7288636Y2099918D01*
X7213706Y2174848D02*
X7363566Y2174848D01*
X7436801Y3943309D02*
X7436801Y3793449D01*
X7361871Y3868379D02*
X7511731Y3868379D01*
X7437291Y2491743D02*
X7437291Y2341883D01*
X7362361Y2416813D02*
X7512221Y2416813D01*
X7584966Y5636840D02*
X7584966Y5486980D01*
X7510036Y5561910D02*
X7659896Y5561910D01*
X7585455Y4185274D02*
X7585455Y4035414D01*
X7510525Y4110344D02*
X7660385Y4110344D01*
X7733620Y5878805D02*
X7733620Y5728945D01*
X7658690Y5803875D02*
X7808550Y5803875D01*
X8306348Y-1174018D02*
X8306348Y-1323878D01*
X8231418Y-1248948D02*
X8381278Y-1248948D01*
X8338816Y-1456136D02*
X8338816Y-1605996D01*
X8263886Y-1531066D02*
X8413746Y-1531066D01*
X8645886Y2101589D02*
X8645886Y1951729D01*
X8570956Y2026659D02*
X8720816Y2026659D01*
X8750265Y1837487D02*
X8750265Y1687627D01*
X8675335Y1762557D02*
X8825195Y1762557D01*
X8794050Y3795120D02*
X8794050Y3645260D01*
X8719120Y3720190D02*
X8868980Y3720190D01*
X8816180Y-1629883D02*
X8816180Y-1779743D01*
X8741250Y-1704813D02*
X8891110Y-1704813D01*
X8898430Y3531018D02*
X8898430Y3381158D01*
X8823500Y3456088D02*
X8973360Y3456088D01*
X8942215Y5488651D02*
X8942215Y5338791D01*
X8867285Y5413721D02*
X9017145Y5413721D01*
X9022394Y-1434637D02*
X9022394Y-1584497D01*
X8947464Y-1509567D02*
X9097324Y-1509567D01*
X9046594Y5224549D02*
X9046594Y5074689D01*
X8971664Y5149619D02*
X9121524Y5149619D01*
X9256332Y1793212D02*
X9256332Y1643352D01*
X9181402Y1718282D02*
X9331262Y1718282D01*
X9404496Y3486743D02*
X9404496Y3336883D01*
X9329566Y3411813D02*
X9479426Y3411813D01*
X9404986Y2035176D02*
X9404986Y1885316D01*
X9330056Y1960246D02*
X9479916Y1960246D01*
X9552661Y5180274D02*
X9552661Y5030414D01*
X9477731Y5105344D02*
X9627591Y5105344D01*
X9553151Y3728707D02*
X9553151Y3578847D01*
X9478221Y3653777D02*
X9628081Y3653777D01*
X9701316Y5422238D02*
X9701316Y5272378D01*
X9626386Y5347308D02*
X9776246Y5347308D01*
X10052500Y-2206389D02*
X10052500Y-2356249D01*
X9977570Y-2281319D02*
X10127430Y-2281319D01*
X10069515Y-1922918D02*
X10069515Y-2072778D01*
X9994585Y-1997848D02*
X10144445Y-1997848D01*
X10492441Y-2460389D02*
X10492441Y-2610249D01*
X10417511Y-2535319D02*
X10567371Y-2535319D01*
X10729427Y-2303918D02*
X10729427Y-2453778D01*
X10654497Y-2378848D02*
X10804357Y-2378848D01*
D11*
X-523892Y-3788982D02*
X-523892Y-3588982D01*
X-476273Y-3588982D01*
X-447702Y-3598506D01*
X-428654Y-3617553D01*
X-419130Y-3636601D01*
X-409606Y-3674696D01*
X-409606Y-3703268D01*
X-419130Y-3741363D01*
X-428654Y-3760410D01*
X-447702Y-3779458D01*
X-476273Y-3788982D01*
X-523892Y-3788982D01*
X-323892Y-3788982D02*
X-323892Y-3655649D01*
X-323892Y-3693744D02*
X-314368Y-3674696D01*
X-304845Y-3665172D01*
X-285797Y-3655649D01*
X-266749Y-3655649D01*
X-200083Y-3788982D02*
X-200083Y-3655649D01*
X-200083Y-3588982D02*
X-209606Y-3598506D01*
X-200083Y-3608030D01*
X-190559Y-3598506D01*
X-200083Y-3588982D01*
X-200083Y-3608030D01*
X-76273Y-3788982D02*
X-95321Y-3779458D01*
X-104845Y-3760410D01*
X-104845Y-3588982D01*
X28489Y-3788982D02*
X9441Y-3779458D01*
X-83Y-3760410D01*
X-83Y-3588982D01*
X257060Y-3788982D02*
X257060Y-3588982D01*
X323727Y-3731839D01*
X390393Y-3588982D01*
X390393Y-3788982D01*
X571346Y-3788982D02*
X571346Y-3684220D01*
X561822Y-3665172D01*
X542774Y-3655649D01*
X504679Y-3655649D01*
X485631Y-3665172D01*
X571346Y-3779458D02*
X552298Y-3788982D01*
X504679Y-3788982D01*
X485631Y-3779458D01*
X476108Y-3760410D01*
X476108Y-3741363D01*
X485631Y-3722315D01*
X504679Y-3712791D01*
X552298Y-3712791D01*
X571346Y-3703268D01*
X666584Y-3655649D02*
X666584Y-3855649D01*
X666584Y-3665172D02*
X685632Y-3655649D01*
X723727Y-3655649D01*
X742774Y-3665172D01*
X752298Y-3674696D01*
X761822Y-3693744D01*
X761822Y-3750887D01*
X752298Y-3769934D01*
X742774Y-3779458D01*
X723727Y-3788982D01*
X685632Y-3788982D01*
X666584Y-3779458D01*
X847536Y-3769934D02*
X857060Y-3779458D01*
X847536Y-3788982D01*
X838012Y-3779458D01*
X847536Y-3769934D01*
X847536Y-3788982D01*
X847536Y-3665172D02*
X857060Y-3674696D01*
X847536Y-3684220D01*
X838012Y-3674696D01*
X847536Y-3665172D01*
X847536Y-3684220D01*
D12*
X-871511Y-4073506D02*
X-781511Y-4163506D01*
X-781511Y-4073506D02*
X-871511Y-4163506D01*
D11*
X-485797Y-4008982D02*
X-466749Y-4008982D01*
X-447702Y-4018506D01*
X-438178Y-4028030D01*
X-428654Y-4047077D01*
X-419130Y-4085172D01*
X-419130Y-4132791D01*
X-428654Y-4170887D01*
X-438178Y-4189934D01*
X-447702Y-4199458D01*
X-466749Y-4208982D01*
X-485797Y-4208982D01*
X-504845Y-4199458D01*
X-514368Y-4189934D01*
X-523892Y-4170887D01*
X-533416Y-4132791D01*
X-533416Y-4085172D01*
X-523892Y-4047077D01*
X-514368Y-4028030D01*
X-504845Y-4018506D01*
X-485797Y-4008982D01*
X-333416Y-4189934D02*
X-323892Y-4199458D01*
X-333416Y-4208982D01*
X-342940Y-4199458D01*
X-333416Y-4189934D01*
X-333416Y-4208982D01*
X-228654Y-4208982D02*
X-190559Y-4208982D01*
X-171511Y-4199458D01*
X-161987Y-4189934D01*
X-142940Y-4161363D01*
X-133416Y-4123268D01*
X-133416Y-4047077D01*
X-142940Y-4028030D01*
X-152464Y-4018506D01*
X-171511Y-4008982D01*
X-209606Y-4008982D01*
X-228654Y-4018506D01*
X-238178Y-4028030D01*
X-247702Y-4047077D01*
X-247702Y-4094696D01*
X-238178Y-4113744D01*
X-228654Y-4123268D01*
X-209606Y-4132791D01*
X-171511Y-4132791D01*
X-152464Y-4123268D01*
X-142940Y-4113744D01*
X-133416Y-4094696D01*
X-9607Y-4008982D02*
X9441Y-4008982D01*
X28489Y-4018506D01*
X38013Y-4028030D01*
X47536Y-4047077D01*
X57060Y-4085172D01*
X57060Y-4132791D01*
X47536Y-4170887D01*
X38013Y-4189934D01*
X28489Y-4199458D01*
X9441Y-4208982D01*
X-9607Y-4208982D01*
X-28654Y-4199458D01*
X-38178Y-4189934D01*
X-47702Y-4170887D01*
X-57225Y-4132791D01*
X-57225Y-4085172D01*
X-47702Y-4047077D01*
X-38178Y-4028030D01*
X-28654Y-4018506D01*
X-9607Y-4008982D01*
X180870Y-4008982D02*
X199917Y-4008982D01*
X218965Y-4018506D01*
X228489Y-4028030D01*
X238012Y-4047077D01*
X247536Y-4085172D01*
X247536Y-4132791D01*
X238012Y-4170887D01*
X228489Y-4189934D01*
X218965Y-4199458D01*
X199917Y-4208982D01*
X180870Y-4208982D01*
X161822Y-4199458D01*
X152298Y-4189934D01*
X142774Y-4170887D01*
X133251Y-4132791D01*
X133251Y-4085172D01*
X142774Y-4047077D01*
X152298Y-4028030D01*
X161822Y-4018506D01*
X180870Y-4008982D01*
X333251Y-4208982D02*
X333251Y-4075649D01*
X333251Y-4094696D02*
X342774Y-4085172D01*
X361822Y-4075649D01*
X390393Y-4075649D01*
X409441Y-4085172D01*
X418965Y-4104220D01*
X418965Y-4208982D01*
X418965Y-4104220D02*
X428489Y-4085172D01*
X447536Y-4075649D01*
X476108Y-4075649D01*
X495155Y-4085172D01*
X504679Y-4104220D01*
X504679Y-4208982D01*
X599917Y-4208982D02*
X599917Y-4075649D01*
X599917Y-4094696D02*
X609441Y-4085172D01*
X628489Y-4075649D01*
X657060Y-4075649D01*
X676108Y-4085172D01*
X685632Y-4104220D01*
X685632Y-4208982D01*
X685632Y-4104220D02*
X695155Y-4085172D01*
X714203Y-4075649D01*
X742774Y-4075649D01*
X761822Y-4085172D01*
X771346Y-4104220D01*
X771346Y-4208982D01*
X1161822Y-3999458D02*
X990393Y-4256601D01*
X1418965Y-4008982D02*
X1438012Y-4008982D01*
X1457060Y-4018506D01*
X1466584Y-4028030D01*
X1476108Y-4047077D01*
X1485631Y-4085172D01*
X1485631Y-4132791D01*
X1476108Y-4170887D01*
X1466584Y-4189934D01*
X1457060Y-4199458D01*
X1438012Y-4208982D01*
X1418965Y-4208982D01*
X1399917Y-4199458D01*
X1390393Y-4189934D01*
X1380870Y-4170887D01*
X1371346Y-4132791D01*
X1371346Y-4085172D01*
X1380870Y-4047077D01*
X1390393Y-4028030D01*
X1399917Y-4018506D01*
X1418965Y-4008982D01*
X1571346Y-4189934D02*
X1580870Y-4199458D01*
X1571346Y-4208982D01*
X1561822Y-4199458D01*
X1571346Y-4189934D01*
X1571346Y-4208982D01*
X1704679Y-4008982D02*
X1723727Y-4008982D01*
X1742774Y-4018506D01*
X1752298Y-4028030D01*
X1761822Y-4047077D01*
X1771346Y-4085172D01*
X1771346Y-4132791D01*
X1761822Y-4170887D01*
X1752298Y-4189934D01*
X1742774Y-4199458D01*
X1723727Y-4208982D01*
X1704679Y-4208982D01*
X1685631Y-4199458D01*
X1676108Y-4189934D01*
X1666584Y-4170887D01*
X1657060Y-4132791D01*
X1657060Y-4085172D01*
X1666584Y-4047077D01*
X1676108Y-4028030D01*
X1685631Y-4018506D01*
X1704679Y-4008982D01*
X1838012Y-4008982D02*
X1961822Y-4008982D01*
X1895155Y-4085172D01*
X1923727Y-4085172D01*
X1942774Y-4094696D01*
X1952298Y-4104220D01*
X1961822Y-4123268D01*
X1961822Y-4170887D01*
X1952298Y-4189934D01*
X1942774Y-4199458D01*
X1923727Y-4208982D01*
X1866584Y-4208982D01*
X1847536Y-4199458D01*
X1838012Y-4189934D01*
X2142774Y-4008982D02*
X2047536Y-4008982D01*
X2038012Y-4104220D01*
X2047536Y-4094696D01*
X2066584Y-4085172D01*
X2114203Y-4085172D01*
X2133251Y-4094696D01*
X2142774Y-4104220D01*
X2152298Y-4123268D01*
X2152298Y-4170887D01*
X2142774Y-4189934D01*
X2133251Y-4199458D01*
X2114203Y-4208982D01*
X2066584Y-4208982D01*
X2047536Y-4199458D01*
X2038012Y-4189934D01*
X2323727Y-4075649D02*
X2323727Y-4208982D01*
X2276108Y-3999458D02*
X2228489Y-4142315D01*
X2352298Y-4142315D01*
X2418965Y-4008982D02*
X2418965Y-4047077D01*
X2495155Y-4008982D02*
X2495155Y-4047077D01*
X2790393Y-4285172D02*
X2780870Y-4275649D01*
X2761822Y-4247077D01*
X2752298Y-4228030D01*
X2742774Y-4199458D01*
X2733251Y-4151839D01*
X2733251Y-4113744D01*
X2742774Y-4066125D01*
X2752298Y-4037553D01*
X2761822Y-4018506D01*
X2780870Y-3989934D01*
X2790393Y-3980410D01*
X2904679Y-4008982D02*
X2923727Y-4008982D01*
X2942774Y-4018506D01*
X2952298Y-4028030D01*
X2961822Y-4047077D01*
X2971346Y-4085172D01*
X2971346Y-4132791D01*
X2961822Y-4170887D01*
X2952298Y-4189934D01*
X2942774Y-4199458D01*
X2923727Y-4208982D01*
X2904679Y-4208982D01*
X2885631Y-4199458D01*
X2876108Y-4189934D01*
X2866584Y-4170887D01*
X2857060Y-4132791D01*
X2857060Y-4085172D01*
X2866584Y-4047077D01*
X2876108Y-4028030D01*
X2885631Y-4018506D01*
X2904679Y-4008982D01*
X3209441Y-4208982D02*
X3209441Y-4008982D01*
X3295155Y-4208982D02*
X3295155Y-4104220D01*
X3285631Y-4085172D01*
X3266584Y-4075649D01*
X3238012Y-4075649D01*
X3218965Y-4085172D01*
X3209441Y-4094696D01*
X3418965Y-4208982D02*
X3399917Y-4199458D01*
X3390393Y-4189934D01*
X3380870Y-4170887D01*
X3380870Y-4113744D01*
X3390393Y-4094696D01*
X3399917Y-4085172D01*
X3418965Y-4075649D01*
X3447536Y-4075649D01*
X3466584Y-4085172D01*
X3476108Y-4094696D01*
X3485631Y-4113744D01*
X3485631Y-4170887D01*
X3476108Y-4189934D01*
X3466584Y-4199458D01*
X3447536Y-4208982D01*
X3418965Y-4208982D01*
X3599917Y-4208982D02*
X3580870Y-4199458D01*
X3571346Y-4180410D01*
X3571346Y-4008982D01*
X3752298Y-4199458D02*
X3733251Y-4208982D01*
X3695155Y-4208982D01*
X3676108Y-4199458D01*
X3666584Y-4180410D01*
X3666584Y-4104220D01*
X3676108Y-4085172D01*
X3695155Y-4075649D01*
X3733251Y-4075649D01*
X3752298Y-4085172D01*
X3761822Y-4104220D01*
X3761822Y-4123268D01*
X3666584Y-4142315D01*
X3838012Y-4199458D02*
X3857060Y-4208982D01*
X3895155Y-4208982D01*
X3914203Y-4199458D01*
X3923727Y-4180410D01*
X3923727Y-4170887D01*
X3914203Y-4151839D01*
X3895155Y-4142315D01*
X3866584Y-4142315D01*
X3847536Y-4132791D01*
X3838012Y-4113744D01*
X3838012Y-4104220D01*
X3847536Y-4085172D01*
X3866584Y-4075649D01*
X3895155Y-4075649D01*
X3914203Y-4085172D01*
X4161822Y-4132791D02*
X4314203Y-4132791D01*
X4238013Y-4208982D02*
X4238013Y-4056601D01*
X4590393Y-4094696D02*
X4571346Y-4085172D01*
X4561822Y-4075649D01*
X4552298Y-4056601D01*
X4552298Y-4047077D01*
X4561822Y-4028030D01*
X4571346Y-4018506D01*
X4590393Y-4008982D01*
X4628489Y-4008982D01*
X4647536Y-4018506D01*
X4657060Y-4028030D01*
X4666584Y-4047077D01*
X4666584Y-4056601D01*
X4657060Y-4075649D01*
X4647536Y-4085172D01*
X4628489Y-4094696D01*
X4590393Y-4094696D01*
X4571346Y-4104220D01*
X4561822Y-4113744D01*
X4552298Y-4132791D01*
X4552298Y-4170887D01*
X4561822Y-4189934D01*
X4571346Y-4199458D01*
X4590393Y-4208982D01*
X4628489Y-4208982D01*
X4647536Y-4199458D01*
X4657060Y-4189934D01*
X4666584Y-4170887D01*
X4666584Y-4132791D01*
X4657060Y-4113744D01*
X4647536Y-4104220D01*
X4628489Y-4094696D01*
X4895155Y-4199458D02*
X4914203Y-4208982D01*
X4952298Y-4208982D01*
X4971346Y-4199458D01*
X4980870Y-4180410D01*
X4980870Y-4170887D01*
X4971346Y-4151839D01*
X4952298Y-4142315D01*
X4923727Y-4142315D01*
X4904679Y-4132791D01*
X4895155Y-4113744D01*
X4895155Y-4104220D01*
X4904679Y-4085172D01*
X4923727Y-4075649D01*
X4952298Y-4075649D01*
X4971346Y-4085172D01*
X5095155Y-4208982D02*
X5076108Y-4199458D01*
X5066584Y-4180410D01*
X5066584Y-4008982D01*
X5199917Y-4208982D02*
X5180870Y-4199458D01*
X5171346Y-4189934D01*
X5161822Y-4170887D01*
X5161822Y-4113744D01*
X5171346Y-4094696D01*
X5180870Y-4085172D01*
X5199917Y-4075649D01*
X5228489Y-4075649D01*
X5247536Y-4085172D01*
X5257060Y-4094696D01*
X5266584Y-4113744D01*
X5266584Y-4170887D01*
X5257060Y-4189934D01*
X5247536Y-4199458D01*
X5228489Y-4208982D01*
X5199917Y-4208982D01*
X5323727Y-4075649D02*
X5399917Y-4075649D01*
X5352298Y-4008982D02*
X5352298Y-4180410D01*
X5361822Y-4199458D01*
X5380870Y-4208982D01*
X5399917Y-4208982D01*
X5457060Y-4199458D02*
X5476108Y-4208982D01*
X5514203Y-4208982D01*
X5533251Y-4199458D01*
X5542774Y-4180410D01*
X5542774Y-4170887D01*
X5533251Y-4151839D01*
X5514203Y-4142315D01*
X5485632Y-4142315D01*
X5466584Y-4132791D01*
X5457060Y-4113744D01*
X5457060Y-4104220D01*
X5466584Y-4085172D01*
X5485632Y-4075649D01*
X5514203Y-4075649D01*
X5533251Y-4085172D01*
X5609441Y-4285172D02*
X5618965Y-4275649D01*
X5638012Y-4247077D01*
X5647536Y-4228030D01*
X5657060Y-4199458D01*
X5666584Y-4151839D01*
X5666584Y-4113744D01*
X5657060Y-4066125D01*
X5647536Y-4037553D01*
X5638012Y-4018506D01*
X5618965Y-3989934D01*
X5609441Y-3980410D01*
D13*
X-781511Y-4382506D02*
G75*
G03*
X-781511Y-4382506I-54610J0D01*
G01*
D11*
X-419130Y-4472982D02*
X-533416Y-4472982D01*
X-476273Y-4472982D02*
X-476273Y-4272982D01*
X-495321Y-4301553D01*
X-514368Y-4320601D01*
X-533416Y-4330125D01*
X-333416Y-4453934D02*
X-323892Y-4463458D01*
X-333416Y-4472982D01*
X-342940Y-4463458D01*
X-333416Y-4453934D01*
X-333416Y-4472982D01*
X-200083Y-4272982D02*
X-181035Y-4272982D01*
X-161987Y-4282506D01*
X-152464Y-4292030D01*
X-142940Y-4311077D01*
X-133416Y-4349172D01*
X-133416Y-4396792D01*
X-142940Y-4434887D01*
X-152464Y-4453934D01*
X-161987Y-4463458D01*
X-181035Y-4472982D01*
X-200083Y-4472982D01*
X-219130Y-4463458D01*
X-228654Y-4453934D01*
X-238178Y-4434887D01*
X-247702Y-4396792D01*
X-247702Y-4349172D01*
X-238178Y-4311077D01*
X-228654Y-4292030D01*
X-219130Y-4282506D01*
X-200083Y-4272982D01*
X-38178Y-4472982D02*
X-83Y-4472982D01*
X18965Y-4463458D01*
X28489Y-4453934D01*
X47536Y-4425363D01*
X57060Y-4387268D01*
X57060Y-4311077D01*
X47536Y-4292030D01*
X38013Y-4282506D01*
X18965Y-4272982D01*
X-19130Y-4272982D01*
X-38178Y-4282506D01*
X-47702Y-4292030D01*
X-57225Y-4311077D01*
X-57225Y-4358696D01*
X-47702Y-4377744D01*
X-38178Y-4387268D01*
X-19130Y-4396792D01*
X18965Y-4396792D01*
X38013Y-4387268D01*
X47536Y-4377744D01*
X57060Y-4358696D01*
X133251Y-4292030D02*
X142774Y-4282506D01*
X161822Y-4272982D01*
X209441Y-4272982D01*
X228489Y-4282506D01*
X238012Y-4292030D01*
X247536Y-4311077D01*
X247536Y-4330125D01*
X238012Y-4358696D01*
X123727Y-4472982D01*
X247536Y-4472982D01*
X333251Y-4472982D02*
X333251Y-4339649D01*
X333251Y-4358696D02*
X342774Y-4349172D01*
X361822Y-4339649D01*
X390393Y-4339649D01*
X409441Y-4349172D01*
X418965Y-4368220D01*
X418965Y-4472982D01*
X418965Y-4368220D02*
X428489Y-4349172D01*
X447536Y-4339649D01*
X476108Y-4339649D01*
X495155Y-4349172D01*
X504679Y-4368220D01*
X504679Y-4472982D01*
X599917Y-4472982D02*
X599917Y-4339649D01*
X599917Y-4358696D02*
X609441Y-4349172D01*
X628489Y-4339649D01*
X657060Y-4339649D01*
X676108Y-4349172D01*
X685632Y-4368220D01*
X685632Y-4472982D01*
X685632Y-4368220D02*
X695155Y-4349172D01*
X714203Y-4339649D01*
X742774Y-4339649D01*
X761822Y-4349172D01*
X771346Y-4368220D01*
X771346Y-4472982D01*
X1161822Y-4263458D02*
X990393Y-4520601D01*
X1418965Y-4272982D02*
X1438012Y-4272982D01*
X1457060Y-4282506D01*
X1466584Y-4292030D01*
X1476108Y-4311077D01*
X1485631Y-4349172D01*
X1485631Y-4396792D01*
X1476108Y-4434887D01*
X1466584Y-4453934D01*
X1457060Y-4463458D01*
X1438012Y-4472982D01*
X1418965Y-4472982D01*
X1399917Y-4463458D01*
X1390393Y-4453934D01*
X1380870Y-4434887D01*
X1371346Y-4396792D01*
X1371346Y-4349172D01*
X1380870Y-4311077D01*
X1390393Y-4292030D01*
X1399917Y-4282506D01*
X1418965Y-4272982D01*
X1571346Y-4453934D02*
X1580870Y-4463458D01*
X1571346Y-4472982D01*
X1561822Y-4463458D01*
X1571346Y-4453934D01*
X1571346Y-4472982D01*
X1704679Y-4272982D02*
X1723727Y-4272982D01*
X1742774Y-4282506D01*
X1752298Y-4292030D01*
X1761822Y-4311077D01*
X1771346Y-4349172D01*
X1771346Y-4396792D01*
X1761822Y-4434887D01*
X1752298Y-4453934D01*
X1742774Y-4463458D01*
X1723727Y-4472982D01*
X1704679Y-4472982D01*
X1685631Y-4463458D01*
X1676108Y-4453934D01*
X1666584Y-4434887D01*
X1657060Y-4396792D01*
X1657060Y-4349172D01*
X1666584Y-4311077D01*
X1676108Y-4292030D01*
X1685631Y-4282506D01*
X1704679Y-4272982D01*
X1942774Y-4339649D02*
X1942774Y-4472982D01*
X1895155Y-4263458D02*
X1847536Y-4406315D01*
X1971346Y-4406315D01*
X2028489Y-4272982D02*
X2152298Y-4272982D01*
X2085631Y-4349172D01*
X2114203Y-4349172D01*
X2133251Y-4358696D01*
X2142774Y-4368220D01*
X2152298Y-4387268D01*
X2152298Y-4434887D01*
X2142774Y-4453934D01*
X2133251Y-4463458D01*
X2114203Y-4472982D01*
X2057060Y-4472982D01*
X2038012Y-4463458D01*
X2028489Y-4453934D01*
X2276108Y-4272982D02*
X2295155Y-4272982D01*
X2314203Y-4282506D01*
X2323727Y-4292030D01*
X2333251Y-4311077D01*
X2342774Y-4349172D01*
X2342774Y-4396792D01*
X2333251Y-4434887D01*
X2323727Y-4453934D01*
X2314203Y-4463458D01*
X2295155Y-4472982D01*
X2276108Y-4472982D01*
X2257060Y-4463458D01*
X2247536Y-4453934D01*
X2238013Y-4434887D01*
X2228489Y-4396792D01*
X2228489Y-4349172D01*
X2238013Y-4311077D01*
X2247536Y-4292030D01*
X2257060Y-4282506D01*
X2276108Y-4272982D01*
X2418965Y-4272982D02*
X2418965Y-4311077D01*
X2495155Y-4272982D02*
X2495155Y-4311077D01*
X2790393Y-4549172D02*
X2780870Y-4539649D01*
X2761822Y-4511077D01*
X2752298Y-4492030D01*
X2742774Y-4463458D01*
X2733251Y-4415839D01*
X2733251Y-4377744D01*
X2742774Y-4330125D01*
X2752298Y-4301553D01*
X2761822Y-4282506D01*
X2780870Y-4253934D01*
X2790393Y-4244411D01*
X2857060Y-4292030D02*
X2866584Y-4282506D01*
X2885631Y-4272982D01*
X2933251Y-4272982D01*
X2952298Y-4282506D01*
X2961822Y-4292030D01*
X2971346Y-4311077D01*
X2971346Y-4330125D01*
X2961822Y-4358696D01*
X2847536Y-4472982D01*
X2971346Y-4472982D01*
X3142774Y-4339649D02*
X3142774Y-4472982D01*
X3095155Y-4263458D02*
X3047536Y-4406315D01*
X3171346Y-4406315D01*
X3399917Y-4472982D02*
X3399917Y-4272982D01*
X3485631Y-4472982D02*
X3485631Y-4368220D01*
X3476108Y-4349172D01*
X3457060Y-4339649D01*
X3428489Y-4339649D01*
X3409441Y-4349172D01*
X3399917Y-4358696D01*
X3609441Y-4472982D02*
X3590393Y-4463458D01*
X3580870Y-4453934D01*
X3571346Y-4434887D01*
X3571346Y-4377744D01*
X3580870Y-4358696D01*
X3590393Y-4349172D01*
X3609441Y-4339649D01*
X3638012Y-4339649D01*
X3657060Y-4349172D01*
X3666584Y-4358696D01*
X3676108Y-4377744D01*
X3676108Y-4434887D01*
X3666584Y-4453934D01*
X3657060Y-4463458D01*
X3638012Y-4472982D01*
X3609441Y-4472982D01*
X3790393Y-4472982D02*
X3771346Y-4463458D01*
X3761822Y-4444411D01*
X3761822Y-4272982D01*
X3942774Y-4463458D02*
X3923727Y-4472982D01*
X3885631Y-4472982D01*
X3866584Y-4463458D01*
X3857060Y-4444411D01*
X3857060Y-4368220D01*
X3866584Y-4349172D01*
X3885631Y-4339649D01*
X3923727Y-4339649D01*
X3942774Y-4349172D01*
X3952298Y-4368220D01*
X3952298Y-4387268D01*
X3857060Y-4406315D01*
X4028489Y-4463458D02*
X4047536Y-4472982D01*
X4085631Y-4472982D01*
X4104679Y-4463458D01*
X4114203Y-4444411D01*
X4114203Y-4434887D01*
X4104679Y-4415839D01*
X4085631Y-4406315D01*
X4057060Y-4406315D01*
X4038012Y-4396792D01*
X4028489Y-4377744D01*
X4028489Y-4368220D01*
X4038012Y-4349172D01*
X4057060Y-4339649D01*
X4085631Y-4339649D01*
X4104679Y-4349172D01*
X4180870Y-4549172D02*
X4190393Y-4539649D01*
X4209441Y-4511077D01*
X4218965Y-4492030D01*
X4228489Y-4463458D01*
X4238013Y-4415839D01*
X4238013Y-4377744D01*
X4228489Y-4330125D01*
X4218965Y-4301553D01*
X4209441Y-4282506D01*
X4190393Y-4253934D01*
X4180870Y-4244411D01*
D14*
X-856441Y-4571576D02*
X-856441Y-4721436D01*
X-931371Y-4646506D02*
X-781511Y-4646506D01*
D11*
X-419130Y-4736982D02*
X-533416Y-4736982D01*
X-476273Y-4736982D02*
X-476273Y-4536982D01*
X-495321Y-4565553D01*
X-514368Y-4584601D01*
X-533416Y-4594125D01*
X-333416Y-4717934D02*
X-323892Y-4727458D01*
X-333416Y-4736982D01*
X-342940Y-4727458D01*
X-333416Y-4717934D01*
X-333416Y-4736982D01*
X-152464Y-4603649D02*
X-152464Y-4736982D01*
X-200083Y-4527458D02*
X-247702Y-4670315D01*
X-123892Y-4670315D01*
X-38178Y-4736982D02*
X-83Y-4736982D01*
X18965Y-4727458D01*
X28489Y-4717934D01*
X47536Y-4689363D01*
X57060Y-4651268D01*
X57060Y-4575077D01*
X47536Y-4556030D01*
X38013Y-4546506D01*
X18965Y-4536982D01*
X-19130Y-4536982D01*
X-38178Y-4546506D01*
X-47702Y-4556030D01*
X-57225Y-4575077D01*
X-57225Y-4622696D01*
X-47702Y-4641744D01*
X-38178Y-4651268D01*
X-19130Y-4660792D01*
X18965Y-4660792D01*
X38013Y-4651268D01*
X47536Y-4641744D01*
X57060Y-4622696D01*
X152298Y-4736982D02*
X190393Y-4736982D01*
X209441Y-4727458D01*
X218965Y-4717934D01*
X238012Y-4689363D01*
X247536Y-4651268D01*
X247536Y-4575077D01*
X238012Y-4556030D01*
X228489Y-4546506D01*
X209441Y-4536982D01*
X171346Y-4536982D01*
X152298Y-4546506D01*
X142774Y-4556030D01*
X133251Y-4575077D01*
X133251Y-4622696D01*
X142774Y-4641744D01*
X152298Y-4651268D01*
X171346Y-4660792D01*
X209441Y-4660792D01*
X228489Y-4651268D01*
X238012Y-4641744D01*
X247536Y-4622696D01*
X333251Y-4736982D02*
X333251Y-4603649D01*
X333251Y-4622696D02*
X342774Y-4613172D01*
X361822Y-4603649D01*
X390393Y-4603649D01*
X409441Y-4613172D01*
X418965Y-4632220D01*
X418965Y-4736982D01*
X418965Y-4632220D02*
X428489Y-4613172D01*
X447536Y-4603649D01*
X476108Y-4603649D01*
X495155Y-4613172D01*
X504679Y-4632220D01*
X504679Y-4736982D01*
X599917Y-4736982D02*
X599917Y-4603649D01*
X599917Y-4622696D02*
X609441Y-4613172D01*
X628489Y-4603649D01*
X657060Y-4603649D01*
X676108Y-4613172D01*
X685632Y-4632220D01*
X685632Y-4736982D01*
X685632Y-4632220D02*
X695155Y-4613172D01*
X714203Y-4603649D01*
X742774Y-4603649D01*
X761822Y-4613172D01*
X771346Y-4632220D01*
X771346Y-4736982D01*
X1161822Y-4527458D02*
X990393Y-4784601D01*
X1418965Y-4536982D02*
X1438012Y-4536982D01*
X1457060Y-4546506D01*
X1466584Y-4556030D01*
X1476108Y-4575077D01*
X1485631Y-4613172D01*
X1485631Y-4660792D01*
X1476108Y-4698887D01*
X1466584Y-4717934D01*
X1457060Y-4727458D01*
X1438012Y-4736982D01*
X1418965Y-4736982D01*
X1399917Y-4727458D01*
X1390393Y-4717934D01*
X1380870Y-4698887D01*
X1371346Y-4660792D01*
X1371346Y-4613172D01*
X1380870Y-4575077D01*
X1390393Y-4556030D01*
X1399917Y-4546506D01*
X1418965Y-4536982D01*
X1571346Y-4717934D02*
X1580870Y-4727458D01*
X1571346Y-4736982D01*
X1561822Y-4727458D01*
X1571346Y-4717934D01*
X1571346Y-4736982D01*
X1704679Y-4536982D02*
X1723727Y-4536982D01*
X1742774Y-4546506D01*
X1752298Y-4556030D01*
X1761822Y-4575077D01*
X1771346Y-4613172D01*
X1771346Y-4660792D01*
X1761822Y-4698887D01*
X1752298Y-4717934D01*
X1742774Y-4727458D01*
X1723727Y-4736982D01*
X1704679Y-4736982D01*
X1685631Y-4727458D01*
X1676108Y-4717934D01*
X1666584Y-4698887D01*
X1657060Y-4660792D01*
X1657060Y-4613172D01*
X1666584Y-4575077D01*
X1676108Y-4556030D01*
X1685631Y-4546506D01*
X1704679Y-4536982D01*
X1952298Y-4536982D02*
X1857060Y-4536982D01*
X1847536Y-4632220D01*
X1857060Y-4622696D01*
X1876108Y-4613172D01*
X1923727Y-4613172D01*
X1942774Y-4622696D01*
X1952298Y-4632220D01*
X1961822Y-4651268D01*
X1961822Y-4698887D01*
X1952298Y-4717934D01*
X1942774Y-4727458D01*
X1923727Y-4736982D01*
X1876108Y-4736982D01*
X1857060Y-4727458D01*
X1847536Y-4717934D01*
X2057060Y-4736982D02*
X2095155Y-4736982D01*
X2114203Y-4727458D01*
X2123727Y-4717934D01*
X2142774Y-4689363D01*
X2152298Y-4651268D01*
X2152298Y-4575077D01*
X2142774Y-4556030D01*
X2133251Y-4546506D01*
X2114203Y-4536982D01*
X2076108Y-4536982D01*
X2057060Y-4546506D01*
X2047536Y-4556030D01*
X2038012Y-4575077D01*
X2038012Y-4622696D01*
X2047536Y-4641744D01*
X2057060Y-4651268D01*
X2076108Y-4660792D01*
X2114203Y-4660792D01*
X2133251Y-4651268D01*
X2142774Y-4641744D01*
X2152298Y-4622696D01*
X2276108Y-4536982D02*
X2295155Y-4536982D01*
X2314203Y-4546506D01*
X2323727Y-4556030D01*
X2333251Y-4575077D01*
X2342774Y-4613172D01*
X2342774Y-4660792D01*
X2333251Y-4698887D01*
X2323727Y-4717934D01*
X2314203Y-4727458D01*
X2295155Y-4736982D01*
X2276108Y-4736982D01*
X2257060Y-4727458D01*
X2247536Y-4717934D01*
X2238013Y-4698887D01*
X2228489Y-4660792D01*
X2228489Y-4613172D01*
X2238013Y-4575077D01*
X2247536Y-4556030D01*
X2257060Y-4546506D01*
X2276108Y-4536982D01*
X2418965Y-4536982D02*
X2418965Y-4575077D01*
X2495155Y-4536982D02*
X2495155Y-4575077D01*
X2790393Y-4813172D02*
X2780870Y-4803649D01*
X2761822Y-4775077D01*
X2752298Y-4756030D01*
X2742774Y-4727458D01*
X2733251Y-4679839D01*
X2733251Y-4641744D01*
X2742774Y-4594125D01*
X2752298Y-4565553D01*
X2761822Y-4546506D01*
X2780870Y-4517934D01*
X2790393Y-4508411D01*
X2952298Y-4536982D02*
X2914203Y-4536982D01*
X2895155Y-4546506D01*
X2885631Y-4556030D01*
X2866584Y-4584601D01*
X2857060Y-4622696D01*
X2857060Y-4698887D01*
X2866584Y-4717934D01*
X2876108Y-4727458D01*
X2895155Y-4736982D01*
X2933251Y-4736982D01*
X2952298Y-4727458D01*
X2961822Y-4717934D01*
X2971346Y-4698887D01*
X2971346Y-4651268D01*
X2961822Y-4632220D01*
X2952298Y-4622696D01*
X2933251Y-4613172D01*
X2895155Y-4613172D01*
X2876108Y-4622696D01*
X2866584Y-4632220D01*
X2857060Y-4651268D01*
X3085631Y-4622696D02*
X3066584Y-4613172D01*
X3057060Y-4603649D01*
X3047536Y-4584601D01*
X3047536Y-4575077D01*
X3057060Y-4556030D01*
X3066584Y-4546506D01*
X3085631Y-4536982D01*
X3123727Y-4536982D01*
X3142774Y-4546506D01*
X3152298Y-4556030D01*
X3161822Y-4575077D01*
X3161822Y-4584601D01*
X3152298Y-4603649D01*
X3142774Y-4613172D01*
X3123727Y-4622696D01*
X3085631Y-4622696D01*
X3066584Y-4632220D01*
X3057060Y-4641744D01*
X3047536Y-4660792D01*
X3047536Y-4698887D01*
X3057060Y-4717934D01*
X3066584Y-4727458D01*
X3085631Y-4736982D01*
X3123727Y-4736982D01*
X3142774Y-4727458D01*
X3152298Y-4717934D01*
X3161822Y-4698887D01*
X3161822Y-4660792D01*
X3152298Y-4641744D01*
X3142774Y-4632220D01*
X3123727Y-4622696D01*
X3399917Y-4736982D02*
X3399917Y-4536982D01*
X3485631Y-4736982D02*
X3485631Y-4632220D01*
X3476108Y-4613172D01*
X3457060Y-4603649D01*
X3428489Y-4603649D01*
X3409441Y-4613172D01*
X3399917Y-4622696D01*
X3609441Y-4736982D02*
X3590393Y-4727458D01*
X3580870Y-4717934D01*
X3571346Y-4698887D01*
X3571346Y-4641744D01*
X3580870Y-4622696D01*
X3590393Y-4613172D01*
X3609441Y-4603649D01*
X3638012Y-4603649D01*
X3657060Y-4613172D01*
X3666584Y-4622696D01*
X3676108Y-4641744D01*
X3676108Y-4698887D01*
X3666584Y-4717934D01*
X3657060Y-4727458D01*
X3638012Y-4736982D01*
X3609441Y-4736982D01*
X3790393Y-4736982D02*
X3771346Y-4727458D01*
X3761822Y-4708411D01*
X3761822Y-4536982D01*
X3942774Y-4727458D02*
X3923727Y-4736982D01*
X3885631Y-4736982D01*
X3866584Y-4727458D01*
X3857060Y-4708411D01*
X3857060Y-4632220D01*
X3866584Y-4613172D01*
X3885631Y-4603649D01*
X3923727Y-4603649D01*
X3942774Y-4613172D01*
X3952298Y-4632220D01*
X3952298Y-4651268D01*
X3857060Y-4670315D01*
X4028489Y-4727458D02*
X4047536Y-4736982D01*
X4085631Y-4736982D01*
X4104679Y-4727458D01*
X4114203Y-4708411D01*
X4114203Y-4698887D01*
X4104679Y-4679839D01*
X4085631Y-4670315D01*
X4057060Y-4670315D01*
X4038012Y-4660792D01*
X4028489Y-4641744D01*
X4028489Y-4632220D01*
X4038012Y-4613172D01*
X4057060Y-4603649D01*
X4085631Y-4603649D01*
X4104679Y-4613172D01*
X4180870Y-4813172D02*
X4190393Y-4803649D01*
X4209441Y-4775077D01*
X4218965Y-4756030D01*
X4228489Y-4727458D01*
X4238013Y-4679839D01*
X4238013Y-4641744D01*
X4228489Y-4594125D01*
X4218965Y-4565553D01*
X4209441Y-4546506D01*
X4190393Y-4517934D01*
X4180870Y-4508411D01*
M02*
